<svg width="941" height="942" viewBox="0 0 941 942" fill="none" xmlns="http://www.w3.org/2000/svg">
<path d="M637.284 303.835C594.964 261.516 535.219 234.132 470.495 234.132C405.77 234.132 346.025 260.271 303.705 303.835C261.386 346.155 234.002 405.9 234.002 470.624C234.002 535.349 261.386 595.094 303.705 637.414C346.025 679.733 405.77 707.117 470.495 707.117C535.219 707.117 594.964 680.978 637.284 637.414C679.603 595.094 706.987 535.349 706.987 470.624C706.987 405.9 680.848 346.155 637.284 303.835Z" fill="black"/>
<path d="M470.495 160.696C487.921 160.696 502.857 145.759 502.857 128.333V32.492C502.857 15.0662 487.921 0.129883 470.495 0.129883C453.069 0.129883 438.133 15.0662 438.133 32.492V128.333C438.133 145.759 453.069 160.696 470.495 160.696Z" fill="black"/>
<path d="M735.615 251.559L804.073 183.1C816.52 170.653 816.52 150.738 804.073 138.291C791.626 125.844 771.711 125.844 759.264 138.291L690.806 206.75C678.359 219.196 678.359 239.112 690.806 251.559C702.008 264.005 721.923 264.005 735.615 251.559Z" fill="black"/>
<path d="M908.628 438.264H812.786C795.361 438.264 780.424 453.2 780.424 470.626C780.424 488.051 795.361 502.988 812.786 502.988H908.628C926.054 502.988 940.99 488.051 940.99 470.626C940.99 453.2 926.054 438.264 908.628 438.264Z" fill="black"/>
<path d="M734.37 689.69C721.923 677.243 702.008 677.243 689.561 689.69C677.114 702.137 677.114 722.052 689.561 734.499L758.02 802.957C770.466 815.404 790.382 815.404 802.829 802.957C815.275 790.51 815.275 770.595 802.829 758.148L734.37 689.69Z" fill="black"/>
<path d="M470.495 780.554C453.069 780.554 438.133 795.491 438.133 812.916V908.758C438.133 926.184 453.069 941.12 470.495 941.12C487.921 941.12 502.857 926.184 502.857 908.758V812.916C502.857 795.491 487.921 780.554 470.495 780.554Z" fill="black"/>
<path d="M205.375 689.69L136.917 758.148C124.47 770.595 124.47 790.51 136.917 802.957C149.364 815.404 169.279 815.404 181.726 802.957L250.184 734.499C262.631 722.052 262.631 702.137 250.184 689.69C238.982 677.243 219.067 677.243 205.375 689.69Z" fill="black"/>
<path d="M160.566 470.626C160.566 453.2 145.629 438.264 128.204 438.264H32.3621C14.9363 438.264 0 453.2 0 470.626C0 488.051 14.9363 502.988 32.3621 502.988H128.204C145.629 502.988 160.566 488.051 160.566 470.626Z" fill="black"/>
<path d="M205.375 251.559C217.822 264.005 237.737 264.005 250.184 251.559C262.631 239.112 262.631 219.196 250.184 206.75L181.726 138.291C169.279 125.844 149.364 125.844 136.917 138.291C124.47 150.738 124.47 170.653 136.917 183.1L205.375 251.559Z" fill="black"/>
</svg>
