<?xml version="1.0" encoding="utf-8"?>
<!-- Generator: Adobe Illustrator 21.0.0, SVG Export Plug-In . SVG Version: 6.00 Build 0)  -->
<svg version="1.1" id="Layer_1" xmlns="http://www.w3.org/2000/svg" xmlns:xlink="http://www.w3.org/1999/xlink" x="0px" y="0px"
	 viewBox="0 0 394 389" style="enable-background:new 0 0 394 389;" xml:space="preserve">
<g>
	<path d="M132.9,273.9c0-12.9,0-25.2,0-38.2c-12.8,6.4-25.3,12.6-38,19c3.8,12.9,2.3,25.1-5,36.3c-5.6,8.6-13.5,14.4-23.3,17.2
		c-20,5.9-41.3-4-49.9-23c-8.4-18.5-2-40.8,14.7-52.1c16.7-11.3,42.4-10.2,58.2,10.7c3.6-1.8,7.3-3.6,10.9-5.4
		c9.9-5,19.9-9.9,29.8-14.8c1.7-0.8,2.7-1.7,2.7-3.9c-0.1-15.9,0-31.7-0.1-47.6c0-1.2-1-2.9-2-3.4c-21-10.7-42.2-21.2-63.3-31.7
		c-0.3-0.2-0.7-0.2-1.2-0.3c-6.6,7.6-14.8,11.6-25,11.2c-16.6-0.6-29.6-15.5-28.4-32.4C14.3,99,29.7,86.2,46.2,88.1
		c17,2,29.1,17.7,26.3,34.3c-0.3,1.9-0.7,3.4,1.7,4.6c19,9.4,38,18.9,57,28.4c0.4,0.2,0.9,0.3,1.8,0.6c0-12.8,0-25.2,0-37.9
		c20.1,0,39.8,0,59.7,0c0-8.3,0-16.3,0-24.6c-12.5-2.3-22.5-8.6-29.3-19.4c-5.7-9.2-7.5-19.1-5.7-29.8c3.4-20.2,22.2-35.1,43.4-34.2
		c20.6,0.8,38,17.5,39.7,38.4c1.7,20.1-11.5,40.7-35.6,45.1c0,7.9,0,15.9,0,24.3c19.7,0,39.5,0,59.6,0c0,12.8,0,25.3,0,38.4
		c1.6-0.7,2.7-1.2,3.7-1.7c18.1-9,36.1-18.1,54.3-27.1c2.4-1.2,3.2-2.3,2.7-5.1c-2.9-16,8.1-30.9,24.8-34c15.3-2.8,30.8,7.9,34,23.6
		c3.3,16-6.9,31.9-22.6,35.3c-10.9,2.3-20.2-0.6-28.1-8.4c-0.7-0.7-1.3-1.5-1.9-2.4c-13.7,6.9-27.1,13.5-40.5,20.2
		c-7.8,3.9-15.6,7.9-23.5,11.7c-1.9,0.9-2.8,2-2.7,4.2c0.1,15.6,0,31.2,0.1,46.9c0,1.3,0.9,3.2,2,3.8c13.6,7,27.4,13.8,41.4,20.9
		c8.3-11,19.2-17.3,33-17.9c10.4-0.5,19.7,2.7,27.8,9.2c16.3,13.1,20.5,35.9,9.9,54.1c-10.4,17.8-32.3,25.3-51.8,17.6
		c-17.8-7-31.4-27.5-24.4-52.2c-12.4-6.2-24.8-12.4-37.8-18.9c0,12.8,0,25.2,0,38c-20.2,0-39.9,0-60,0c0,16.5,0,32.5,0,48.6
		c17.6,6.7,26,19.2,23.3,34.3c-2.7,14.9-14.9,25.3-29.6,25.3c-14.4,0-26.7-10.2-29.4-24.6c-3-15.7,5.2-28,23.3-35.1
		c0-15.9,0-31.9,0-48.4C172.9,273.9,153,273.9,132.9,273.9z M145.3,130.2c0,44.1,0,87.9,0,131.5c36,0,71.8,0,107.5,0
		c0-44,0-87.7,0-131.5C216.9,130.2,181.2,130.2,145.3,130.2z M25,267.8c-0.1,16.6,13.3,30.1,29.9,30.1c16.4,0,29.9-13.3,30-29.7
		c0.2-16.6-13.2-30.2-29.7-30.3C38.6,237.9,25.1,251.3,25,267.8z M313,267.8c-0.1,16.6,13.3,30.2,29.9,30.2
		c16.4,0,30-13.3,30.1-29.6c0.1-16.6-13.2-30.3-29.7-30.4C326.7,237.9,313.1,251.3,313,267.8z M199.3,82
		c16.5-0.1,29.9-13.8,29.7-30.4C228.8,35.3,215.3,22,198.9,22c-16.5,0-30,13.6-29.9,30.2C169.1,68.7,182.7,82.1,199.3,82z M61,118.1
		c0-9.8-7.9-17.9-17.7-18c-10-0.1-18.2,8-18.3,17.9c0,9.8,8,18,17.7,18.1C52.7,136.1,61,128,61,118.1z M373,117.9
		c0-9.8-8.1-17.8-17.9-17.9c-10,0-18.1,8.1-18.1,18.1c0,9.9,8.3,18,18.3,17.9C365.1,135.9,373,127.7,373,117.9z M199,334
		c-9.8,0-17.9,8.1-17.9,17.8c-0.1,10,8.1,18.2,18,18.1c9.8,0,17.9-8.1,17.9-17.8C217.1,342.2,208.9,334,199,334z"/>
	<path d="M240.8,190.2c0,20,0,39.7,0,59.6c-27.9,0-55.7,0-83.6,0c0-11.9,0-23.6,0-35.6c7.8,0,15.6,0,23.7,0c0-4.2,0-8,0-12
		c8.1,0,15.8,0,23.9,0c0-4,0-7.8,0-11.9C217,190.2,228.8,190.2,240.8,190.2z M228.7,237.8c0-12.1,0-23.9,0-35.5c-4.1,0-7.8,0-11.5,0
		c0,12,0,23.7,0,35.5C221.1,237.8,224.8,237.8,228.7,237.8z M193.3,214.2c0,8,0,15.8,0,23.5c4,0,7.8,0,11.6,0c0-8,0-15.7,0-23.5
		C200.9,214.2,197.2,214.2,193.3,214.2z M169.2,226.2c0,4.1,0,7.8,0,11.6c4,0,7.8,0,11.5,0c0-4,0-7.8,0-11.6
		C176.8,226.2,173.1,226.2,169.2,226.2z"/>
	<path d="M240.8,166.3c0,3.9,0,7.6,0,11.5c-27.8,0-55.5,0-83.5,0c0-3.7,0-7.5,0-11.5C185,166.3,212.7,166.3,240.8,166.3z"/>
	<path d="M181.3,142.1c19.9,0,39.5,0,59.4,0c0,3.8,0,7.6,0,11.7c-19.7,0-39.5,0-59.4,0C181.3,149.8,181.3,146,181.3,142.1z"/>
	<path d="M157.3,142.1c3.9,0,7.5,0,11.4,0c0,3.8,0,7.6,0,11.7c-3.7,0-7.5,0-11.4,0C157.3,149.8,157.3,146,157.3,142.1z"/>
	<path d="M73,268.1c0,10-8.3,18.1-18.2,17.9c-9.8-0.1-17.8-8.3-17.7-18.1c0-9.8,8.1-17.9,17.9-17.9C64.9,250,73,258.1,73,268.1z
		 M61,267.9c0-3.2-2.8-5.9-6-5.9c-3.3,0-5.9,2.8-5.9,6c0,3.2,2.8,5.9,6,5.9C58.3,273.9,61,271.2,61,267.9z"/>
	<path d="M343.1,250c10,0,18,8.2,17.9,18.2c-0.1,9.8-8.2,17.8-18,17.7c-9.9,0-18-8.2-17.9-18.2C325.1,258,333.2,250,343.1,250z
		 M349,267.9c-0.1-3.3-2.8-5.9-6.1-5.9c-3.2,0.1-5.9,2.9-5.9,6.1c0.1,3.2,2.9,5.9,6.1,5.9C346.4,273.9,349,271.1,349,267.9z"/>
	<path d="M199,70c-9.9,0-18.1-8.2-18-18.2c0.1-9.8,8.2-17.8,18-17.8c10,0,18.1,8.2,18,18.1C216.9,61.9,208.8,70,199,70z M205,52
		c0-3.3-2.8-6-6-5.9c-3.3,0-6,2.8-5.9,6c0,3.3,2.8,6,6,5.9C202.3,57.9,205,55.2,205,52z"/>
</g>
</svg>
