<?xml version="1.0" encoding="utf-8"?>
<!-- Generator: Adobe Illustrator 21.0.0, SVG Export Plug-In . SVG Version: 6.00 Build 0)  -->
<svg version="1.1" id="Layer_1" xmlns="http://www.w3.org/2000/svg" xmlns:xlink="http://www.w3.org/1999/xlink" x="0px" y="0px"
	 viewBox="0 0 387 386" style="enable-background:new 0 0 387 386;" xml:space="preserve">
<path d="M195.5,336.9c-77.5,0.2-142-63.9-142.2-141.5C53,116.1,116.5,52.2,195.7,51.9c78-0.3,142.5,63.9,142.6,141.9
	C338.3,273,274.8,336.7,195.5,336.9z M159.7,316.3c-13.2-17.5-20.1-37.4-25.1-58.1c-0.6-2.6-2.5-2.5-4.2-2.9
	c-13.7-3.4-27.1-7.7-39.7-14.3c-5.8-3-11.2-6.6-16.8-10C85,272,121.2,306.3,159.7,316.3z M317.6,158.3
	c-5.2-34.1-53.6-82.4-85.1-85.5c3.2,5.3,6.7,10.6,9.7,16.2c6.7,12.8,11.2,26.4,14.5,40.4c0.5,2,1.1,3.4,3.6,4
	C280.7,138.3,300.4,145.3,317.6,158.3z M317.6,230.8c-25.5,15.6-28.9,17.1-57.4,24.6c-2.7,0.7-3.1,2.3-3.6,4.4
	c-4.2,17.6-10.2,34.4-20,49.7c-1.4,2.2-3,4.4-4.6,6.9C274.7,304.7,308.3,267.5,317.6,230.8z M73.2,158.5
	c25.9-15.9,28.4-17,58.2-25.1c2.7-0.7,3-2.5,3.5-4.5c4.8-19.9,11.8-38.9,24.1-55.6c0.2-0.2,0.2-0.5,0.4-1.4
	C116.3,86.5,87.8,114.9,73.2,158.5z M141.9,202c1.5,13.6,3,26.6,4.7,39.7c0.1,0.8,1.8,1.9,2.9,2.1c7.6,1.1,15.3,2.1,23,2.9
	c5.1,0.5,10.3,0.6,15.4,0.9c0-15.5,0-30.5,0-45.6C172.8,202,158,202,141.9,202z M203.4,186.6c15.4,0,30.4,0,46.2,0
	c-1.5-13.3-2.9-26.2-4.6-39.1c-0.1-1-1.8-2.3-2.9-2.5c-7.8-1.2-15.6-2.2-23.4-3c-5-0.5-10.1-0.6-15.3-0.9
	C203.4,156.6,203.4,171.5,203.4,186.6z M188,186.7c0-15.3,0-30.3,0-46.1c-13.3,1.5-26.1,2.9-39,4.5c-1,0.1-2.3,1.8-2.6,2.9
	c-0.9,4.9-1.7,9.8-2.2,14.8c-0.7,7.9-1.2,15.8-1.8,24C157.9,186.7,172.9,186.7,188,186.7z M203.5,248.2c13.4-1.5,26.5-2.9,39.5-4.5
	c0.8-0.1,2-1.8,2.1-2.9c0.9-4.9,1.7-9.8,2.1-14.8c0.7-7.9,1.2-15.8,1.8-23.8c-15.6,0-30.6,0-45.6,0
	C203.5,217.4,203.5,232.3,203.5,248.2z M264.3,186.6c19.2,0,38.1,0,57.2,0c-6-15.4-42.7-37.7-60.5-36.9
	C262.1,161.9,263.2,174.2,264.3,186.6z M188.1,262.9c-12.7-1.1-25-2.2-37.7-3.3c2.8,11.6,6.7,22.3,11.9,32.6
	c4.5,8.8,9.7,17.2,17.7,23.4c2.4,1.9,5.1,3.3,8.1,5.2C188.1,300.9,188.1,282,188.1,262.9z M203.4,125.9c12.7,1.1,25,2.2,38.1,3.3
	c-2.3-7-4.3-13.5-6.7-19.9c-4.3-11.2-9.6-21.9-17.8-30.9c-3.8-4.2-8-7.7-13.6-9.9C203.4,87.8,203.4,106.7,203.4,125.9z M203.4,320.1
	c19-6.2,34.8-43.2,37.2-60.4c-12.4,1.1-24.7,2.1-37.2,3.2C203.4,282,203.4,300.9,203.4,320.1z M261,240.3c8.4-2.9,16.3-5.4,24-8.5
	c10.2-4.1,19.9-9.4,27.9-17.2c3.7-3.5,6.8-7.5,8.7-12.5c-19.4,0-38.3,0-57.3,0C263.2,214.6,262.1,227,261,240.3z M188,125.9
	c0-19,0-38,0-57.1c-15,5-37.8,42.5-37,60.3C163.3,128,175.6,126.9,188,125.9z M127.2,202.2c-19.2,0-38.2,0-57.2,0
	c6.5,19.1,44.4,35,60.4,36.9C129.4,226.9,128.3,214.6,127.2,202.2z M130.6,148.3c-9.4,3.5-18.3,6.4-26.9,10
	C92.5,163.1,82,169.2,74.3,179c-1.8,2.2-3,4.9-4.7,7.6c19.8,0,38.7,0,57.6,0C128.3,174.2,129.4,161.9,130.6,148.3z"/>
<path d="M15.8,188.8C20,123.5,49,72.8,105.4,38.8c27.1-16.3,56.8-24.1,88.5-24.3c2.4,0,5.2,0.9,7.1,2.3c2.5,1.8,2.9,4.8,1.6,7.8
	c-1.4,3.2-4,4.5-7.4,4.8c-9.9,0.8-20,1.1-29.8,3C119.8,41.1,84,65.2,58.1,103.8c-18,26.8-26.7,56.7-27.4,89c0,2.4-0.9,5.5-2.6,7
	c-1.6,1.5-4.8,1.9-7.1,1.6c-3.1-0.4-4.8-3-5.1-6.2C15.6,193.1,15.8,190.9,15.8,188.8z"/>
<path d="M200.8,374.4c-1.5,0-3,0-4.5,0c-4.8-0.1-8.1-3.3-8-7.6c0-4.2,3.2-7,7.8-7.4c9.9-0.9,20-1.1,29.8-3
	c42.9-8,77.4-30,103.2-65.1c20.8-28.2,31-60.1,31.6-95.1c0.1-5.1,1.7-7.7,5.2-8.9c5.1-1.7,9.8,2.1,9.8,8c0,15.2-1.7,30.2-5.9,44.8
	c-19.4,66.5-62.4,109.4-129,128.5c-6.6,1.9-13.4,3.1-20.2,4.1c-6.5,1-13.2,1.3-19.8,1.9C200.9,374.5,200.8,374.5,200.8,374.4z"/>
<path d="M45.6,14.4c12.5,0,22.7,10.1,22.6,22.5c0,12.3-10,22.4-22.4,22.4c-12.4,0.1-22.6-10.1-22.6-22.6
	C23.2,24.6,33.4,14.4,45.6,14.4z M45.8,29.4c-4,0-7.4,3.2-7.5,7.2c-0.1,4.1,3.3,7.7,7.4,7.7c4.1,0,7.6-3.5,7.5-7.6
	C53.2,32.8,49.8,29.5,45.8,29.4z"/>
<path d="M330.6,29.4c12.5-0.1,22.7,10,22.7,22.5c0,12.3-10,22.4-22.3,22.5c-12.5,0.1-22.7-10-22.7-22.5
	C308.3,39.6,318.3,29.5,330.6,29.4z M338.2,51.9c0-4-3.3-7.4-7.4-7.5c-4.2-0.1-7.7,3.5-7.6,7.6c0.1,4,3.5,7.3,7.5,7.3
	C334.9,59.3,338.2,55.9,338.2,51.9z"/>
<path d="M75.8,329.5c-0.1,12.3-10.2,22.3-22.4,22.4c-12.5,0-22.6-10.1-22.5-22.6c0.1-12.4,10.3-22.5,22.8-22.4
	C65.9,307.1,75.8,317.2,75.8,329.5z M60.7,329.3c-0.1-4-3.5-7.4-7.5-7.3c-4.2,0-7.6,3.6-7.4,7.8c0.2,4,3.7,7.3,7.7,7.1
	C57.5,336.7,60.8,333.3,60.7,329.3z"/>
<path d="M353.2,321.9c12.5,0,22.6,10.1,22.6,22.6c0,12.2-10.2,22.4-22.4,22.4c-12.5,0-22.6-10.1-22.6-22.6
	C330.8,332,340.8,322,353.2,321.9z M353.2,351.9c4,0.1,7.4-3.2,7.6-7.2c0.2-4.1-3.2-7.7-7.4-7.8c-4-0.1-7.4,3.2-7.6,7.2
	C345.6,348.2,349,351.8,353.2,351.9z"/>
<path d="M354,132.6c-0.6,5.6-3.4,9.1-7.9,9.3c-4.5,0.2-7.5-3.2-7.8-8.6c-0.7-12.2-6.6-21.4-16.4-28.4c-0.8-0.6-1.7-1.1-2.5-1.6
	c-3.6-2.6-4.6-6.6-2.5-10.1c2.2-3.6,6.5-4.8,10.4-2.4c10.1,6.1,18,14.3,22.3,25.4C351.6,121.3,352.5,127,354,132.6z"/>
<path d="M39,258.8c-0.3-7.6,1.4-10.7,4.9-11.8c5.2-1.6,9.6,1.8,9.9,7.9c0.5,10,3.7,18.8,11,25.8c1.8,1.7,3.9,3.1,5.9,4.5
	c4.3,3,5.5,7.2,3.2,10.9c-2.4,3.8-6.9,4.6-11.5,1.7C47.3,288.2,40.4,273.9,39,258.8z"/>
<path d="M278.5,29.6c4.9,0,9.6,0,14.6,0c0,4.8,0,9.6,0,14.6c-4.8,0-9.6,0-14.6,0C278.5,39.4,278.5,34.7,278.5,29.6z"/>
<path d="M263.1,29.7c0,5,0,9.7,0,14.5c-4.9,0-9.5,0-14.5,0c0-4.7,0-9.5,0-14.5C253.2,29.7,258,29.7,263.1,29.7z"/>
<path d="M233.1,44.2c-4.9,0-9.6,0-14.5,0c0-4.8,0-9.6,0-14.6c4.8,0,9.5,0,14.5,0C233.1,34.4,233.1,39.1,233.1,44.2z"/>
<path d="M105.6,344.7c0,4.9,0,9.6,0,14.5c-4.9,0-9.7,0-14.7,0c0-4.8,0-9.5,0-14.5C95.7,344.7,100.5,344.7,105.6,344.7z"/>
<path d="M121.1,344.5c4.9,0,9.5,0,14.4,0c0,4.8,0,9.6,0,14.7c-4.7,0-9.5,0-14.4,0C121.1,354.2,121.1,349.4,121.1,344.5z"/>
<path d="M151,344.6c5,0,9.7,0,14.6,0c0,4.9,0,9.6,0,14.5c-4.8,0-9.5,0-14.6,0C151,354.4,151,349.6,151,344.6z"/>
</svg>
