<svg width="894" height="1234" viewBox="0 0 894 1234" fill="none" xmlns="http://www.w3.org/2000/svg">
<path d="M446.755 0C200.466 0 0.0966797 200.369 0.0966797 446.655C0.0966797 752.304 399.812 1201.01 416.83 1219.97C432.815 1237.77 460.723 1237.74 476.679 1219.97C493.697 1201.01 893.412 752.304 893.412 446.655C893.408 200.369 693.041 0 446.755 0ZM446.755 1131.49C312.23 971.691 80.5316 656.429 80.5316 446.66C80.5316 244.72 244.817 80.4349 446.755 80.4349C648.692 80.4349 812.977 244.72 812.977 446.658C812.975 656.436 581.313 971.64 446.755 1131.49Z" fill="black"/>
<path d="M446.754 221.931C322.841 221.931 222.032 322.742 222.032 446.656C222.032 570.57 322.843 671.381 446.754 671.381C570.666 671.381 671.474 570.57 671.474 446.656C671.474 322.742 570.666 221.931 446.754 221.931ZM446.754 590.946C367.192 590.946 302.467 526.219 302.467 446.656C302.467 367.093 367.194 302.366 446.754 302.366C526.315 302.366 591.042 367.093 591.042 446.656C591.042 526.219 526.315 590.946 446.754 590.946Z" fill="black"/>
</svg>
