<svg width="533" height="630" viewBox="0 0 533 630" fill="none" xmlns="http://www.w3.org/2000/svg">
<path d="M266.823 210.962H436.981C441.641 210.962 441.641 210.962 441.641 215.687V462.516C441.641 486.519 423.567 505.356 399.574 506.112C391.387 506.364 383.137 506.175 374.888 506.175C370.543 506.175 370.48 506.175 370.48 510.459C370.48 537.044 370.48 563.693 370.606 590.278C370.669 610.69 355.681 627.636 335.529 629.778C315.755 631.92 297.24 618.313 293.273 598.531C292.706 595.759 292.58 592.798 292.58 589.9C292.58 563.378 292.58 536.918 292.643 510.396C292.643 506.175 292.643 506.175 288.487 506.175C273.625 506.175 258.763 506.238 243.964 506.112C241.13 506.112 240.374 506.868 240.374 509.703C240.5 536.729 240.5 563.756 240.5 590.782C240.5 606.595 230.802 621.148 216.381 626.943C201.393 632.991 184.327 629.463 173.306 617.872C166.19 610.375 162.474 601.303 162.474 590.908C162.411 563.882 162.412 536.855 162.537 509.829C162.537 506.931 161.782 506.112 158.822 506.112C148.683 506.049 138.544 506.805 128.405 505.671C108.19 503.34 91.817 485.196 91.754 464.721C91.691 440.656 91.754 416.653 91.754 392.588V215.309C91.754 210.962 91.754 210.962 96.0992 210.962H266.823ZM266.257 197.606C209.139 197.606 151.958 197.606 94.8398 197.669C92.3208 197.669 91.2502 197.165 91.3132 194.33C91.9429 176.376 95.2806 158.988 102.019 142.23C111.591 118.291 126.39 98.0051 145.723 81.0584C155.61 72.3646 166.379 64.8677 178.092 58.7569C180.233 57.6229 180.359 56.7409 179.226 54.6619C171.228 40.2982 163.356 25.8714 155.484 11.4447L153.91 8.67276C152.273 5.33382 153.091 2.12088 155.925 0.67191C158.885 -0.840063 161.845 0.230917 163.671 3.56986L171.543 17.8706C177.211 28.2654 183.004 38.5972 188.483 49.118C189.994 52.016 191.38 52.394 194.403 51.134C220.411 40.1722 247.553 35.6993 275.703 37.0222C298.122 38.0302 319.659 42.9441 340.252 51.764C342.519 52.709 343.149 51.89 344.093 50.126C352.28 35.0063 360.593 19.9496 368.842 4.89283C369.85 3.00287 370.731 0.923905 373.062 0.356915C375.266 -0.210074 377.344 0.167919 378.918 1.99489C380.556 4.01085 380.744 6.21581 379.422 8.54677C374.951 16.6736 370.48 24.8005 366.008 32.9903C362.041 40.1722 358.263 47.4801 354.106 54.5989C352.721 56.9299 353.099 57.8749 355.429 59.1348C382.886 74.0026 404.99 94.5402 420.922 121.567C433.517 142.923 440.444 166.044 441.515 190.865C441.83 197.795 441.767 197.795 434.588 197.795C378.414 197.606 322.304 197.606 266.257 197.606ZM187.035 104.809C178.659 104.809 172.047 111.361 172.173 119.551C172.236 127.678 178.848 134.166 186.972 134.166C195.095 134.103 201.645 127.615 201.708 119.488C201.708 111.361 195.158 104.809 187.035 104.809ZM331.498 119.173C331.372 127.363 337.607 133.977 345.794 134.166C353.98 134.355 360.844 127.804 360.907 119.551C360.97 111.613 354.547 104.935 346.675 104.809C338.174 104.62 331.687 110.794 331.498 119.173ZM77.8996 324.234V404.999C77.8996 424.528 64.0452 441.16 45.5936 443.869C25.4417 446.893 7.36803 435.49 1.51139 416.149C0.314874 412.243 0 408.211 0 404.117V243.91C0 224.381 11.7763 209.072 29.9129 204.599C54.2211 198.677 77.8366 217.136 77.8996 242.21C77.9626 269.551 77.8996 296.893 77.8996 324.234ZM532.891 324.045C532.891 351.954 533.206 379.799 532.765 407.707C532.45 429.379 511.732 446.767 490.257 444.121C469.098 441.538 455.054 425.599 455.054 404.243V242.713C455.054 220.601 473.065 202.835 494.917 203.465C516.329 204.032 532.891 221.231 532.954 242.965C533.017 269.992 532.954 297.019 532.954 324.045H532.891Z" fill="black"/>
</svg>
