<svg width="603" height="630" viewBox="0 0 603 630" fill="none" xmlns="http://www.w3.org/2000/svg">
<path d="M300.537 0.000152943C299.031 0.00700106 297.513 0.256101 296.067 0.749166L9.20521 100.528C3.12032 102.638 -0.690434 108.711 0.104438 115.107L45.4477 486.591C45.9822 490.987 48.5815 494.861 52.4874 496.97L294.354 628.341C296.382 629.451 298.637 630 300.885 630C303.146 630 305.427 629.438 307.469 628.315L550.567 495.151C554.432 493.028 557.059 489.168 557.58 484.799L602.896 113.342C603.691 106.918 599.842 100.791 593.689 98.7093L304.98 0.695665C303.541 0.216297 302.043 -0.00669517 300.537 0.000152943ZM301.5 68.4545L479.661 451.949H418.847L380.731 369.879H222.27L184.154 451.949H123.34L301.5 68.4545ZM301.5 198.569L247.779 314.987H355.222L301.5 198.569Z" fill="black"/>
</svg>
