<svg width="511" height="630" viewBox="0 0 511 630" fill="none" xmlns="http://www.w3.org/2000/svg">
<path d="M287.91 47.6926C310.528 21.1057 348.77 1.32304 380.334 0C384.366 36.9822 369.561 73.9645 347.636 100.614C325.711 127.201 289.8 147.929 254.582 145.22C249.857 109.057 267.561 71.3814 287.91 47.6926ZM467.466 551.772C441.257 590.141 414.166 628.32 371.451 629.139C329.366 629.958 315.883 604.127 267.876 604.127C219.805 604.127 204.748 628.32 165.057 629.958C123.79 631.533 92.4155 588.44 66.0177 550.26C12.0881 472.075 -29.0522 329.249 26.2635 232.856C53.6693 184.974 102.811 154.67 156.047 153.914C196.621 153.158 234.863 181.32 259.622 181.32C284.445 181.32 330.941 147.488 379.767 152.465C400.243 153.347 457.637 160.718 494.493 214.837C491.595 216.727 425.947 255.033 426.766 334.793C427.585 430.052 509.992 461.742 511 462.183C510.181 464.389 497.707 507.419 467.466 551.772Z" fill="black"/>
</svg>
