<svg width="1591" height="632" viewBox="0 0 1591 632" fill="none" xmlns="http://www.w3.org/2000/svg">
<path d="M1329.23 2.38008C1263.28 9.18037 1210.25 37.7416 1177.95 83.3035C1155.51 114.585 1146.68 136.686 1109.96 251.611C1063.39 398.497 1034.15 486.561 1028.37 496.421L1023.95 504.922L1019.87 494.721C1015.11 482.481 1004.57 442.359 983.836 358.715C943.381 193.468 921.964 132.266 887.288 81.6035C864.171 47.942 839.354 28.9012 805.699 19.0408C789.381 13.9406 763.204 13.2605 601.724 13.6006C403.189 13.6006 399.45 13.9406 365.454 31.6213C243.069 94.184 115.585 282.552 32.2959 523.622C19.0376 561.704 0 624.947 0 630.727C0 632.087 44.8744 632.427 99.6075 631.407C187.996 630.047 201.255 629.027 220.292 622.907C258.028 610.666 285.564 594.685 309.701 570.884C341.997 539.263 356.275 507.642 394.69 384.216C411.688 329.134 427.666 280.172 430.046 275.412C444.324 247.531 540.192 132.606 549.371 132.606C555.15 132.606 558.55 144.506 591.866 278.812C606.824 339.674 625.521 408.357 633 431.818C658.837 512.062 689.093 564.424 725.469 591.625C758.105 616.106 754.365 615.766 962.079 614.746L1147.36 613.726L1167.75 604.206C1220.11 579.725 1276.2 521.242 1342.83 421.618C1382.27 362.455 1506.35 152.326 1580.12 19.3808L1591 -1.93888e-05L1466.24 0.68001C1397.22 0.68001 1335.69 1.70005 1329.23 2.38008Z" fill="black"/>
</svg>
