<svg width="462" height="630" viewBox="0 0 462 630" fill="none" xmlns="http://www.w3.org/2000/svg">
<path d="M85.4443 2.08024C83.5218 3.25509 81.2789 5.81841 80.4245 7.63409C79.036 10.6246 16.3415 408.9 17.0892 409.648C17.3028 409.755 52.3348 347.487 95.0568 271.229L172.811 132.596L140.662 72.4647C101.892 -0.162668 104.028 3.5755 100.183 1.54621C95.9112 -0.696692 89.6097 -0.483082 85.4443 2.08024Z" fill="black"/>
<path d="M224.504 89.6603C223.223 90.1943 220.98 92.2236 219.591 94.1461C217.669 96.7094 76.8999 347.06 10.6809 465.614C8.86518 468.925 53.0824 425.348 149.634 329.01L291.257 187.6L287.626 180.444C285.704 176.599 274.916 155.879 263.702 134.518C241.059 91.3692 239.03 88.5922 231.34 88.699C228.777 88.699 225.679 89.1262 224.504 89.6603Z" fill="black"/>
<path d="M381.614 129.285C379.371 129.926 318.813 188.989 189.365 316.621C85.4443 419.153 0.213976 503.423 0.000365768 503.85C-0.320049 505.025 209.979 626.035 216.067 628.171C223.116 630.627 235.719 630.627 242.982 628.064C245.972 627.103 296.384 598.906 354.806 565.476C436.405 518.803 461.184 504.17 461.184 502.675C461.184 499.364 400.305 140.072 399.344 137.402C398.062 134.305 394.111 130.673 390.372 129.285C386.955 127.896 385.993 127.896 381.614 129.285Z" fill="black"/>
</svg>
