<svg width="563" height="630" viewBox="0 0 563 630" fill="none" xmlns="http://www.w3.org/2000/svg">
<path d="M559.402 4.44039C556.832 1.60497 553.137 0 549.282 0H13.7181C9.86281 0 6.16816 1.60497 3.59797 4.44039C0.974221 7.27581 -0.310874 11.0742 0.0639487 14.9261L48.3086 554.888C48.7905 560.559 52.7529 565.267 58.2146 566.872L277.698 629.465C278.876 629.839 280.161 630 281.446 630C282.732 630 283.963 629.839 285.195 629.465L504.839 566.872C510.301 565.267 514.21 560.559 514.745 554.888L562.936 14.9261C563.311 11.0742 562.026 7.27581 559.402 4.44039ZM443.904 190.616H186.028L192.186 260.324H437.693L419.273 466.348L281.393 507.97L280.054 507.542L143.781 466.294L136.338 382.355H203.109L206.001 414.935L282.196 430.878L356.999 414.935L364.978 326.77H131.358L113.206 124.01H449.848L443.904 190.616Z" fill="black"/>
</svg>
