<svg width="580" height="632" viewBox="0 0 580 632" fill="none" xmlns="http://www.w3.org/2000/svg">
<path d="M233.547 0.905386C232.127 1.35686 225.738 3.42076 219.349 5.42017C161.524 23.6728 119.898 44.8278 107.765 62.0484C104.087 67.3372 102.861 70.691 102.861 75.5928C102.861 83.3969 106.926 88.7501 119.834 97.7797C160.75 126.674 183.725 164.211 188.113 209.23C189.016 218.582 188.5 236.835 187.08 245.993C180.82 285.917 162.492 323.583 130.676 361.701C112.412 383.63 91.1795 403.688 62.6545 425.875C25.4816 454.77 7.86316 476.183 1.40953 500.305C-0.591094 507.98 -0.462021 518.944 1.79675 526.555C10.3801 555.45 44.5198 580.216 102.861 600.081C151.585 616.593 222.511 630.201 268.719 631.749C284.595 632.33 283.369 632.91 290.145 621.043C317.315 573.444 336.611 523.137 346.098 474.957C351.712 446.514 353.519 428.584 353.519 399.819C353.584 368.28 350.551 343.255 344.162 321.713C343.129 318.23 342.29 315.134 342.29 314.812C342.29 314.489 343.839 313.78 345.711 313.199C347.518 312.683 356.94 309.845 366.491 307.008C438.449 285.272 512.989 267.277 568.49 258.248C575.331 257.151 579.074 256.248 579.526 255.604C583.01 251.024 566.812 229.224 546.87 211.746C490.917 162.664 403.277 126.481 303.181 111.002C294.921 109.712 290.016 108.615 288.144 107.712C276.463 101.714 261.491 74.6898 247.486 33.9923C244.389 24.9627 239.355 8.70951 237.741 2.6468C237.354 1.16337 236.838 -0.0620668 236.58 0.00243003C236.322 0.00243003 234.966 0.453908 233.547 0.905386ZM240.065 23.3503C247.357 43.3443 250.52 56.2437 248.583 57.7916C246.002 59.92 165.913 47.6656 159.007 44.1183C157.523 43.3443 157.781 43.0863 165.783 39.0875C174.819 34.5728 195.664 24.9627 219.349 14.3852L234.127 7.74206L235.031 9.80596C235.483 10.9669 237.741 17.0296 240.065 23.3503ZM166.3 52.8254C199.278 60.049 233.547 66.6277 243.485 67.4662L248.906 67.9821L226.189 81.978L203.473 96.0383H197.729H192.05L177.981 81.333C162.75 65.5313 152.231 54.0508 149.908 50.826L148.423 48.7621L150.166 49.2135C151.134 49.407 158.362 51.084 166.3 52.8254ZM156.361 73.1419C164.557 82.6874 171.011 90.6205 170.688 90.7495C170.366 90.8785 163.589 89.3306 155.651 87.3957C133.903 82.0425 120.027 77.7212 118.349 75.7218C116.607 73.5934 122.157 67.3372 133.322 58.8881C138.678 54.8893 139.969 54.1798 140.679 54.8893C141.131 55.3407 148.165 63.5319 156.361 73.1419ZM263.104 91.2655C266.589 99.6501 269.364 106.551 269.235 106.68C269.106 106.745 261.362 105.584 251.939 104.1C242.517 102.617 231.417 100.876 227.287 100.231C223.092 99.5856 219.671 98.9406 219.736 98.6826C219.736 98.2957 255.876 76.0442 256.457 76.0442C256.651 76.0442 259.619 82.8809 263.104 91.2655ZM151.327 101.521C159.265 104.229 166.106 106.745 166.493 107.196C167.268 108.035 177.916 143.121 177.529 143.508C177.4 143.637 175.27 141.251 172.818 138.155C162.75 125.32 151.779 112.678 144.228 104.874C139.84 100.36 136.355 96.6832 136.548 96.6832C136.742 96.6832 143.389 98.8761 151.327 101.521ZM209.152 111.84C227.545 114.549 242.969 116.742 243.485 116.871C244.001 116.935 232.708 125.771 218.381 136.542L192.308 156.085L191.533 152.344C190.501 147.313 185.725 133.769 179.917 119.386C177.271 112.872 175.141 107.454 175.141 107.261C175.141 106.874 172.689 106.551 209.152 111.84ZM254.521 124.417C259.49 134.22 261.813 147.829 261.878 167.436C261.942 174.918 261.749 181.239 261.555 181.497C261.297 181.69 255.812 179.949 249.293 177.562C234.644 172.274 209.862 164.018 206.57 163.437C205.215 163.179 204.247 162.664 204.312 162.341C204.505 161.825 251.939 120.612 252.391 120.547C252.52 120.547 253.424 122.288 254.521 124.417ZM303.568 129.254C325.059 133.704 343.258 137.574 344.097 137.768C345.323 138.09 344.291 138.8 337.966 142.154C333.771 144.346 316.798 153.698 300.213 162.986C283.562 172.209 270.01 179.691 270.01 179.626C270.01 179.562 270.655 176.788 271.365 173.434C272.397 168.92 272.785 165.05 272.785 158.923C272.849 146.668 270.397 136.413 264.847 125.513C262.781 121.515 262.459 120.547 263.362 120.805C264.008 120.999 282.078 124.804 303.568 129.254ZM360.618 144.54C358.553 161.245 350.357 183.883 338.289 206.005C335.772 210.585 333.642 214.519 333.513 214.584C333.449 214.712 331.384 213.681 328.931 212.262C315.895 204.715 295.824 194.396 288.531 191.494L284.788 190.01L290.79 186.14C294.082 184.012 302.342 178.723 309.054 174.402C315.83 170.081 330.157 160.793 340.935 153.827C351.712 146.862 360.683 141.186 360.812 141.186C360.941 141.186 360.877 142.734 360.618 144.54ZM387.078 145.765C418.572 154.988 444.257 163.889 457.358 170.081C464.264 173.306 466.264 174.724 464.07 174.724C462.586 174.724 427.349 185.495 411.344 190.849C389.208 198.266 371.073 205.231 355.778 212.326L350.938 214.584L355.972 198.008C364.103 171.435 370.041 148.668 370.041 144.024C370.041 142.154 370.428 141.186 371.267 141.186C371.396 141.186 378.56 143.25 387.078 145.765ZM211.991 183.754C228.835 188.72 248.39 196.911 248.39 198.975C248.39 199.62 235.612 212.133 215.154 231.482L203.86 242.124L203.408 229.224C202.505 203.103 201.472 189.365 199.923 182.271C199.665 181.11 199.794 180.529 200.375 180.529C200.827 180.529 206.054 181.948 211.991 183.754ZM471.75 183.432C470.911 185.624 460.972 201.62 454.067 211.81C439.224 233.739 425.736 250.702 407.601 269.986L399.598 278.564L393.984 270.567C390.951 266.117 385.981 259.409 382.948 255.539C375.978 246.703 360.618 231.288 355.391 227.934C353.197 226.515 351.39 225.225 351.325 225.032C351.261 224.065 444.322 190.333 462.521 184.721C470.717 182.206 472.331 182.013 471.75 183.432ZM495.306 189.301C520.475 206.715 543.579 224.967 555.905 237.286C562.746 244.059 569.522 252.443 568.683 253.024C568.619 253.088 561.391 253.798 552.678 254.636C514.537 258.119 470.717 263.601 448.517 267.6C438.772 269.341 423.09 273.082 420.056 274.372C419.088 274.824 419.346 274.308 420.96 272.373C451.034 236.706 472.46 207.295 480.914 190.075C482.915 185.947 484.786 182.529 484.98 182.529C485.238 182.464 489.885 185.56 495.306 189.301ZM293.114 216.647C313.507 227.612 315.056 228.579 313.765 229.353C312.926 229.74 299.051 237.351 282.917 246.187C266.783 255.088 253.488 262.247 253.424 262.182C253.359 262.118 255.876 254.12 259.103 244.446C265.492 225.096 269.364 210.907 269.364 206.908C269.364 205.038 269.622 204.328 270.203 204.522C270.655 204.651 280.981 210.069 293.114 216.647ZM253.553 220.259C248.325 240.06 241.033 257.28 232.449 270.051L229.287 274.759L226.254 272.308C224.576 271.018 220.704 267.793 217.606 265.278C214.508 262.763 210.249 259.409 208.119 257.861C205.99 256.313 204.183 254.83 204.183 254.572C204.183 254.056 255.295 211.423 255.618 211.681C255.682 211.81 254.779 215.615 253.553 220.259ZM342.032 246.961C357.327 255.604 369.395 264.117 377.785 272.244C382.238 276.501 387.207 282.305 386.756 282.692C386.627 282.821 372.106 287.529 354.552 293.076C319.509 304.17 280.013 316.94 271.946 319.778C269.106 320.745 266.783 321.455 266.783 321.326C266.783 321.132 272.268 314.876 278.916 307.395C303.568 279.661 325.382 253.991 330.738 246.38C332.287 244.188 333.642 242.446 333.771 242.446C333.965 242.446 337.644 244.51 342.032 246.961ZM313.442 245.284C312.797 246.122 300.793 261.602 286.724 279.661C272.656 297.655 258.587 315.844 255.489 319.971C252.327 324.164 249.487 327.582 249.229 327.582C248.971 327.582 248.713 326.937 248.713 326.099C248.713 323.454 244.905 306.105 242.84 299.59C240.775 292.883 238.968 288.755 237.29 286.82C236.386 285.853 237.096 285.337 246.196 280.757C262.652 272.566 292.533 256.313 308.086 247.09C314.346 243.349 315.12 243.156 313.442 245.284ZM201.214 277.21C205.409 279.016 212.572 284.176 212.572 285.337C212.572 287.207 185.273 308.813 175.851 314.36C175.335 314.618 175.787 313.328 176.884 311.393C184.757 297.526 192.179 283.144 194.179 277.79C195.406 274.437 194.889 274.501 201.214 277.21ZM227.674 305.008C232.901 310.619 236.773 321.326 236.322 329.001L236.128 332.226L220.317 339.449C187.984 354.219 172.366 361.636 153.328 371.117C142.55 376.535 134.161 380.534 134.612 380.147C135.064 379.696 144.874 371.375 156.426 361.701C191.275 332.419 209.604 316.424 218.381 307.523C221.414 304.492 224.06 301.977 224.253 301.912C224.511 301.848 225.996 303.267 227.674 305.008ZM206.764 309.136C205.86 309.974 187.597 325.97 166.106 344.674C144.616 363.378 126.223 379.502 125.126 380.405C124.093 381.308 123.512 381.63 123.899 381.114C127.255 376.342 150.037 346.673 151.844 344.803C156.684 339.643 173.334 327.066 184.822 319.778C190.565 316.231 206.635 307.652 207.732 307.588C208.055 307.588 207.603 308.297 206.764 309.136ZM336.095 321.584C337.773 331.516 338.353 339.772 338.418 353.897V367.054L326.027 360.604C315.056 354.993 294.533 343.513 283.304 336.741C280.335 334.935 279.755 334.354 280.529 333.903C281.497 333.387 333.771 315.457 334.61 315.392C334.804 315.328 335.514 318.165 336.095 321.584ZM302.407 357.122C319.38 367.183 333.126 375.697 332.932 375.955C332.352 376.922 323.575 382.404 315.508 386.919C306.924 391.756 266.266 412.202 263.75 412.976L262.394 413.427L263.62 409.364C267.041 398.4 268.848 380.469 268.977 355.251C269.041 337.579 269.041 337.386 270.332 338.031C271.042 338.418 285.498 346.996 302.407 357.122ZM253.488 344.48C253.682 345.641 254.005 351.381 254.263 357.251C254.714 368.731 254.069 377.309 251.875 388.854C250.326 396.723 245.034 413.363 244.001 413.363C243.679 413.363 241.743 412.137 239.742 410.654C230.642 403.882 219.929 391.756 212.895 380.405C209.023 374.084 203.344 363.055 203.795 362.539C204.183 362.217 252.133 342.481 252.649 342.416C252.907 342.416 253.23 343.384 253.488 344.48ZM205.28 388.596C211.152 397.045 218.832 406.075 228.19 415.362L236.322 423.489L232.385 425.811C225.996 429.423 212.379 436.066 201.859 440.645C186.758 447.159 148.359 460.897 146.81 460.317C146.487 460.188 148.875 455.608 152.037 450.126C170.495 418.458 189.726 381.888 192.631 372.794L194.05 368.344L197.664 375.503C199.665 379.502 203.085 385.371 205.28 388.596ZM169.656 377.374C169.397 378.212 167.139 383.952 164.686 390.144C153.651 417.555 142.421 438.775 132.096 451.674L128.481 456.06L127.32 454.189C122.867 447.159 117.704 420.716 117.704 404.914V401.237L142.938 388.596C156.877 381.63 168.623 375.955 169.139 375.955C169.785 375.955 169.914 376.342 169.656 377.374ZM339.386 394.917C340.354 412.395 337.644 434.002 332.223 453.028C330.996 457.221 329.899 460.833 329.77 460.897C329.641 461.026 326.092 459.994 321.897 458.575C311.765 455.286 300.406 450.062 289.112 443.676C279.303 438.065 263.491 427.681 263.104 426.52C262.975 426.133 264.072 425.488 265.492 425.037C271.171 423.36 313.636 400.657 333.578 388.661C335.707 387.371 337.773 386.339 338.16 386.274C338.676 386.274 339.063 389.112 339.386 394.917ZM99.6338 414.459C99.6338 424.198 103.183 440.387 108.604 455.737C110.347 460.639 112.218 465.734 112.799 467.024C113.38 468.314 113.574 469.54 113.315 469.733C112.993 469.927 105.119 472.378 95.697 475.215C52.1996 488.308 20.964 496.306 19.9314 494.629C19.8024 494.435 20.6413 491.275 21.8675 487.728C31.548 458.833 56.9107 432.002 92.083 413.298C95.3744 411.557 98.4076 410.138 98.8593 410.138C99.3756 410.138 99.6338 411.428 99.6338 414.459ZM272.656 446.192C294.791 457.027 308.667 463.154 319.057 466.702C322.929 467.992 326.092 469.153 325.962 469.217C325.898 469.282 318.412 472.765 309.377 477.021C276.657 492.436 248.519 504.368 233.676 509.205C226.706 511.463 217.671 513.527 217.154 513.011C216.961 512.753 252.649 436.582 252.972 436.582C253.036 436.582 261.878 440.903 272.656 446.192ZM232.578 441.032C232.578 441.355 231.094 446.772 229.287 453.028C224.447 469.927 217.929 487.147 211.152 500.692C206.829 509.463 199.471 521.718 198.568 521.718C197.277 521.718 190.63 518.235 182.563 513.462C168.236 504.884 153.522 492.501 143.518 480.762C140.808 477.602 139.065 474.957 139.388 474.699C139.711 474.377 143.325 473.087 147.391 471.733C171.979 463.67 218.381 446.837 226.77 442.838C232.127 440.323 232.578 440.194 232.578 441.032ZM325.833 478.956C325.575 481.02 324.414 488.179 323.187 494.951C318.67 519.783 313.442 539.39 308.409 549.774C304.214 558.61 304.924 558.094 298.083 556.868C277.496 553.063 248.261 545.71 233.805 540.68C221.349 536.358 208.765 529.715 210.378 528.232C210.701 527.909 217.477 525.007 225.479 521.718C273.43 502.046 316.024 482.697 323.316 477.279C324.672 476.247 325.962 475.344 326.092 475.344C326.221 475.28 326.092 476.957 325.833 478.956ZM109.96 483.471C109.96 484.567 104.345 494.113 99.3111 501.724C87.63 519.396 56.9107 561.061 55.5555 561.061C54.2647 560.996 43.8099 552.289 39.2923 547.387C29.0311 536.294 22.9646 524.942 20.5123 512.172C19.996 509.528 19.6088 506.174 19.6088 504.626V501.788L22.3838 501.466C23.8682 501.272 26.8368 500.95 28.9665 500.756C35.4847 500.111 47.7466 497.918 59.9439 495.209C72.5285 492.436 106.797 483.858 107.314 483.342C107.765 482.826 109.96 482.955 109.96 483.471ZM141.26 502.949C151.779 511.334 163.331 519.46 171.721 524.362C175.012 526.297 177.658 527.974 177.658 528.167C177.723 528.361 152.36 537.713 121.447 549L65.1068 569.51L63.3644 567.446C61.6864 565.447 61.6219 565.318 62.719 563.899C63.2998 563.06 77.0461 545.452 93.1801 524.684L122.48 487.018L127.384 491.34C130.03 493.79 136.29 498.95 141.26 502.949ZM166.429 570.993C148.746 597.566 145.777 601.694 144.422 601.694C142.357 601.694 131.773 599.436 124.803 597.501C103.7 591.632 86.5974 583.312 73.6256 572.541L71.7541 570.993L116.542 558.932C141.131 552.289 166.945 545.323 173.85 543.389C180.756 541.518 186.5 540.035 186.629 540.099C186.758 540.228 177.658 554.095 166.429 570.993ZM225.544 547.839C248.971 555.45 269.106 559.384 294.856 561.448L300.019 561.835L295.179 563.705C267.686 574.347 213.54 592.793 190.501 599.372C174.431 603.951 157.523 607.692 154.167 607.369L151.973 607.176L155.199 603.306C171.656 583.57 197.406 550.483 201.601 543.582L203.795 540.035L209.345 542.163C212.379 543.389 219.671 545.904 225.544 547.839ZM303.568 570.413C303.568 571.251 291.694 602.145 288.854 608.853C284.982 617.818 281.562 624.719 279.884 626.783L278.657 628.331L265.75 626.912C228.9 622.849 198.632 617.238 182.821 611.433C173.915 608.143 173.85 607.95 182.047 606.273C217.735 598.92 270.074 583.506 295.824 572.735C301.761 570.284 303.568 569.703 303.568 570.413Z" fill="black"/>
</svg>
