<svg width="1170" height="632" viewBox="0 0 1170 632" fill="none" xmlns="http://www.w3.org/2000/svg">
<path d="M729.365 0.012498C718.397 -0.261808 708.8 3.94414 703.865 16.1048C695.456 36.4944 716.386 56.4269 723.881 66.8503C729.091 74.0735 735.854 82.2111 739.602 90.3487C742.069 95.7433 742.435 101.138 744.537 106.807C749.747 120.796 758.064 136.705 764.736 149.689C768.118 156.272 771.865 163.13 776.161 168.981C778.812 172.547 783.29 174.193 784.022 179.679C779.634 185.897 779.36 195.497 776.892 203.36C765.742 238.562 769.946 282.359 786.124 308.326C791.151 316.372 802.941 333.47 819.027 326.978C833.103 321.218 829.995 303.388 834.017 287.57C834.931 284.096 834.382 281.444 836.21 279.067V279.799C840.415 288.393 844.711 296.988 849.006 305.491C858.603 320.852 875.512 336.853 889.77 347.734C897.174 353.311 903.023 363.003 912.62 366.295V365.563H911.889C910.061 362.637 907.136 361.449 904.76 359.163C899.184 353.677 892.969 346.819 888.399 340.51C875.329 322.864 863.813 303.48 853.393 283.365C848.367 273.764 843.979 263.158 839.775 253.374C838.13 249.534 838.13 243.865 834.748 241.854C830.087 249.077 823.323 254.837 819.759 263.341C814.092 276.873 813.269 293.422 811.167 310.52C809.888 310.977 810.436 310.612 809.796 311.252C799.834 308.783 796.269 298.542 792.613 289.765C783.29 267.547 781.462 231.705 789.78 206.195C791.882 199.52 801.479 178.673 797.64 172.547C795.812 166.421 789.597 162.947 786.215 158.284C781.919 152.523 777.715 144.934 774.79 138.26C767.113 120.887 759.892 100.772 751.758 83.2169C747.919 74.805 741.43 66.3931 736.037 58.8956C730.096 50.6666 723.515 44.632 718.854 34.5743C717.3 31.0999 715.015 25.431 717.483 21.7737C718.214 19.305 719.311 18.2992 721.779 17.4763C725.892 14.2761 737.408 18.4821 741.795 20.3107C753.22 25.0653 762.817 29.6369 772.505 36.0373C777.167 39.146 781.828 45.0891 787.495 46.8264H793.893C804.038 49.1122 815.28 47.4664 824.603 50.3923C841.237 55.4211 856.135 63.2844 869.571 71.7877C910.792 97.7548 944.518 134.785 967.46 178.948C971.207 186.079 972.852 192.937 976.143 200.434C982.632 215.612 990.949 231.339 997.53 246.151C1004.02 261.055 1010.42 275.958 1019.65 288.302C1024.49 294.794 1043.32 298.36 1051.82 301.926C1057.76 304.486 1067.63 307.137 1073.21 310.52C1084.08 317.012 1094.5 324.784 1104.65 332.007C1109.77 335.573 1125.31 343.345 1126.13 349.837C1100.99 349.197 1081.8 351.482 1065.44 358.431C1060.78 360.443 1053.28 360.443 1052.55 366.295C1055.02 368.946 1055.48 372.969 1057.49 376.261C1061.42 382.57 1068 391.073 1073.94 395.553C1080.43 400.399 1087.01 405.611 1093.96 409.908C1106.2 417.314 1119.91 421.612 1131.8 429.109C1138.74 433.59 1145.78 439.167 1152.54 444.104C1155.92 446.665 1158.12 450.505 1162.51 452.059V451.328C1160.22 448.402 1159.67 444.379 1157.57 441.361L1148.16 431.944C1139.11 419.966 1127.59 409.36 1115.34 400.582C1105.56 393.542 1083.72 384.033 1079.7 372.695L1078.97 371.963C1085.82 371.232 1093.96 368.672 1100.35 366.935C1111.14 364.1 1120.64 364.832 1131.7 361.997C1136.73 360.534 1141.76 359.071 1146.78 357.7V354.774C1141.21 349.105 1137.19 341.425 1131.06 336.213C1115.07 322.589 1097.61 308.966 1079.61 297.628C1069.64 291.319 1057.3 287.205 1046.79 281.902C1043.23 280.073 1037.01 279.159 1034.64 276.141C1029.06 269.101 1026.05 260.14 1021.75 251.911C1012.79 234.631 1004.02 215.795 996.068 197.6C990.675 185.257 987.11 173.004 980.347 161.85C947.9 108.544 912.986 76.2679 858.877 44.632C847.361 37.8659 833.56 35.3058 818.936 31.8313C810.984 31.2827 803.215 30.8255 795.264 30.3684C790.511 28.3569 785.484 22.5051 781.005 19.5793C769.763 12.5389 747.645 0.286804 729.365 0.012498ZM806.78 77.548C801.57 77.4566 797.823 78.188 793.893 79.0109V79.7424H794.624C797.092 84.8627 801.57 88.1543 804.678 92.5431C807.054 97.5719 809.339 102.601 811.716 107.63L812.447 106.898C816.834 103.789 818.936 98.7606 818.936 91.1716C817.108 89.3429 816.834 86.9656 815.371 84.7712C813.269 81.7539 809.339 80.1081 806.78 77.548ZM43.7802 374.432C36.7424 374.706 29.0649 376.078 20.7476 378.73C6.85494 382.935 0 391.256 0 408.171V585.186H46.8877V412.468L111.873 560.133C119.916 578.511 130.884 585.095 152.362 585.095C173.933 585.095 184.443 578.511 192.487 560.133L257.471 416.217V585.186H304.268V408.171C304.268 391.256 297.504 382.935 283.52 378.73C250.251 368.215 227.858 377.267 217.804 400.034L151.083 550.167L86.555 400.034C79.243 382.935 64.6192 373.609 43.7802 374.432ZM614.202 374.524C595.739 374.524 538.249 376.718 538.249 421.337V450.23C538.249 470.712 556.255 487.444 595.282 491.558C599.67 491.833 604.057 492.198 608.444 492.198C608.444 492.198 653.961 491.284 655.24 491.558C681.563 491.558 678.638 512.039 678.638 514.965V538.372C678.638 541.572 677.907 561.779 654.966 561.779H538.249V585.186H655.423C670.778 585.186 685.676 581.986 697.558 576.409C717.3 567.357 725.435 555.105 725.435 539.012V505.548C725.435 469.614 680.832 468.151 655.24 468.151H608.444C590.073 468.151 587.239 456.997 585.046 444.744V421.337C587.239 412.011 591.352 399.393 607.621 397.931H725.435V374.524H614.202ZM795.172 374.524C760.623 379.278 748.467 396.468 748.467 421.337V538.372C748.467 561.139 761.172 574.854 787.312 581.986C796.086 584.455 804.038 585.46 811.533 585.46L863.63 585.186H894.249L920.298 608.593H972.944L936.749 575.951C953.75 568.911 959.051 558.122 959.051 537.915V421.337C959.051 396.468 942.873 379.278 908.324 374.524H795.172ZM982.815 374.524V537.366C982.815 565.619 998.809 581.529 1041.13 584.729C1045.06 584.912 1049.08 585.186 1053.01 585.186H1170V561.779H1061.87C1037.75 561.779 1029.61 551.63 1029.61 537.184V374.524H982.815ZM823.049 397.931H883.281C899.184 397.931 909.878 410.731 912.255 421.337C912.255 421.337 912.62 530.326 912.62 538.372C912.62 546.418 908.142 550.076 908.142 550.076L895.437 538.372H842.426L868.474 561.779H823.049C806.78 561.779 797.64 549.71 795.264 538.372V423.715C795.264 411.28 804.769 397.931 823.049 397.931ZM327.666 444.744C328.58 445.659 327.666 544.498 327.666 546.418C328.031 566.899 353.989 584.82 394.661 585.186H468.055V586.74C468.055 591.129 471.254 605.759 444.657 608.593C444.382 608.593 327.94 608.593 327.666 608.593V632H449.684C470.34 631.36 515.125 626.697 514.851 590.855C514.851 590.215 515.034 444.744 514.851 444.744H468.055V561.779C467.324 561.779 410.108 561.962 398.592 561.779C376.016 561.413 374.097 548.521 374.462 543.584V444.744H327.666Z" fill="black"/>
</svg>
