<svg width="1163" height="630" viewBox="0 0 1163 630" fill="none" xmlns="http://www.w3.org/2000/svg">
<path d="M581.5 0C424.2 0 281.569 32.9387 176.229 87.9312C70.8892 142.924 0 222.147 0 315C0 407.853 70.8892 487.076 176.229 542.069C281.569 597.061 424.2 630 581.5 630C738.8 630 881.431 597.061 986.771 542.069C1092.11 487.076 1163 407.853 1163 315C1163 222.147 1092.11 142.924 986.771 87.9312C881.431 32.9387 738.8 0 581.5 0ZM581.5 48.4615C731.986 48.4615 867.991 80.5484 964.34 130.903C1060.69 181.163 1114.54 247.23 1114.54 315C1114.54 382.77 1060.69 448.837 964.34 499.097C867.991 549.452 731.986 581.538 581.5 581.538C431.014 581.538 295.009 549.452 198.66 499.097C102.311 448.837 48.4583 382.77 48.4583 315C48.4583 247.23 102.311 181.163 198.66 130.903C295.009 80.5484 431.014 48.4615 581.5 48.4615ZM521.116 96.9231L460.354 387.692H523.956L554.621 242.308H605.445C621.63 242.308 632.419 244.958 637.435 250.353C642.357 255.748 643.398 265.971 640.559 280.642L617.371 387.692H681.919L707.094 271.934C712.489 244.201 708.419 223.851 694.98 211.451C681.256 198.863 657.121 193.846 621.156 193.846H564.464L584.623 96.9231H521.116ZM242.292 193.846L193.171 460.385H257.246L270.023 387.692H309.963C393.44 387.692 438.87 368.383 455.811 296.732C470.387 235.114 433.096 193.846 371.482 193.846H242.292ZM751.104 193.846L701.983 460.385H766.058L778.835 387.692H818.775C902.252 387.692 947.682 368.383 964.624 296.732C979.199 235.114 941.909 193.846 880.295 193.846H751.104ZM297.375 242.308H347.253C388.708 242.308 397.415 260.954 395.238 281.683C389.654 335.161 356.339 339.231 320.563 339.231H279.014L297.375 242.308ZM806.188 242.308H856.066C897.52 242.308 906.228 260.954 904.051 281.683C898.467 335.161 865.152 339.231 829.376 339.231H787.826L806.188 242.308Z" fill="black"/>
</svg>
