<svg width="659" height="632" viewBox="0 0 659 632" fill="none" xmlns="http://www.w3.org/2000/svg">
<path d="M329.5 0C192.53 0 192.208 54.9565 192.208 54.9565V164.87H356.958V192.348H82.375C82.375 192.348 0 179.682 0 329.739C0 479.796 82.375 467.13 82.375 467.13H164.75V422.478C164.75 356.251 218.701 302.261 284.88 302.261H374.12C425.175 302.261 466.792 288.092 466.792 237V54.9565C466.792 54.9565 466.47 0 329.5 0ZM247.125 54.9565C262.249 54.9565 274.583 67.3003 274.583 82.4348C274.583 97.5693 262.249 109.913 247.125 109.913C232.001 109.913 219.667 97.5693 219.667 82.4348C219.667 67.3003 232.001 54.9565 247.125 54.9565ZM494.25 164.87V237C494.25 303.227 440.299 329.739 374.12 329.739H284.88C233.825 329.739 192.208 371.386 192.208 422.478V577.043C192.208 577.043 193.924 632 329.5 632C465.076 632 466.792 577.043 466.792 577.043V467.13H302.042V439.652H576.625C576.625 439.652 659 453.499 659 302.261C659 151.023 576.625 164.87 576.625 164.87H494.25ZM411.875 522.087C426.999 522.087 439.333 534.431 439.333 549.565C439.333 564.7 426.999 577.043 411.875 577.043C396.751 577.043 384.417 564.7 384.417 549.565C384.417 534.431 396.751 522.087 411.875 522.087Z" fill="black"/>
</svg>
