<svg width="616" height="630" viewBox="0 0 616 630" fill="none" xmlns="http://www.w3.org/2000/svg">
<path d="M307.973 370.543C338.642 370.543 363.505 345.675 363.505 315C363.505 284.325 338.642 259.458 307.973 259.458C277.304 259.458 252.442 284.325 252.442 315C252.442 345.675 277.304 370.543 307.973 370.543Z" fill="black"/>
<path d="M307.973 428.794C472.539 428.794 605.946 377.847 605.946 315C605.946 252.153 472.539 201.206 307.973 201.206C143.407 201.206 10 252.153 10 315C10 377.847 143.407 428.794 307.973 428.794Z" stroke="black" stroke-width="20"/>
<path d="M209.444 371.897C291.727 514.443 402.544 604.526 456.96 573.103C511.376 541.68 488.785 400.649 406.502 258.103C324.219 115.557 213.403 25.4736 158.987 56.897C104.571 88.3203 127.161 229.351 209.444 371.897Z" stroke="black" stroke-width="20"/>
<path d="M209.444 258.103C127.161 400.649 104.57 541.68 158.986 573.103C213.403 604.526 324.219 514.443 406.502 371.897C488.785 229.351 511.376 88.3203 456.96 56.897C402.543 25.4737 291.727 115.557 209.444 258.103Z" stroke="black" stroke-width="20"/>
</svg>
