<svg width="553" height="630" viewBox="0 0 553 630" fill="none" xmlns="http://www.w3.org/2000/svg">
<path d="M248.552 0.0179072C204.855 -1.17292 159.058 57.1226 134.381 146.846L56.8354 172.126C51.7936 173.775 48.1311 178.162 47.4441 183.425L0.112042 551.823C-0.808411 559.036 4.03621 565.72 11.1938 567.066L341.848 630L367.365 70.9493L352.098 75.9142C342.989 42.3317 325.952 21.2111 303.504 16.4156C296.704 14.9316 290.13 15.2373 283.756 16.845C276.104 8.76541 267.288 3.19503 257.246 1.03773C254.358 0.421113 251.465 0.0972958 248.552 0.0179072ZM246.915 27.5263C248.497 27.4894 250.051 27.618 251.53 27.9288C253.88 28.4373 256.148 29.4794 258.346 30.881C231.076 54.199 210.225 98.4484 199.207 125.751L166.231 136.486C188.692 67.4389 223.185 28.0798 246.915 27.5263ZM300.982 44.4339C311.533 48.7897 320.426 62.9723 325.99 84.4217L311.93 89.0109C309.732 71.9998 306.106 56.938 300.982 44.4339ZM274.874 53.3707C279.889 65.0367 283.538 80.133 285.393 97.6525L234.143 114.345C248.06 84.8027 262.4 64.5282 274.874 53.3707ZM394.761 73.6867L369.404 628.953L542.231 590.71C549.265 589.157 553.887 582.436 552.857 575.332C530.862 422.851 489.107 132.837 488.352 127.093C488.201 125.719 487.855 124.372 487.305 123.094C484.613 116.911 479.743 112.479 473.245 110.239C471.981 109.813 470.473 109.57 469.14 109.515C466.09 109.391 438.996 107.282 427.469 106.375C418.045 96.7424 399.956 78.3083 395.244 74.0624C395.093 73.9113 394.912 73.8241 394.761 73.6867ZM246.888 219.709C275.244 219.709 290.328 228.623 290.974 229.022C293.68 230.657 294.901 233.97 293.925 236.992L273.157 301.027C272.525 302.978 271.082 304.538 269.186 305.294C267.263 306.091 265.122 305.934 263.336 304.972C263.158 304.876 245.673 295.498 225.423 295.498C200.927 295.498 197.275 308.031 197.275 315.492C197.275 323.585 207.894 331.606 220.217 340.853C242.019 357.232 271.869 379.652 271.869 424.667C271.869 481.059 236.77 520.476 186.516 520.476C129.365 520.476 100.587 484.872 99.3914 483.36C98.0039 481.615 97.552 479.278 98.1839 477.134L112.781 428.048C113.454 425.808 115.25 424.051 117.503 423.405C119.742 422.801 122.184 423.303 123.943 424.828C124.218 425.075 150.831 448.337 171.919 448.337C184.187 448.337 187.428 438.502 187.428 433.308C187.428 419.842 177.578 411.639 165.104 401.264C147.876 386.947 126.465 369.121 126.465 330.44C126.465 277.113 163.633 219.736 245.252 219.736C245.801 219.736 246.339 219.709 246.888 219.709Z" fill="black"/>
</svg>
