<svg width="630" height="630" viewBox="0 0 630 630" fill="none" xmlns="http://www.w3.org/2000/svg">
<path d="M615 0H15C6.705 0 0 6.72 0 15V615C0 623.28 6.705 630 15 630H615C623.295 630 630 623.28 630 615V15C630 6.72 623.295 0 615 0ZM375 336.675H300V570H240V336.675H165V285H375V336.675ZM391.815 556.68V494.31C391.815 494.31 425.88 519.99 466.755 519.99C507.63 519.99 506.055 493.26 506.055 489.6C506.055 450.81 390.24 450.81 390.24 364.875C390.24 248.01 558.99 294.12 558.99 294.12L556.89 349.68C556.89 349.68 528.585 330.81 496.62 330.81C464.655 330.81 453.12 346.005 453.12 362.25C453.12 404.175 569.985 399.99 569.985 484.365C570 614.325 391.815 556.68 391.815 556.68Z" fill="black"/>
</svg>
