<svg width="630" height="630" viewBox="0 0 630 630" fill="none" xmlns="http://www.w3.org/2000/svg">
<path d="M315 0C141.299 0 0 141.299 0 315C0 488.701 141.299 630 315 630C488.701 630 630 488.701 630 315C630 141.299 488.701 0 315 0ZM315 14.7656C480.703 14.7656 615.234 149.297 615.234 315C615.234 480.703 480.703 615.234 315 615.234C149.297 615.234 14.7656 480.703 14.7656 315C14.7656 149.297 149.297 14.7656 315 14.7656ZM315 45.1172C220.562 45.1172 137.71 93.1055 89.4141 166.523C95.7715 166.729 101.514 166.523 106.641 166.523C134.941 166.523 178.828 163.242 178.828 163.242C193.389 162.422 195.029 183.647 180.469 185.391C180.469 185.391 165.601 187.852 149.297 188.672L247.734 480.703L306.797 303.516L264.961 188.672C250.4 187.852 236.25 185.391 236.25 185.391C221.689 184.57 223.33 162.422 237.891 163.242C237.891 163.242 282.7 166.523 309.258 166.523C337.559 166.523 381.445 163.242 381.445 163.242C396.006 162.422 397.646 183.647 383.086 185.391C383.086 185.391 368.115 187.852 351.914 188.672L449.531 479.062L476.602 388.828C490.239 353.76 497.109 324.229 497.109 301.055C497.109 267.627 485.317 245.171 474.961 227.227C461.323 204.976 448.711 185.493 448.711 163.242C448.711 138.428 467.271 115.664 493.828 115.664C495.059 115.664 495.879 115.664 497.109 115.664C449.019 71.5723 385.342 45.1172 315 45.1172ZM552.07 185.391C553.301 194.004 553.711 203.335 553.711 213.281C553.711 240.659 548.584 271.523 533.203 310.078L451.172 548.789C531.562 501.929 584.883 414.668 584.883 315C584.883 268.037 573.193 223.843 552.07 185.391ZM68.0859 205.078C53.1152 238.608 45.1172 275.83 45.1172 315C45.1172 421.948 106.743 514.028 196.875 557.812L68.0859 205.078ZM319.922 338.789L238.711 574.219C262.91 581.294 288.442 584.883 315 584.883C346.479 584.883 376.318 579.961 404.414 570.117C403.696 568.989 403.286 567.349 402.773 566.016L319.922 338.789Z" fill="black"/>
</svg>
