<?xml version="1.0" encoding="utf-8"?>
<!-- Generator: Adobe Illustrator 21.0.0, SVG Export Plug-In . SVG Version: 6.00 Build 0)  -->
<svg version="1.1" id="Layer_1" xmlns="http://www.w3.org/2000/svg" xmlns:xlink="http://www.w3.org/1999/xlink" x="0px" y="0px"
	 viewBox="0 0 64 64" style="enable-background:new 0 0 64 64;" xml:space="preserve">
<g>
	<path d="M62.3,37.6c-0.7-0.2-1.4-0.3-2.1-0.5c-0.5-0.1-1.4-2.2-1.1-2.6c0.4-0.6,0.8-1.2,1.2-1.9c0.3-0.5,0.3-1-0.1-1.4
		c-0.8-0.8-1.6-1.6-2.4-2.4c-0.4-0.4-0.9-0.5-1.4-0.1c-0.4,0.2-0.8,0.4-1.1,0.7c-0.6,0.6-1.2,0.5-2,0.2c-1.1-0.4-1.4-1-1.6-2
		c-0.3-1.9-0.4-1.9-2.3-1.9c-0.6,0-0.7-0.2-0.7-0.7c0-6.4,0-12.7,0-19.1c0-3-2.3-5.2-5.2-5.3c-7.6,0-15.2,0-22.8,0
		c-0.9,0-1.8,0.2-2.5,0.7c-1.8,1-2.7,2.6-2.7,4.7c0,7,0,14.1,0,21.1c0,0.3,0.1,0.6-0.4,0.5c-2.3-0.2-4.1-2.6-3.7-4.9
		c0.2-1.2,0.8-2.1,1.8-2.8c0.6-0.4,0.6-1,0.3-1.5c-0.3-0.5-0.9-0.5-1.5-0.2c-0.2,0.1-0.3,0.2-0.5,0.4c-2,1.8-2.7,4-1.9,6.6
		c0.7,2.4,2.9,4.1,5.4,4.3c0.4,0,0.5,0.2,0.5,0.6c0,1.7,0,3.5,0,5.2c0,0.4-0.1,0.5-0.5,0.5c-0.3,0-0.4-0.1-0.5-0.4
		c-0.1-0.6-0.3-1.1-0.4-1.7c-0.1-0.6-0.4-1-1.1-1.1c-0.8-0.2-1.6-0.5-2.4-1C10,31.6,9.4,31.6,8.9,32c-0.2,0.2-0.4,0.3-0.7,0.4
		c-1.2,0.8-1.2,0.8-2.2-0.3c-0.2-0.2-0.2-0.3-0.1-0.5c0.3-0.5,0.6-1,1-1.5c0.4-0.5,0.4-1,0-1.6c-0.3-0.4-0.5-0.9-0.6-1.3
		c-0.7-2.2-0.3-1.8-2.9-2.4c-0.5-0.1-0.7-0.3-0.7-0.9c0.1-1.1,0-1.1,1.1-1.3c0.4-0.1,0.7-0.2,1.1-0.2c0.6-0.1,0.9-0.5,1.1-1.1
		c0.2-0.8,0.5-1.6,1-2.4c0.4-0.6,0.3-1.1-0.1-1.6c-0.2-0.2-0.3-0.4-0.4-0.7c-0.7-1.2-0.7-1.1,0.3-2.1c0.3-0.3,0.4-0.2,0.7,0
		c0.5,0.3,1,0.7,1.5,1c0.4,0.3,0.8,0.3,1.3,0.1c0.9-0.5,1.8-0.9,2.7-1.1c0.4-0.1,0.7-0.4,0.8-0.8c0.2-1,0.5-2.1,0.7-3.1
		c0.1-0.7-0.2-1.2-0.8-1.3C13.3,9,12.7,9.3,12.6,10c-0.2,0.7-0.3,1.3-0.5,2c-0.1,0.7-2.2,1.5-2.8,1.1c-0.6-0.4-1.2-0.7-1.8-1.1
		c-0.5-0.3-1-0.3-1.4,0.1c-0.8,0.8-1.6,1.6-2.4,2.4C3.4,15,3.4,15.5,3.7,16c0.4,0.6,0.8,1.2,1.2,1.8c0.3,0.4-0.6,2.5-1.1,2.7
		c-0.7,0.2-1.4,0.3-2.2,0.5c-0.6,0.1-0.8,0.5-0.9,1.1c0,1.1,0,2.2,0,3.3c0,0.6,0.3,1,0.9,1.1c0.7,0.2,1.4,0.3,2.2,0.5
		c0.2,0,0.4,0.2,0.5,0.4C4.5,28,5,28.6,5,29.3c-0.1,0.6-0.7,1.2-1.1,1.8c-0.1,0.1-0.1,0.2-0.2,0.3c-0.3,0.5-0.3,1,0.2,1.4
		c0.8,0.8,1.6,1.6,2.3,2.3c0.4,0.4,0.9,0.5,1.4,0.1c0.4-0.3,0.8-0.5,1.2-0.8c0.6-0.5,1.2-0.5,2-0.2c1,0.4,1.4,1,1.6,2
		c0.3,1.9,0.4,2,2.3,1.9c0.5,0,0.7,0.1,0.7,0.7c0,6.3,0,12.5,0,18.8c0,3.3,2.2,5.5,5.5,5.5c3.7,0,7.4,0,11.1,0c3.7,0,7.5,0,11.2,0
		c3.3,0,5.5-2.2,5.5-5.5c0-4.8,0-9.6,0-14.4c0-2.2,0-4.4,0-6.6c0-0.3-0.1-0.5,0.4-0.5c2.3,0.2,4.1,2.5,3.7,4.8
		c-0.2,1.2-0.8,2.1-1.8,2.8c-0.5,0.4-0.6,0.8-0.3,1.4c0.2,0.4,0.8,0.7,1.3,0.4c0.2-0.1,0.4-0.3,0.6-0.4c2-1.6,2.8-4.2,2-6.7
		c-0.7-2.4-2.9-4.2-5.4-4.4c-0.4,0-0.6-0.1-0.6-0.6c0-1.7,0-3.4,0-5.1c0-0.2-0.2-0.6,0.3-0.6c0.3,0,0.7-0.1,0.7,0.5
		c0.1,0.6,0.3,1.1,0.4,1.7c0.1,0.6,0.4,0.9,1,1c0.8,0.2,1.7,0.5,2.4,1c0.6,0.4,1.1,0.4,1.7-0.1c0.2-0.2,0.4-0.3,0.7-0.4
		c1.1-0.7,1.1-0.7,2.1,0.2c0.3,0.3,0.3,0.5,0.1,0.8c-0.3,0.5-0.7,1-1,1.5c-0.3,0.4-0.3,0.8,0,1.3c0.5,0.8,0.9,1.7,1.1,2.7
		c0.1,0.5,0.5,0.8,1,0.9c0.6,0.1,1.2,0.2,1.8,0.4c0.1,0,0.4,0,0.4,0.2c0,0.5,0.1,1.1,0,1.6c-0.1,0.3-0.5,0.2-0.8,0.3
		c-0.4,0.1-0.9,0.2-1.3,0.3c-0.6,0.1-0.9,0.4-1.1,1c-0.2,0.9-0.6,1.7-1,2.5c-0.3,0.5-0.3,1,0,1.5c0.2,0.2,0.3,0.5,0.5,0.8
		c0.7,1.1,0.7,1.1-0.3,2.1c-0.2,0.2-0.4,0.3-0.7,0.1c-0.5-0.4-1.1-0.7-1.6-1c-0.4-0.3-0.8-0.3-1.3,0c-0.9,0.5-1.8,0.9-2.7,1.1
		c-0.4,0.1-0.7,0.3-0.8,0.8c-0.2,1.1-0.5,2.2-0.7,3.2c-0.1,0.6,0.2,1.1,0.8,1.2c0.5,0.1,1-0.2,1.2-0.8c0.1-0.4,0.2-0.8,0.3-1.2
		c0.1-0.9,0.4-1.6,1.5-1.8c0.2,0,0.5-0.2,0.7-0.3c0.3-0.2,0.5-0.1,0.7,0c0.6,0.4,1.2,0.8,1.8,1.2c0.5,0.3,1,0.3,1.5-0.2
		c0.5-0.5,1-1,1.5-1.5c1.6-1.5,1.6-1.5,0.3-3.3c-0.5-0.7-0.8-1.4-0.2-2.2c0.2-0.2,0.2-0.5,0.3-0.8c0.1-0.3,0.2-0.4,0.5-0.5
		c0.7-0.1,1.4-0.3,2.1-0.5c0.6-0.1,0.9-0.5,0.9-1.2c0-1.1,0-2.1,0-3.2C63.2,38.1,63,37.7,62.3,37.6z M46.6,57.7
		c0,2.2-1.3,3.5-3.5,3.5c-7.4,0-14.8,0-22.2,0c-2.2,0-3.4-1.3-3.4-3.5c0-8.6,0-17.1,0-25.7c0-8.5,0-17,0-25.6c0-2.3,1.2-3.5,3.5-3.5
		c7.4,0,14.7,0,22.1,0c2.3,0,3.5,1.2,3.5,3.5C46.6,23.4,46.6,40.6,46.6,57.7z"/>
	<path class="st0" d="M53.8,11.3c0.5,0,1-0.5,1.1-1.1c0-0.6-0.4-1-1-1.1c-0.6,0-1.1,0.4-1.1,1.1C52.8,10.9,53.2,11.3,53.8,11.3z"/>
	<path class="st0" d="M53.9,13.3c-0.6,0-1.1,0.5-1.1,1.1c0,0.6,0.4,1,1,1.1c0.6,0,1.1-0.5,1.1-1.1C54.9,13.7,54.4,13.3,53.9,13.3z"
		/>
	<path class="st0" d="M52.8,18.6c0,0.6,0.4,1,1,1.1c0.6,0,1.1-0.5,1.1-1.1c0-0.6-0.4-1-1-1.1C53.3,17.4,52.8,17.9,52.8,18.6z"/>
	<path class="st0" d="M10.1,46.5c0.6,0,1.1-0.5,1.1-1.1c0-0.6-0.5-1-1-1c-0.6,0-1.1,0.5-1.1,1.1C9.1,46,9.5,46.4,10.1,46.5z"/>
	<path class="st0" d="M10.2,48.4c-0.6,0-1.1,0.5-1.1,1.1c0,0.6,0.4,1,1,1c0.6,0,1.1-0.5,1.1-1.1C11.2,48.9,10.7,48.5,10.2,48.4z"/>
	<path class="st0" d="M10.2,52.6c-0.6,0-1.1,0.5-1.1,1.1c0,0.6,0.4,1,1,1c0.6,0,1.1-0.5,1.1-1.1C11.2,53.1,10.7,52.6,10.2,52.6z"/>
	<path d="M27.4,28.7c0.5-0.5,0.5-1.1,0.1-1.6c-0.4-0.4-1-0.4-1.6,0.1c-1.3,1.3-2.7,2.7-4,4c-0.5,0.6-0.5,1.1,0,1.6
		c1.3,1.3,2.7,2.7,4,4c0.2,0.2,0.5,0.4,0.9,0.4c0.4,0,0.7-0.2,0.9-0.6c0.2-0.5,0.1-0.9-0.3-1.2c-1-1-2-2-3-3c-0.3-0.3-0.3-0.4,0-0.7
		C25.5,30.7,26.5,29.7,27.4,28.7z"/>
	<path d="M38,27.2c-0.2-0.2-0.5-0.4-1-0.4c-0.3,0-0.7,0.2-0.8,0.7c-0.2,0.5,0,0.8,0.3,1.2c1,1,2,2,3,3c0.3,0.3,0.3,0.4,0,0.7
		c-1,1-2,2-3,3c-0.5,0.5-0.6,1.2-0.1,1.6c0.4,0.4,1,0.4,1.6-0.1c1.3-1.3,2.6-2.6,3.9-3.9c0.6-0.6,0.6-1.1,0-1.7
		C40.7,29.8,39.4,28.5,38,27.2z"/>
	<path d="M33.3,26.8c-0.5-0.2-1.1,0.1-1.3,0.7c-0.7,2.8-1.4,5.6-2.1,8.4c-0.2,0.7,0.4,1.3,1.1,1.3c0.4,0,0.8-0.3,0.9-0.8
		c0.7-2.8,1.4-5.5,2.1-8.3C34.2,27.5,33.9,27,33.3,26.8z"/>
	<path d="M34.9,4.9c-1,0-1.9,0-2.9,0c-1,0-1.9,0-2.9,0c-0.8,0-1.2,0.4-1.2,1C27.8,6.6,28.3,7,29,7C31,7,33,7,35,7
		c0.8,0,1.2-0.4,1.2-1.1C36.1,5.3,35.7,4.9,34.9,4.9z"/>
</g>
</svg>
