<?xml version="1.0" encoding="utf-8"?>
<!-- Generator: Adobe Illustrator 21.0.0, SVG Export Plug-In . SVG Version: 6.00 Build 0)  -->
<svg version="1.1" id="Layer_1" xmlns="http://www.w3.org/2000/svg" xmlns:xlink="http://www.w3.org/1999/xlink" x="0px" y="0px"
	 viewBox="0 0 512 512" style="enable-background:new 0 0 512 512;" xml:space="preserve">
<g>
	<g>
		<path d="M505.9,478.3L356.8,27.1C351.8,11.9,335.3,0,319.3,0c-0.2,0-126.7,0-126.7,0c-16,0-32.5,11.9-37.5,27.1L6.1,478.3
			c-2.8,8.4-1.7,17,3,23.5c4.7,6.5,12.5,10.2,21.4,10.2h97.3c33.4,0,62.8-21.3,73.3-53l55-166.5L311,459c10.5,31.7,39.9,53,73.3,53
			h97.3c8.9,0,16.7-3.7,21.4-10.2C507.6,495.3,508.7,486.8,505.9,478.3z M181.1,452.5c-7.6,23.1-29.1,38.6-53.5,38.6H30.4
			c-2.1,0-3.7-0.6-4.4-1.5s-0.7-2.7-0.1-4.7L175,33.7c2.2-6.7,10.6-12.8,17.7-12.8h124.5c2.1,0,3.7,0.6,4.4,1.5
			c0.7,1,0.7,2.7,0.1,4.7L181.1,452.5z M486,489.6c-0.7,1-2.3,1.5-4.4,1.5h-97.3c-24.3,0-45.8-15.5-53.5-38.6L267,259.2l72.3-218.7
			l146.8,444.4C486.8,486.9,486.7,488.6,486,489.6z"/>
	</g>
</g>
<g>
	<g>
		<path d="M156.6,197.3c-5.5-1.8-11.4,1.2-13.2,6.6l-33.7,101.9c-1.8,5.5,1.2,11.4,6.6,13.2c1.1,0.4,2.2,0.5,3.3,0.5
			c4.4,0,8.5-2.8,9.9-7.2l33.7-101.9C165,205.1,162.1,199.1,156.6,197.3z"/>
	</g>
</g>
<g>
	<g>
		<path d="M169.3,158.7c-5.5-1.8-11.4,1.2-13.2,6.6l-1.6,4.7c-1.8,5.5,1.2,11.4,6.6,13.2c1.1,0.4,2.2,0.5,3.3,0.5
			c4.4,0,8.5-2.8,9.9-7.2l1.6-4.7C177.8,166.4,174.8,160.5,169.3,158.7z"/>
	</g>
</g>
</svg>
