<?xml version="1.0" encoding="utf-8"?>
<!-- Generator: Adobe Illustrator 21.0.0, SVG Export Plug-In . SVG Version: 6.00 Build 0)  -->
<svg version="1.1" id="Layer_1" xmlns="http://www.w3.org/2000/svg" xmlns:xlink="http://www.w3.org/1999/xlink" x="0px" y="0px"
	 viewBox="0 0 64 64" style="enable-background:new 0 0 64 64;" xml:space="preserve">
<g>
	<path d="M39,51.5c0.3,0.2,0.5,0.2,0.7-0.1c1.5-1.6,3.1-3.1,4.6-4.6c0.2-0.2,0.3-0.4,0.1-0.8c-0.3-0.6-0.6-1.2-0.8-2
		c0.3,0,0.5,0,0.7,0c4,0,7.9,0,11.9,0c3.7,0,6.8-3,7-6.7c0.2-4.7-3.9-8.2-8.5-7.3c-0.3,0.1-0.5,0-0.8-0.2c-1-1-2.2-1.6-3.5-1.8
		c-0.3-0.1-0.4-0.2-0.5-0.5c-0.9-4.8-5.5-7.7-10.2-6.4c-0.3,0.1-0.5,0.1-0.7-0.1c-2.6-1.8-5.5-2.5-8.6-2.2
		c-5.2,0.6-9.8,5.2-10.4,10.4c0,0.4-0.1,0.6-0.6,0.6c-3.5,0.2-6.4,3.2-6.6,6.7c-0.1,4.1,3,7.4,7.1,7.4c5,0,9.9,0,14.9,0
		c0.2,0,0.4,0,0.8,0c-3.9,3.2-8.2,4.6-13,3.9c-9-1.3-15.1-9.7-13.6-18.6c1.6-9.4,11.2-15.8,21.2-12.6c0.4,0.1,0.8,0.2,1.2,0.2
		c7.5,0,14.9,0,22.4,0c1.4,0,1.4,0,1.4-1.4c0-0.5-0.1-0.6-0.7-0.6c-7.6,0-15.2,0-22.8,0c-0.3,0-0.6,0-0.9-0.1
		c-2.8-0.9-5.8-1.1-8.7-0.7C11.2,15.8,4.3,27,7.6,37.5c4,12.6,19.5,16.8,29.4,8c1-1.5,2.5-1.5,4-1.4c0.1,0,0.1,0,0.2,0
		c0.1,0,0.2,0,0.2,0.1c0.2,0.6,0.5,1.1,0.7,1.7c0.1,0.2-0.1,0.3-0.2,0.5c-0.5,0.6-1.1,1.1-1.6,1.6c-0.4,0.4-0.8,1.1-1.3,1.2
		c-0.5,0.1-1.1-0.4-1.6-0.7c-0.4-0.2-0.6-0.2-0.9,0.1c-2,1.4-4.2,2.4-6.5,3c-0.6,0.1-1.4,0.1-1.8,0.5c-0.4,0.4-0.5,1.2-0.7,1.8
		c-0.1,0.3-0.2,0.4-0.6,0.4c-0.8,0-1.6,0-2.4,0c-0.6,0-1.3,0.2-1.7-0.1c-0.4-0.3-0.5-1-0.6-1.6c-0.1-0.4-0.3-0.6-0.7-0.7
		c-2.9-0.5-5.5-1.6-7.9-3.3c-0.3-0.2-0.5-0.3-0.8-0.1c-0.4,0.3-0.9,0.5-1.4,0.7c-0.3,0.1-0.4,0.1-0.6-0.1c-0.6-0.6-1.1-1.1-1.7-1.7
		c-0.4-0.4-1.1-0.8-1.2-1.3c-0.1-0.5,0.4-1.1,0.7-1.6c0.2-0.4,0.1-0.6-0.1-0.9C7,41.5,6,39.4,5.4,37c-0.2-0.6-0.1-1.5-0.5-1.9
		c-0.4-0.4-1.2-0.5-1.8-0.7c-0.3-0.1-0.3-0.2-0.3-0.5c0-0.9,0-1.7,0-2.6c0-0.5-0.2-1.2,0.1-1.6c0.3-0.4,1-0.4,1.5-0.6
		c0.5-0.1,0.7-0.4,0.8-0.9c0.4-2.4,1.2-4.7,2.6-6.7c0.8-1.1,0.9-2,0.1-3.1c-0.2-0.3-0.2-0.6,0.1-0.8c0.5-0.5,1-1,1.6-1.6
		c0.4-0.4,0.8-1.1,1.3-1.2c0.6-0.1,1.1,0.4,1.7,0.7c0.3,0.2,0.6,0.2,0.9-0.1c2.1-1.4,4.3-2.6,6.8-3c1.4-0.2,2.1-0.8,2.2-2.1
		c0.1-0.4,0.3-0.5,0.7-0.5c0.7,0,1.4,0,2.1,0c0.6,0,1.4-0.3,1.9,0.1c0.4,0.3,0.5,1.1,0.7,1.7c0.1,0.1,0,0.4,0.2,0.4
		c1,0.1,1.9,0.7,3,0.7c4.4,0,8.7,0,13.1,0.1c0.4,0,0.6-0.1,0.8-0.4c0.5-0.7,1-1.5,1.4-2.2c0.2-0.3,0.4-0.4,0.8-0.4
		c0.8,0,1.6,0,2.5,0c1.6,0,1.5,0,1.5-1.6c0-0.3-0.1-0.5-0.4-0.5c-1.6,0-3.2,0-4.7,0c-0.3,0-0.5,0.1-0.7,0.4c-0.5,0.8-1,1.5-1.5,2.3
		c-0.2,0.3-0.4,0.4-0.8,0.4c-3.8,0-7.6,0-11.4,0c-1.5,0-2.1-0.4-2.5-1.8c-0.1-0.3-0.2-0.6-0.3-0.9c-0.1-0.3-0.2-0.3-0.5-0.3
		c-2.2,0-4.5,0-6.7,0c-0.3,0-0.4,0.1-0.5,0.4c-0.2,0.6-0.4,1.1-0.5,1.7c-0.1,0.3-0.3,0.5-0.6,0.6c-2.4,0.5-4.6,1.4-6.6,2.7
		c-0.3,0.2-0.5,0.2-0.8,0c-0.5-0.3-1.1-0.5-1.6-0.8c-0.2-0.1-0.4-0.1-0.6,0.1c-1.6,1.6-3.2,3.2-4.8,4.8c-0.2,0.2-0.2,0.3-0.1,0.5
		c0.3,0.5,0.5,1.1,0.8,1.6c0.2,0.4,0.2,0.6,0,1c-1,1.6-1.8,3.3-2.3,5.1c-0.2,0.7-0.2,1.5-0.6,1.9c-0.4,0.4-1.3,0.5-1.9,0.7
		c-0.3,0.1-0.5,0.3-0.5,0.6c0,2.2,0,4.4,0,6.6c0,0.3,0.1,0.5,0.4,0.6c0.5,0.1,1.1,0.4,1.6,0.5c0.4,0.1,0.5,0.3,0.6,0.7
		c0.4,1.8,0.9,3.7,2,5.2c0.9,1.4,1,2.5,0,3.8c-0.2,0.3-0.1,0.5,0.1,0.7c1.2,1.2,2.4,2.4,3.6,3.6c0.4,0.4,0.8,1.1,1.4,1.2
		c0.5,0.1,1.1-0.5,1.7-0.7c0.1,0,0.2-0.1,0.3-0.1c0.3-0.2,0.5-0.1,0.8,0c2.1,1.3,4.3,2.2,6.6,2.7c0.4,0.1,0.5,0.3,0.6,0.6
		c0.2,0.5,0.4,1.1,0.5,1.6c0.1,0.3,0.3,0.4,0.6,0.4c1.7,0,3.3,0,5,0c0.7,0,1.5,0.2,2-0.1c0.5-0.3,0.5-1.2,0.7-1.9
		c0.1-0.4,0.3-0.6,0.7-0.7c1.8-0.4,3.7-0.9,5.2-2C36.6,50.6,37.8,50.6,39,51.5z M20,42.1c-3,0-5.3-2.3-5.2-5.3
		c0.1-2.9,2.8-5.1,5.7-4.7c1.3,0.2,1.3,0.2,1.4-1.2c0.2-4.1,2.1-7.2,5.8-9c3.7-1.8,7.3-1.2,10.6,1.3c0.5,0.4,0.9,0.5,1.5,0.2
		c3.2-1.3,6.9,0.4,7.9,3.6c-1.8,0-3.5,0-5.2,0c-0.4,0-0.5,0-0.5,0.5c0.1,0.5-0.2,1.2,0.1,1.5c0.3,0.3,0.9,0.1,1.4,0.1
		c0.4,0,0.5,0.1,0.5,0.5c0,2.7,0,5.4,0,8.1c0,0.4-0.1,0.6-0.5,0.5c0,0,0,0-0.1,0c-1.7,0-1.7,0-1.5,1.7c0,0.3,0.1,0.3,0.3,0.3
		c1.8,0,3.6,0,5.4,0c0.3,0,0.4-0.1,0.4-0.3c0.1-1.7,0.1-1.7-1.5-1.7c-0.4,0-0.5-0.1-0.5-0.5c0-2.7,0-5.5,0-8.2
		c0-0.3,0.1-0.5,0.4-0.4c0.3,0,0.5,0,0.8,0c0.5,0,1,0,0.8,0.7c-0.1,0.4,0.3,0.3,0.5,0.3c1.3-0.1,2.5,0.2,3.6,1
		c0.3,0.3,0.7,0.5,0.9,0.9c0.3,0.6,0.7,0.7,1.4,0.4c1.6-0.6,3.2-0.4,4.6,0.6c1.8,1.2,2.6,3.5,1.9,5.6c-0.6,2.1-2.5,3.6-4.7,3.6
		c-3.5,0-7,0-10.5,0C37.2,42.1,28.6,42.1,20,42.1z"/>
	<path d="M49.6,59.2c-3.8,0-7.6,0-11.5,0c-0.5,0-0.8-0.1-1.1-0.5c-1.1-1.1-2.1-2.1-3.2-3.2c-1.1-1.1-1.1-1.1-2.2,0
		c-0.3,0.3-0.2,0.5,0,0.7c1.6,1.5,3.1,3.1,4.6,4.6c0.2,0.2,0.5,0.3,0.8,0.3c2.1,0,4.1,0,6.2,0c1.8,0,3.6,0,5.4,0
		c1.5,0,1.4,0,1.5-1.4C50.2,59.3,50.1,59.2,49.6,59.2z"/>
	<path d="M3.8,6.8c1.7,0,3-1.4,3-3c0-1.6-1.4-3-3-3c-1.7,0-3,1.4-3,3C0.8,5.4,2.1,6.8,3.8,6.8z M3.8,2.8c0.5,0,1,0.5,1,1
		c0,0.5-0.4,1-1,1c-0.5,0-1-0.4-1-1C2.8,3.2,3.2,2.8,3.8,2.8z"/>
	<path d="M11.9,6.8c1.6,0,3-1.4,3-3c0-1.7-1.4-3-3-3c-1.6,0-3,1.4-3,3C8.8,5.4,10.2,6.8,11.9,6.8z M10.8,3.7c0-0.5,0.5-1,1-0.9
		c0.5,0,1,0.5,1,1c0,0.5-0.5,1-1,1C11.3,4.8,10.8,4.3,10.8,3.7z"/>
	<path d="M19.9,6.8c1.6,0,3-1.4,3-3c0-1.6-1.3-3-3-3c-1.7,0-3.1,1.4-3.1,3C16.9,5.4,18.3,6.8,19.9,6.8z M18.9,3.7
		c0-0.5,0.5-1,1.1-0.9c0.5,0,1,0.5,0.9,1.1c0,0.5-0.5,1-1,1C19.3,4.8,18.9,4.3,18.9,3.7z"/>
	<path d="M28,6.8c1.7,0,3-1.4,3-3c0-1.6-1.4-3-3-3c-1.7,0-3,1.4-3,3C25,5.4,26.3,6.8,28,6.8z M28,2.8c0.5,0,1,0.5,1,1
		c0,0.5-0.4,1-1,1c-0.6,0-1-0.5-1-1C27,3.2,27.4,2.8,28,2.8z"/>
	<path d="M56.2,11.8c1.6,0,3-1.4,3-3c0-1.7-1.4-3-3-3c-1.6,0-3,1.4-3,3C53.2,10.5,54.5,11.8,56.2,11.8z M56.3,7.8
		c0.5,0,1,0.5,0.9,1.1c0,0.5-0.5,1-1.1,0.9c-0.5,0-1-0.5-1-1C55.2,8.2,55.7,7.8,56.3,7.8z"/>
	<path d="M60.3,12.8c-1.7,0-3.1,1.4-3.1,3c0,1.6,1.3,3,3,3c1.7,0,3.1-1.4,3.1-3C63.3,14.2,61.9,12.9,60.3,12.8z M60.3,16.9
		c-0.5,0-1-0.4-1-1c0-0.6,0.4-1,1-1c0.5,0,1,0.5,1,1C61.2,16.4,60.8,16.9,60.3,16.9z"/>
	<path d="M60.2,50.1c-1.6,0-3,1.4-3,3c0,1.7,1.4,3,3,3c1.6,0,3-1.4,3-3C63.3,51.5,61.9,50.1,60.2,50.1z M60.2,54.2
		c-0.6,0-1-0.5-1-1.1c0-0.5,0.5-1,1.1-0.9c0.5,0,1,0.5,0.9,1.1C61.2,53.8,60.7,54.2,60.2,54.2z"/>
	<path d="M55.2,57.2c-1.6,0-3,1.3-3,3c0,1.7,1.3,3.1,3,3.1c1.6,0,3-1.3,3-3C58.2,58.6,56.9,57.2,55.2,57.2z M55.2,61.2
		c-0.5,0-1-0.4-1-1c0-0.6,0.5-1,1-1c0.5,0,1,0.5,1,1C56.2,60.8,55.7,61.2,55.2,61.2z"/>
	<path d="M49.2,52.2c-1.6,0-3.1,0-4.7,0c-1.5,0-1.4,0-1.5,1.4c0,0.5,0.1,0.6,0.6,0.6c3.3,0,6.7,0,10,0c1.5,0,1.5,0,1.5-1.5
		c0-0.4-0.1-0.5-0.5-0.5C52.9,52.2,51,52.2,49.2,52.2z"/>
	<path d="M32,31.1c0-2.4-1.8-4.2-4.1-4.1c-2.2,0-4,1.8-4,4.1c0,1.4,0,2.7,0,4.1c0,1.1,0,2.2,0,3.3c0,1.6,0,1.6,1.6,1.6
		c0.3,0,0.4-0.1,0.4-0.4c0-1.1,0-2.1,0-3.2c0-0.3,0.1-0.4,0.4-0.4c1.1,0,2.1,0,3.2,0c0.3,0,0.4,0.1,0.4,0.4c0,0.7,0,1.4,0,2.1
		c0,1.5,0,1.5,1.5,1.5c0.4,0,0.6-0.1,0.6-0.5C32,36.7,32,33.9,32,31.1z M29.6,34c-0.5,0-1.1,0-1.6,0c-0.5,0-1,0-1.6,0
		c-0.3,0-0.4,0-0.4-0.4c0-0.9,0-1.8,0-2.7c0-1.1,0.9-1.9,2-1.9c1.1,0,2,0.8,2,1.9c0,0.9,0,1.8,0,2.8C30,34,29.9,34,29.6,34z"/>
	<path d="M38.1,27c-1.2,0-2.4,0-3.6,0c-0.4,0-0.5,0.1-0.5,0.5c0,2,0,4,0,6c0,1.7,0,3.4,0,5c0,1.6,0,1.6,1.6,1.6
		c0.4,0,0.4-0.1,0.4-0.5c0-0.9,0-1.8,0-2.8c0-0.6-0.2-1.4,0.1-1.7c0.3-0.4,1.1-0.1,1.7-0.1c0.1,0,0.1,0,0.2,0c2.3,0,4-1.8,4-4.1
		C42.1,28.8,40.3,27,38.1,27z M40,31.6c-0.3,0.8-1,1.3-1.8,1.4c-0.7,0-1.6,0.3-2-0.1c-0.4-0.4-0.1-1.3-0.1-1.8c0-0.3,0-0.4,0-0.5
		c0.1-0.5-0.2-1.2,0.1-1.5c0.4-0.4,2.8,0.1,3.2,0.5C40,30.1,40.2,30.8,40,31.6z"/>
</g>
</svg>
