<?xml version="1.0" encoding="utf-8"?>
<!-- Generator: Adobe Illustrator 21.0.0, SVG Export Plug-In . SVG Version: 6.00 Build 0)  -->
<svg version="1.1" id="Layer_1" xmlns="http://www.w3.org/2000/svg" xmlns:xlink="http://www.w3.org/1999/xlink" x="0px" y="0px"
	 viewBox="0 0 64 64" style="enable-background:new 0 0 64 64;" xml:space="preserve">
<g>
	<path class="st0" d="M34.4,7.5C34.4,7.4,34.4,7.4,34.4,7.5C34.4,7.4,34.5,7.4,34.4,7.5c0-0.1-0.1-0.1-0.1-0.1
		C34.3,7.4,34.4,7.4,34.4,7.5z"/>
	<path class="st0" d="M33.9,5.3C33.9,5.3,33.9,5.3,33.9,5.3C33.9,5.3,33.9,5.3,33.9,5.3C33.9,5.3,33.9,5.3,33.9,5.3z"/>
	<path d="M4.2,58.7c8.9,0,17.8,0,26.6,0c6.8,0,12.8-2.1,17.9-6.6c5-4.4,8-10,8.9-16.6c0.7-5.2-0.1-10.2-2.4-14.9
		c-1.3-2.7-3-5.1-5.2-7.2C47,10.2,43.4,8,39.3,6.6c-1.6-0.5-3.2-0.8-4.8-1c-0.2,0-0.5,0-0.6-0.2c0,0,0,0,0,0c0,0,0,0-0.1,0
		c0,0,0,0,0.1,0c0-0.2,0.2-0.4,0.3-0.5c0.7-0.6,1.4-1.2,2.2-1.7c0.2-0.2,0.4-0.3,0.6-0.5c0.3-0.3,0.3-0.7,0-1
		c-0.3-0.3-0.6-0.3-1-0.1c-0.5,0.3-0.9,0.7-1.4,1c-1.2,0.9-2.4,1.9-3.7,2.9c-0.7,0.6-0.8,1.1,0,1.7c1.6,1.3,3.2,2.5,4.8,3.8
		c0.1,0.1,0.3,0.2,0.4,0.3c0.3,0.1,0.6,0.1,0.9-0.2c0.2-0.3,0.2-0.6,0.1-0.9c-0.1-0.2-0.4-0.4-0.6-0.6C36,8.9,35.4,8.5,34.8,8
		c-0.2-0.1-0.5-0.3-0.4-0.5c0,0-0.1-0.1-0.1-0.1c0.1,0,0.1,0,0.2,0c0.1-0.3,0.5-0.1,0.7-0.1c2,0.3,4,0.9,5.9,1.7
		c6.8,3,11.4,8.1,13.8,15c1.1,3,1.5,6.1,1.3,9.3c-0.3,5.6-2.3,10.6-6,14.9c-4.2,4.9-9.6,7.8-16.1,8.6c-1.3,0.2-2.5,0.2-3.8,0.2
		c-8.9,0-17.9,0-26.8,0c-0.8,0-1.7-0.1-2.5,0.4c0,0.2,0,0.4,0,0.6C2,58.8,3.1,58.7,4.2,58.7z"/>
	<path d="M2.4,58.8c9.5,0,19.1,0,28.6,0c3.1,0,6.1-0.5,9-1.5C52.8,53,60.4,39.3,57.3,26C54.9,15.5,46.5,7.5,35.8,5.6
		c-0.6-0.1-1.2-0.2-1.9-0.3c0,0,0,0,0,0c0.1,0.3,0.3,0.2,0.6,0.2c1.6,0.2,3.2,0.5,4.8,1c4.1,1.3,7.7,3.5,10.8,6.6
		c2.1,2.1,3.9,4.5,5.2,7.2c2.2,4.7,3,9.7,2.4,14.9c-0.8,6.7-3.9,12.2-8.9,16.6c-5.1,4.5-11.2,6.6-17.9,6.6c-8.9,0-17.8,0-26.6,0
		c-1.1,0-2.2,0.2-3.1-0.6C1.3,58.7,1.8,58.8,2.4,58.8z"/>
	<path d="M3.5,57.1c8.9,0,17.9,0,26.8,0c1.3,0,2.5-0.1,3.8-0.2c6.5-0.8,11.8-3.7,16.1-8.6c3.7-4.3,5.6-9.3,6-14.9
		c0.2-3.2-0.2-6.3-1.3-9.3c-2.5-7-7.1-12-13.8-15c-1.9-0.8-3.9-1.4-5.9-1.7c-0.2,0-0.6-0.2-0.7,0.1c0.4,0.1,0.7,0.1,1,0.1
		c6,1.1,10.9,4,14.9,8.6c6.8,8,7.7,20.1,2,29c-5,7.7-12.2,11.7-21.4,11.7c-9.5,0.1-19,0-28.5,0c-0.6,0-1.1,0.1-1.4,0.6
		C1.8,56.9,2.7,57.1,3.5,57.1z"/>
	<path d="M34.8,8c0.6,0.5,1.1,0.9,1.7,1.3c0.2,0.2,0.4,0.4,0.6,0.6c0.2,0.3,0.2,0.6-0.1,0.9c-0.2,0.3-0.5,0.3-0.9,0.2
		c-0.1-0.1-0.3-0.2-0.4-0.3C34.2,9.5,32.6,8.3,31,7c-0.7-0.6-0.7-1.1,0-1.7c1.2-1,2.4-1.9,3.7-2.9c0.5-0.4,0.9-0.7,1.4-1
		c0.3-0.2,0.7-0.2,1,0.1c0.3,0.3,0.3,0.7,0,1c-0.2,0.2-0.4,0.4-0.6,0.5c-0.7,0.6-1.5,1.2-2.2,1.7c-0.2,0.1-0.3,0.3-0.3,0.5
		C35,4.4,36,3.6,37,2.9c0.5-0.4,0.6-1,0.3-1.4c-0.4-0.5-0.9-0.5-1.4-0.1c-1.7,1.3-3.4,2.7-5.1,4c-0.6,0.5-0.6,1.1,0,1.6
		c0.4,0.4,0.9,0.7,1.4,1.1c1.3,1,2.5,2,3.8,3c0.5,0.4,1.1,0.3,1.4-0.1c0.3-0.4,0.3-1-0.2-1.4c-0.3-0.2-0.5-0.4-0.8-0.6
		c-0.6-0.5-1.2-0.9-1.8-1.4C34.4,7.7,34.7,7.8,34.8,8z"/>
	<path d="M57.5,62.4c1.5-1.2,3-2.3,4.5-3.5c0.1-0.1,0.3-0.2,0.4-0.4c0.5-0.5,0.5-1-0.1-1.4c-1.7-1.3-3.3-2.6-5-3.9
		c-0.5-0.4-0.9-0.3-1.2,0.1c-0.3,0.4-0.3,0.8,0.2,1.2c0.7,0.6,1.5,1.2,2.3,1.8c0.1,0.1,0.2,0.2,0.3,0.3c0.1,0.1,0.2,0.2,0.2,0.4
		C59,57,58.8,57,58.7,57c-0.2,0-0.4,0-0.6,0c-3,0-6,0-9.1,0c-0.8,0-1.2,0.2-1.2,0.8c0,0.5,0.4,0.8,1.2,0.8c3.1,0,6.1,0,9.2,0
		c0.3,0,0.7-0.1,0.8,0.2c0.1,0.3-0.3,0.5-0.5,0.6c-0.7,0.5-1.3,1.1-2,1.6c-0.8,0.6-0.8,0.8-0.3,1.6c0,0.1,0.1,0.1,0.1,0.2
		c0.2,0,0.5,0,0.7,0C57,62.6,57.3,62.5,57.5,62.4z"/>
	<path d="M62.4,56.9c-1.7-1.3-3.3-2.6-5-3.9c-0.6-0.4-1.1-0.4-1.5,0.1c-0.4,0.5-0.3,1,0.3,1.5c0.8,0.6,1.6,1.3,2.4,1.9
		c0.1,0.1,0.4,0.2,0.4,0.4c-3.3,0-6.7,0-10,0c-0.2,0-0.4,0-0.6,0c-0.5,0.1-0.8,0.4-0.8,0.8c0,0.5,0.2,0.8,0.6,1
		c0.2,0.1,0.5,0.1,0.8,0.1c3.1,0,6.3,0,9.4,0c0.2,0,0.4-0.1,0.6,0.1c-0.9,0.7-1.8,1.4-2.7,2.1c-0.9,0.7-0.9,1.2-0.1,2
		c0-0.1,0-0.2-0.1-0.2c-0.5-0.8-0.5-1,0.3-1.6c0.7-0.5,1.3-1.1,2-1.6c0.2-0.2,0.6-0.3,0.5-0.6c-0.1-0.3-0.5-0.2-0.8-0.2
		c-3.1,0-6.1,0-9.2,0c-0.8,0-1.2-0.3-1.2-0.8c0-0.5,0.4-0.8,1.2-0.8c3,0,6,0,9.1,0c0.2,0,0.4,0,0.6,0c0.2,0,0.3,0,0.4-0.2
		c0-0.2-0.1-0.3-0.2-0.4c-0.1-0.1-0.2-0.2-0.3-0.3c-0.8-0.6-1.5-1.2-2.3-1.8c-0.5-0.4-0.5-0.8-0.2-1.2c0.3-0.4,0.7-0.4,1.2-0.1
		c1.7,1.3,3.4,2.6,5,3.9c0.6,0.5,0.6,0.9,0.1,1.4c-0.1,0.1-0.3,0.2-0.4,0.4c-1.5,1.2-3,2.3-4.5,3.5c-0.2,0.2-0.5,0.3-0.5,0.6
		c1.8-1.4,3.6-2.8,5.4-4.2C63.1,58.1,63.1,57.5,62.4,56.9z"/>
	<path d="M28.5,14.3c-0.2,0.6-0.5,1.3-0.7,1.9c-0.1,0.2-0.2,0.4-0.5,0.5c-1.5,0.4-2.8,0.9-4.1,1.7c-0.2,0.1-0.4,0.2-0.7,0
		c-0.6-0.3-1.3-0.6-1.9-0.9c-0.5-0.2-0.9-0.1-1.3,0.2c-0.7,0.8-1.5,1.5-2.3,2.3c-0.4,0.4-0.5,0.9-0.2,1.4c0.3,0.6,0.5,1.3,0.8,1.9
		c0.1,0.2,0.1,0.4,0,0.7c-0.8,1.3-1.3,2.6-1.7,4.1c-0.1,0.3-0.2,0.4-0.4,0.5c-0.7,0.2-1.3,0.5-2,0.8c-0.5,0.2-0.8,0.5-0.8,1
		c0,1.1,0,2.2,0,3.3c0,0.5,0.2,0.9,0.7,1c0.6,0.2,1.3,0.5,1.9,0.7c0.3,0.1,0.5,0.3,0.5,0.6c0.3,1.4,0.9,2.7,1.7,4
		c0.2,0.3,0.2,0.5,0,0.8c-0.3,0.6-0.5,1.2-0.8,1.8c-0.2,0.5-0.2,1,0.2,1.4c0.8,0.7,1.5,1.5,2.3,2.3c0.4,0.4,0.8,0.5,1.3,0.2
		c0.6-0.3,1.3-0.5,1.9-0.8c0.3-0.1,0.5-0.1,0.8,0c1.2,0.8,2.6,1.3,4,1.7c0.3,0.1,0.5,0.2,0.6,0.5c0.2,0.6,0.5,1.2,0.7,1.9
		c0.2,0.5,0.5,0.8,1.1,0.8c1.1,0,2.1,0,3.2,0c0.6,0,0.9-0.3,1.1-0.8c0.2-0.6,0.5-1.3,0.7-1.9c0.1-0.3,0.2-0.4,0.5-0.5
		c1.4-0.4,2.8-0.9,4-1.7c0.2-0.2,0.5-0.2,0.7,0c0.6,0.3,1.3,0.6,1.9,0.9c0.5,0.2,0.9,0.1,1.3-0.2c0.8-0.8,1.5-1.5,2.3-2.3
		c0.4-0.4,0.5-0.8,0.2-1.3c-0.3-0.6-0.5-1.2-0.8-1.8c-0.1-0.3-0.2-0.5,0-0.8c0.5-0.7,0.8-1.5,1.1-2.3c0.3-0.7,0.2-1.6,0.8-2.1
		c0.6-0.5,1.4-0.6,2.2-0.9c0.5-0.2,0.8-0.5,0.8-1.1c0-1.1,0-2.2,0-3.3c0-0.6-0.3-0.9-0.8-1.1c-0.6-0.2-1.2-0.5-1.9-0.7
		c-0.3-0.1-0.5-0.3-0.6-0.6c-0.3-1.2-0.7-2.4-1.4-3.4c-0.5-0.7-0.4-1.3,0-2c0.3-0.5,0.6-1.1,0.7-1.7c0-0.3-0.1-0.5-0.3-0.8
		c-0.8-0.8-1.6-1.6-2.3-2.4c-0.4-0.4-0.8-0.5-1.3-0.2c-0.6,0.3-1.3,0.6-1.9,0.9c-0.3,0.1-0.5,0.1-0.7,0c-0.7-0.4-1.5-0.8-2.3-1.1
		c-0.7-0.3-1.7-0.3-2.1-0.8c-0.5-0.6-0.6-1.4-0.9-2.2c-0.2-0.5-0.5-0.8-1.1-0.8c-1.1,0-2.1,0-3.2,0C29,13.5,28.7,13.8,28.5,14.3z
		 M32,15.4c0.3,0,0.3,0.2,0.4,0.4c0.2,0.6,0.5,1.2,0.7,1.7c0.2,0.5,0.5,0.8,1,0.9c1.7,0.3,3.3,1,4.8,2c0.4,0.3,0.8,0.3,1.2,0.1
		c0.6-0.3,1.2-0.5,1.8-0.8c0.2-0.1,0.4-0.1,0.6,0.1c0,0,0,0,0,0c0.4,0.4,1,0.8,1.1,1.3c0.1,0.4-0.3,1-0.6,1.5
		c-0.5,0.8-0.4,1.5,0.1,2.2c0.9,1.3,1.4,2.7,1.7,4.2c0.1,0.6,0.4,1,1,1.2c0.6,0.2,1.1,0.4,1.6,0.6c0.7,0.4,0.2,1.1,0.3,1.6
		c0.1,0.3,0.2,0.7-0.3,0.8c-0.6,0.2-1.2,0.5-1.8,0.7c-0.4,0.2-0.7,0.4-0.8,0.9c-0.4,1.7-1,3.3-2,4.8c-0.3,0.4-0.3,0.8-0.1,1.2
		c0.3,0.6,0.5,1.2,0.8,1.8c0.1,0.3,0.1,0.4-0.1,0.6c-1.2,1.3-1.2,1.3-2.9,0.6c-0.8-0.4-1.4-0.4-2.2,0.1c-1.2,0.8-2.6,1.4-4.1,1.6
		c-0.7,0.1-1.1,0.4-1.3,1.1c-0.1,0.5-0.4,1-0.6,1.5c-0.1,0.3-0.3,0.4-0.6,0.4c-0.6,0-1.2,0.2-1.7-0.1c-0.4-0.2-0.5-1-0.7-1.5
		c-0.3-0.9-0.7-1.3-1.7-1.5c-1.5-0.3-2.8-0.9-4.1-1.7c-0.5-0.4-1-0.4-1.6-0.1c-0.1,0.1-0.3,0.1-0.4,0.2c-1.7,0.7-1.7,0.7-2.8-0.7
		c-0.2-0.2-0.1-0.3,0-0.5c0.3-0.6,0.5-1.2,0.8-1.8c0.2-0.4,0.2-0.8-0.1-1.2c-1-1.5-1.7-3.1-2-4.9c-0.1-0.4-0.4-0.7-0.8-0.9
		c-0.6-0.2-1.2-0.5-1.8-0.7c-0.3-0.1-0.4-0.3-0.4-0.6c0,0,0,0,0-0.1c0-0.6-0.2-1.2,0.1-1.6c0.3-0.4,0.9-0.5,1.5-0.6
		c0.9-0.2,1.4-0.8,1.6-1.7c0.3-1.5,0.9-2.8,1.8-4.1c0.3-0.5,0.4-0.9,0.1-1.5c-0.3-0.5-0.5-1.1-0.7-1.6c-0.2-0.3-0.1-0.5,0.1-0.7
		c0.3-0.3,0.7-0.7,1-1c0.1-0.1,0.2-0.2,0.3-0.2c0.3,0.1,0.5,0.2,0.7,0.3c1.2,0.8,2.4,0.8,3.6-0.1c1-0.7,2.3-1.1,3.5-1.3
		c0.6-0.1,1-0.4,1.2-1c0-0.2,0.1-0.3,0.2-0.4C30.2,15.3,30.2,15.3,32,15.4z"/>
	<path d="M15,50.8c-6.6-6-9.6-13.4-8.4-22.3c1-7.4,4.8-13.2,11-17.4c2.1-1.4,4.4-2.4,6.9-3.1c0.3-0.1,0.7-0.2,0.9-0.5
		c0.2-0.4,0.2-0.7-0.1-1.1C25,6,24.5,6,24,6.2C12.4,9.5,4.5,19.9,4.4,32.3c0,0.9,0.1,2.1,0.2,3.3c0.9,6.7,4,12.3,9.1,16.8
		c0.7,0.7,1.3,0.7,1.7,0.2C15.9,52,15.7,51.5,15,50.8z"/>
	<path d="M21.7,32c0,5.3,4.3,9.5,9.6,9.5c5.2,0,9.5-4.3,9.5-9.6c0-5.3-4.3-9.5-9.6-9.5C25.9,22.5,21.6,26.8,21.7,32z M31.2,24.4
		c4.2,0,7.6,3.4,7.6,7.6c0,4.2-3.4,7.6-7.6,7.6c-4.2,0-7.7-3.4-7.6-7.6C23.6,27.8,27,24.4,31.2,24.4z"/>
</g>
</svg>
