<?xml version="1.0" encoding="utf-8"?>
<!-- Generator: Adobe Illustrator 21.0.0, SVG Export Plug-In . SVG Version: 6.00 Build 0)  -->
<svg version="1.1" id="Layer_1" xmlns="http://www.w3.org/2000/svg" xmlns:xlink="http://www.w3.org/1999/xlink" x="0px" y="0px"
	 viewBox="0 0 404 359" style="enable-background:new 0 0 404 359;" xml:space="preserve">
<g>
	<path d="M9.8,295.8c2.6-2.9,2.6-2.9,12-4.1c0-1.4,0-2.9,0-4.3c0-79.4,0-158.7,0-238.1c0-8.3,6.9-15.2,15.3-15.2
		c51.4,0,102.7,0,154.1,0c1.4,0,2.7,0,4.3,0c0,4,0,7.8,0,12c-1.3,0-2.5,0-3.7,0c-50.7,0-101.5,0-152.2,0c-4.7,0-5.9,1.1-5.9,5.6
		c0,79.1,0,158.2,0,237.3c0,0.9,0,1.7,0,3.1c1.6,0,3.1,0,4.5,0c37.6,0,75.2,0,112.9,0c6.9,0,8.6,1.7,8.6,8.6c0,3,0,6,0,9.2
		c28.1,0,55.8,0,84,0c0-3.5,0-6.8,0-10.1c0-5.6,2.1-7.6,7.7-7.6c38,0,76,0,114,0c1.2,0,2.5,0,4.1,0c0-49.9,0-99.7,0-149.8
		c4.2,0,8,0,12,0c0,49.8,0,99.5,0,149.6c4.5,0.4,9.4-0.8,12.1,3.9c0,13.5,0,27,0,40.5c-8.5,9.8-8.5,9.8-21.9,9.8
		c-114.2,0-228.5-0.1-342.7,0.2c-8.5,0-13.9-3-18.5-9.3c-0.2-0.3-0.5-0.5-0.8-0.7C9.8,322.8,9.8,309.3,9.8,295.8z M21.7,304.2
		c0,7.9,0,15.4,0,22.9c0,6.3,0.6,6.9,6.8,6.9c112.6,0,225.2,0,337.9,0c3.6,0,7.3,0.4,10.9-0.2c1.6-0.2,4.3-2.1,4.3-3.4
		c0.4-8.7,0.2-17.4,0.2-26.2c-42.2,0-83.9,0-126,0c0,2.1,0.1,4,0,5.8c-0.2,6.8-5.2,11.9-12,11.9c-28,0.1-56,0.1-84,0
		c-6.9,0-11.8-5.2-12-12.2c0-1.8,0-3.6,0-5.6C105.5,304.2,63.8,304.2,21.7,304.2z"/>
	<path d="M189.6,58c0,4.2,0,7.9,0,11.9c-43.9,0-87.6,0-131.6,0c0,66.1,0,131.8,0,197.9c95.7,0,191.5,0,287.7,0c0-21.8,0-43.6,0-65.6
		c4.1,0,7.8,0,11.9,0c0.1,1.2,0.2,2.4,0.2,3.6c0,20.1,0,40.2,0,60.4c0,9.2-4.6,13.9-13.8,13.9c-94.7,0-189.5,0-284.2,0
		c-9.4,0-14-4.6-14-14c0-64.9,0-129.7,0-194.6c0-8.3,4.8-13.4,12.8-13.4c42.7,0,85.5,0,128.2,0C187.6,58,188.4,58,189.6,58z"/>
	<path d="M228.3,74c-3.3,2.6-6.3,4.8-9.5,7.3c-5.4-7.1-10.8-14-15.9-21.1c-0.9-1.2-0.7-3.3-0.9-5c0-0.3,0.2-0.7,0.3-1.1
		c6.3-18.1,1.7-13.4,19.3-19.6c2.9-1,5.3-0.6,7.7,1.3c4.7,3.7,9.6,7.2,14.2,11c1.7,1.3,3,1.6,5,0.5c2.4-1.3,5-2.4,7.6-3.2
		c2.4-0.7,3.1-2.1,3.3-4.3c0.7-5.8,1.6-11.6,2.2-17.5c0.3-3.1,1.8-5.1,4.5-6.3c0.3-0.2,0.7-0.3,1-0.5c13.7-6.9,13.7-7,26.8,0.9
		c1.7,1.1,3.3,3.5,3.7,5.5c1.1,5.6,1.8,11.3,2.3,17.1c0.3,2.8,1.1,4.8,4.1,5.2c0.6,0.1,1.3,0.3,1.7,0.6c5.7,4.1,10.5,2.7,15.2-2
		c2.8-2.8,6.1-5.3,9.5-7.2c1.9-1.1,4.6-0.9,6.9-1.3c0.2,0,0.5,0.1,0.7,0.2c17.5,6,12.8,1.7,19,19.9c0.7,1.9-0.3,5-1.5,6.8
		c-3.3,5-7.1,9.7-10.9,14.3c-1.4,1.7-1.5,3.1-0.5,5c1.3,2.3,2.4,4.7,3,7.2c0.7,2.7,2.3,3.4,4.8,3.7c5.8,0.7,11.7,1.3,17.4,2.4
		c2,0.4,3.8,2.4,5.6,3.7c0.3,0.2,0.3,0.7,0.5,1c7.1,13.7,7.2,13.8-0.5,27.1c-1.1,1.9-3.6,3.5-5.7,4c-5.7,1.2-11.6,1.8-17.4,2.4
		c-2.5,0.3-4.3,1-4.7,3.8c-0.1,0.6-0.3,1.3-0.6,1.7c-4.3,6-2.8,11,2.2,15.9c2.7,2.7,5.1,5.9,7,9.2c1.1,1.9,1.8,4.9,1.1,6.9
		c-6.1,17.9-1.5,13.4-19.2,19.6c-2.9,1-5.3,0.6-7.7-1.3c-4.6-3.6-9.4-7.1-13.9-10.8c-1.8-1.4-3.2-1.8-5.3-0.7
		c-2.2,1.2-4.5,2.3-6.9,2.9c-3,0.7-3.8,2.6-4.1,5.3c-0.6,5.8-1.5,11.6-2.3,17.8c-4-0.5-7.7-1-11.9-1.5c1.2-9,2.3-17.8,3.8-26.4
		c0.3-1.6,2.4-3.5,4.1-4.3c5.7-2.7,11.7-4.9,17.5-7.5c2.9-1.3,5.3-0.6,7.6,1.2c5,3.9,10.1,7.7,15.2,11.6c1.9,1.4,6.6,0.9,8.5-0.8
		c1.8-1.7,2.5-6.9,1-8.8c-3.8-5.1-7.7-10.2-11.6-15.2c-2.2-2.8-2.2-5.4-0.7-8.6c2.5-5,4.5-10.3,6.4-15.5c1.1-3.2,2.9-5.1,6.3-5.5
		c6.3-0.8,12.6-1.7,18.9-2.5c4-0.5,6.6-5.5,5.1-9.1c-1.3-3-2.9-4.7-6.5-4.9c-5.3-0.2-10.7-1.3-16-1.9c-5.3-0.7-6.3-1.8-8.1-6.8
		c-1.6-4.7-3.5-9.4-5.8-13.8c-2-3.7-2-6.6,0.7-9.9c3.9-4.7,7.5-9.7,11.2-14.6c1.5-2,1-7-0.9-8.8c-1.9-1.8-6.8-2.2-8.8-0.7
		c-5,3.8-10,7.5-14.9,11.4c-2.9,2.3-5.6,2.3-9,0.6c-4.9-2.4-10-4.4-15.2-6.3c-3.3-1.2-5.3-3-5.7-6.5c-0.8-6.4-1.7-12.9-2.6-19.3
		c-0.4-3.2-5.5-5.9-8.5-4.7c-3.2,1.3-5.2,3-5.4,7c-0.2,5.3-1.4,10.6-1.9,16c-0.4,4.3-2.5,6.6-6.7,7.9c-4.9,1.5-9.6,3.6-14.1,5.9
		c-3.6,1.9-6.5,1.8-9.6-0.8c-4.7-3.9-9.7-7.5-14.6-11.2c-3-2.3-8.3-0.6-9.8,2.7c-1.5,3.2-1.2,5.6,1.2,8.4
		C221,64,224.4,68.9,228.3,74z"/>
	<path d="M142,124.2c4,0,7.7,0,11.7,0c0,15.9,0,31.6,0,47.5c12.1,0,23.8,0,36,0c0-15.8,0-31.6,0-47.6c4.1,0,7.8,0,11.8,0
		c0,35.8,0,71.6,0,107.6c-3.8,0-7.6,0-11.7,0c0-15.8,0-31.5,0-47.5c-12.1,0-23.9,0-35.9,0c0,15.7,0,31.4,0,47.4c-4,0-7.8,0-11.9,0
		C142,196,142,160.2,142,124.2z"/>
	<path d="M225.8,184.8c0,15.6,0,31.2,0,47c-4,0-7.8,0-11.9,0c-0.1-1.1-0.2-2.2-0.2-3.3c0-32,0-63.9,0-95.9c0-6.9,1.7-8.6,8.7-8.6
		c6.4,0,12.8,0.4,19.1-0.1c14.9-1.1,29.1,10,25.9,30.6c-2.4,15.4-12.8,25.4-29.5,28.7C234,184,230,184.2,225.8,184.8z M226,136
		c0,12.3,0,24.1,0,36.5c2.6-0.2,4.9-0.2,7.2-0.5c15.1-1.9,23.3-11,22.5-25c-0.3-6-4.7-10.7-10.7-10.8C238.8,135.9,232.6,136,226,136
		z"/>
	<path d="M87.9,184.7c0,15.6,0,31.1,0,47c-4,0-7.8,0-11.9,0c-0.1-1-0.2-2.1-0.2-3.2c0-32.1,0-64.2,0-96.3c0-6.4,1.9-8.3,8.2-8.3
		c6.5,0,13,0.4,19.5-0.1c15.4-1.1,29.3,10.4,25.9,30.9c-2.5,15.2-12.8,25.1-29.4,28.4C96.1,184,92.1,184.2,87.9,184.7z M87.9,171.9
		c4.8,0.9,10.8-0.3,16.8-2.7c10.7-4.3,14-14.3,12.9-23.6c-0.5-4.5-4-8.8-8.6-9.2c-7-0.5-14.1-0.1-21.1-0.1
		C87.9,148.4,87.9,160.2,87.9,171.9z"/>
	<path d="M279.9,153.6c0-3.7,0-7.4,0-11.4c10.2-0.7,18.7-4.7,24.6-13.3c4.1-6,5.8-12.7,5.1-19.9C308.1,94,295.5,82.4,280.8,82
		c-16.7-0.4-28,10.2-31.4,29.8c-3.7,0-7.4,0-11.1,0c-2.4-11.5,7.4-28.8,20.6-36.3c15.9-9,35.7-6.8,49.1,5.4
		c13.5,12.3,17.5,31.8,10,48.3C311.2,144.4,294.2,155.3,279.9,153.6z"/>
	<path d="M258.9,214c4.7,0,9.5-0.1,14.2,0c4.2,0.1,6.5,2.3,6.6,6.5c0.1,9.6,0.1,19.2,0,28.9c0,4.2-2.3,6.5-6.5,6.6
		c-9.6,0.1-19.2,0.1-28.9,0c-4.2,0-6.5-2.3-6.6-6.5c-0.1-9.6-0.1-19.2,0-28.9c0-4.2,2.3-6.5,6.5-6.6C249.1,213.9,254,214,258.9,214z
		 M250.1,226.1c0,6.2,0,12,0,17.6c6,0,11.7,0,17.5,0c0-6,0-11.8,0-17.6C261.6,226.1,255.9,226.1,250.1,226.1z"/>
	<path d="M291.7,234.6c0-4.6-0.1-9.2,0-13.8c0.1-4.4,2.3-6.7,6.7-6.8c9.6-0.1,19.2-0.1,28.8,0c4.2,0,6.5,2.3,6.5,6.6
		c0.1,9.6,0.1,19.2,0,28.8c0,4.2-2.3,6.5-6.5,6.6c-9.7,0.1-19.5,0.1-29.2,0c-4,0-6.2-2.4-6.3-6.4
		C291.7,244.6,291.8,239.6,291.7,234.6C291.7,234.6,291.7,234.6,291.7,234.6z M304,226.1c0,6.1,0,11.9,0,17.7c6,0,11.7,0,17.5,0
		c0-6,0-11.7,0-17.7C315.6,226.1,309.9,226.1,304,226.1z"/>
</g>
</svg>
