<?xml version="1.0" encoding="utf-8"?>
<!-- Generator: Adobe Illustrator 21.0.0, SVG Export Plug-In . SVG Version: 6.00 Build 0)  -->
<svg version="1.1" id="Layer_1" xmlns="http://www.w3.org/2000/svg" xmlns:xlink="http://www.w3.org/1999/xlink" x="0px" y="0px"
	 viewBox="0 0 558 544" style="enable-background:new 0 0 558 544;" xml:space="preserve">
<g>
	<path d="M532.1,320c0,2,0,4,0,6c-5.9,8.9-11.7,9.5-19.4,1.9c-6-6-12-12-18-18c-9.1-9.1-18.1-18.2-27.3-27.2
		c-4.4-4.3-9.6-5.2-15.2-2.9c-5.2,2.1-8.1,6.3-8.5,11.9c-0.4,5.1,2,8.9,5.5,12.3c14.4,14.3,28.8,28.7,43.2,43.1
		c2.9,2.9,5.2,6.1,4.2,10.6c-0.9,3.9-3.2,6.5-7.1,7.6c-4.4,1.3-7.8-0.6-10.8-3.5c-15.1-15.1-30.2-30.2-45.3-45.2
		c-4.7-4.7-9.3-9.6-14.3-14c-8.1-7.1-20.4-2.9-22.7,7.5c-1.3,5.8,1.2,10.3,5.3,14.3c18.5,18.5,37.1,37,55.5,55.5
		c2,2.1,4,4.6,4.8,7.3c1.3,4.4-0.5,8.2-4.6,10.6c-4,2.4-8.7,1.7-12.7-2.3c-11.8-11.7-23.6-23.5-35.4-35.3
		c-7.8-7.8-15.4-15.7-23.4-23.2c-8.3-7.8-21.1-3.8-23.4,7.1c-1.2,5.6,1.1,10,5,13.9c17.7,17.6,35.4,35.3,53,53
		c6.4,6.5,7.3,12.1,2.5,16.8c-4.8,4.7-10.2,3.8-16.8-2.8c-42-41.9-83.9-83.9-125.9-125.8c-1.5-1.5-3-3.1-4.8-4.4
		c-7.7-5.8-18.5-2.5-21.6,6.6c-2.4,6.8,0.7,11.8,5.3,16.5c47.6,47.6,95.2,95.2,142.8,142.8c5.3,5.3,6.4,9.5,3.9,14.1
		c-2.5,4.6-6.8,6-13.9,4.3c-16.7-4-33.3-8.1-50-12c-9.3-2.2-17,2-19.4,10.2c-2.4,8.2,1.9,15.7,11,19c7.8,2.8,15.7,5.6,23.6,8.2
		c4.9,1.6,9,3.8,9.7,9.5c0.7,5.5-2.8,8.5-6.9,11.1c-2,0-4,0-6,0c-7.9-2.9-15.8-5.9-23.7-8.7c-0.9-0.3-2.3,0-3.2,0.4
		c-6.4,2.7-12.7,5.5-19,8.3c-84,0-168,0-252,0c-1.1-0.4-2.1-0.8-3.2-1c-14.5-3.7-24.7-12.4-30.1-26.5c-1.1-2.8-1.8-5.6-2.7-8.5
		c0-59.3,0-118.7,0-178c0.7-0.9,1.3-1.9,2-2.8c2.7-3.5,6.3-5,10.6-3.8c4.2,1.2,6.8,4.2,7.3,8.6c0.3,2,0.1,4,0.1,6
		c0,38.7,0,77.3,0,116c0,1.9,0,3.9,0,5.7c95.1,0,189.4,0,284,0c0-9.4,0.1-18.4-0.1-27.4c0-1.7-1.3-3.7-2.6-5
		c-11-11.2-22.1-22.2-33.2-33.3c-0.9-0.9-2.1-1.7-3.8-3.2c0,12.9,0,24.7,0,36.5c0,9.4-3.3,12.7-12.6,12.7c-19.5,0-39,0-58.5,0
		c-9.4,0-12.9-3.5-12.9-13c0-17.8,0-35.7,0-53.5c0-15.7,1.8-17.6,17.4-17.5c10.4,0,20.8,0,31.9,0c-1-1.2-1.3-1.8-1.7-2.2
		c-6.5-6.1-12.3-12.7-14.2-21.8c-0.2-0.8-2.2-1.8-3.3-1.8c-5.8-0.2-11.7-0.1-17.5-0.1c-8.9,0-12.5-3.5-12.6-12.4
		c-0.1-19.8-0.1-39.7,0-59.5c0-8.5,3.7-12.1,12.3-12.1c19.8,0,39.7,0,59.5,0c8.7,0,12.1,3.4,12.2,12.1c0.1,11.2,0,22.3,0.1,33.5
		c0,1.7,0.5,3.8,1.5,4.9c11.4,11.2,22.9,22.3,34.4,33.4c1,0.9,2.1,1.8,3.4,2.9c0-72.6,0-144.5,0-216.5c-94.7,0-189,0-283.7,0
		c0,12.8,0,25.3,0,37.7c0,29.2,0,58.3,0,87.5c0,7.1-4.3,11.7-10.4,11.4c-4.8-0.2-7.3-3.4-9.6-7c0-59.3,0-118.7,0-178
		C22.7,43,24.6,36.5,28,31C34.3,20.6,44.7,15.9,56.1,13c84,0,168,0,252,0c0.3,0.2,0.5,0.5,0.8,0.5c24.1,6.4,35.2,20.8,35.2,45.8
		c0,89.5,0,179,0,268.5c0,1.7,0,3.4,0,5.1c7.2-12.5,17.6-19.3,31.8-20.2c0.8-12.2,5.8-22,16.1-28.5c10.5-6.6,21.6-6.6,32.8-2.1
		c10.3-26.4,41.9-31.4,60.6-10c11.6,13.2,24.9,25.1,37.3,37.6C526.1,313,529,316.6,532.1,320z M324.1,76.8c0-6.7,0-12.8,0-19
		c0-16-8.8-24.8-24.6-24.8c-22.3,0-44.6,0-67,0c-56.3,0-112.6,0-168.9,0c-11.7,0-21,6.3-22.6,17c-1.3,8.7-0.3,17.8-0.3,26.8
		C135.1,76.8,229.3,76.8,324.1,76.8z M40.1,461.2c0,7.4-0.1,14.4,0,21.4c0.2,12.9,9.5,22.4,22.5,22.4c79.5,0.1,159,0,238.5,0
		c2.7,0,5.4-0.7,7.2-0.9c-2.1-7.5-5.4-14.4-5.7-21.4c-0.2-7.1,2.6-14.4,4-21.5C218.7,461.2,129.8,461.2,40.1,461.2z M264,400.9
		c0-14.8,0-29.2,0-43.5c-14.6,0-28.9,0-43.2,0c0,14.7,0,29.1,0,43.5C235.4,400.9,249.5,400.9,264,400.9z M264.1,271.8
		c0-8.3,0-16.4,0-24.6c-14.6,0-28.8,0-43.3,0c0,14.6,0,29,0,43.8c4.8,0,9.2,0.1,13.7-0.1c1,0,2.4-0.6,2.8-1.4
		C243.2,279.2,252.4,273.6,264.1,271.8z M344.4,446.9c6.4,1.5,12.6,3,19.3,4.5c-6.8-6.7-13.1-12.8-19.3-18.9
		C344.4,436.9,344.4,441.6,344.4,446.9z"/>
	<path d="M20.1,266c0.6-0.8,1.1-1.6,1.7-2.4c2.8-3.9,6.6-5.6,11.2-4.1c4.6,1.5,7.1,4.9,7,9.7c-0.1,4.6-2.6,7.8-7,9.2
		c-4.7,1.5-8.4-0.2-11.2-4.1c-0.6-0.8-1.1-1.6-1.7-2.4C20.1,270,20.1,268,20.1,266z"/>
	<path d="M130.6,201c-10.2,0-20.3,0-30.5,0c-7.8,0-11.8-3.8-11.8-11.6c-0.1-20.3-0.1-40.6,0-60.9c0-7.8,4-11.4,11.9-11.5
		c20.1,0,40.3-0.1,60.4,0c7.9,0,11.6,3.6,11.6,11.6c0.1,20.1,0.1,40.3,0,60.4c0,8.5-3.6,12-12.3,12
		C150.3,201.1,140.5,201.1,130.6,201C130.6,201,130.6,201,130.6,201z M108.7,137.3c0,14.8,0,29,0,43.4c14.7,0,29.1,0,43.4,0
		c0-14.6,0-28.9,0-43.4C137.6,137.3,123.3,137.3,108.7,137.3z"/>
	<path d="M130.9,227c9.8,0,19.6,0,29.5,0c8.4,0,12,3.5,12,11.7c0.1,20.1,0.1,40.3,0,60.4c0,8.3-3.6,11.9-11.9,11.9
		c-20,0-39.9,0-59.9,0c-8.5,0-12.2-3.6-12.2-12.2c-0.1-19.8-0.1-39.6,0-59.4c0-8.8,3.7-12.4,12.5-12.4
		C110.9,227,120.9,227,130.9,227z M108.6,290.7c14.8,0,29,0,43.4,0c0-14.7,0-29,0-43.4c-14.6,0-28.9,0-43.4,0
		C108.6,261.9,108.6,276.1,108.6,290.7z"/>
	<path d="M130.1,421c-10,0-20,0-30,0c-7.8,0-11.7-3.8-11.7-11.6c-0.1-20.3-0.1-40.6,0-60.9c0-7.6,3.9-11.4,11.4-11.4
		c20.5-0.1,40.9-0.1,61.4,0c7.3,0,11.1,3.8,11.1,11.1c0.1,20.6,0.1,41.3,0,61.9c0,7.3-3.9,10.9-11.3,10.9
		C150.7,421.1,140.4,421,130.1,421z M108.8,357.2c0,14.9,0,29.2,0,43.5c14.7,0,28.9,0,43.2,0c0-14.7,0-29,0-43.5
		C137.4,357.2,123.3,357.2,108.8,357.2z"/>
	<path d="M284.4,159c0,10,0.1,20,0,30c-0.1,8.4-3.6,12-11.8,12c-20.2,0-40.3,0-60.5,0c-7.6,0-11.6-3.7-11.6-11.2
		c-0.1-20.5-0.1-41,0-61.5c0-7.5,4-11.2,11.7-11.2c20.2,0,40.3,0,60.5,0c8.2,0,11.7,3.6,11.8,12C284.5,139,284.4,149,284.4,159z
		 M220.8,137.2c0,14.8,0,29.2,0,43.5c14.7,0,28.9,0,43.2,0c0-14.7,0-29,0-43.5C249.5,137.2,235.4,137.2,220.8,137.2z"/>
	<path d="M172,483c0-5.5,4.3-9.9,9.8-9.9c5.3,0,10,4.4,10.1,9.8c0.1,5.5-4.6,10.3-10.2,10.2C176.3,492.9,172,488.5,172,483z"/>
</g>
</svg>
