<?xml version="1.0" encoding="utf-8"?>
<!-- Generator: Adobe Illustrator 21.0.0, SVG Export Plug-In . SVG Version: 6.00 Build 0)  -->
<svg version="1.1" id="Layer_1" xmlns="http://www.w3.org/2000/svg" xmlns:xlink="http://www.w3.org/1999/xlink" x="0px" y="0px"
	 viewBox="0 0 396 402" style="enable-background:new 0 0 396 402;" xml:space="preserve">
<g>
	<path d="M178.5,268.4c-6.7,2.4-13.2,4.7-19.7,7.2c-0.8,0.3-1.5,1.5-1.9,2.4c-1.4,3.7-2.5,7.6-3.9,11.3c-0.3,0.9-1.6,2-2.5,2
		c-14.2,0.1-28.5,0.1-42.8,0.1c-1.5-4.4-2.7-8.8-4.4-12.9c-0.6-1.4-1.9-2.8-3.3-3.4c-7.2-3.2-14.4-6.1-21.8-9
		c-1.5-0.6-3.6-0.7-5.1-0.1c-3.5,1.4-6.7,3.4-10.1,4.8c-1,0.4-3,0.2-3.7-0.6c-9.6-9.4-19-18.8-28.4-28.4c-0.7-0.7-0.9-2.5-0.6-3.4
		c1.6-3.7,3.6-7.1,5.2-10.8c0.5-1.2,0.4-2.9-0.1-4.1c-3-7.5-6-15-9.3-22.4c-0.6-1.3-1.9-2.6-3.2-3.1c-4.2-1.7-8.5-3-12.9-4.4
		c0-14.9,0-29.7,0-44.7c4.2-1.4,8.6-2.7,12.7-4.3c1.4-0.6,2.8-2,3.4-3.3c3.2-7.3,6.3-14.7,9.1-22.1c0.5-1.4,0.5-3.4,0-4.7
		c-1.4-3.5-3.2-6.8-5-10c-1-1.8-0.4-2.8,0.9-4.1c9.3-9.2,18.6-18.5,27.8-27.8c1.4-1.4,2.4-1.7,4.2-0.7c3.3,1.8,6.6,3.4,10,5.1
		c4.1,2,8.7-0.9,8.8-5.3c0.1-4.5-0.1-9.1,0.6-13.4c2.5-14.4,14.5-24.6,29.2-24.7c19-0.1,38-0.1,57,0c22.6,0,44.8-3.1,66.5-9.6
		c2.2-0.7,3.5-1.5,4.5-3.8c3.1-6.7,8.5-10.3,15.9-10.6c4.2-0.1,8.5-0.1,12.7,0c9.6,0.3,17.3,7.9,17.5,17.5c0.2,6.5,0,13,0,19.7
		c8,2,15.8,4,23.8,6c0.1,0.8,0.2,1.5,0.2,2.2c0,13.4,0,26.7,0.1,40.1c0,2.2-0.5,3.3-2.9,3.8c-7,1.6-14,3.5-21.2,5.3
		c0,6.3,0,12.4,0,18.5c-0.1,11-7.7,18.6-18.7,18.7c-3.9,0-7.8,0.1-11.6,0c-7-0.2-12.4-3.4-15.4-9.6c-1.5-3.3-3.7-4.7-6.8-5.3
		c-1.8-0.4-3.6-0.9-6-1.6c1.6,4.2,3.7,7.9,4.4,11.9c1.1,5.9,4.5,8.6,10,9.7c2.7,0.5,5.2,1.7,8,2.6c0,10.6,0,21,0,31.6
		c66.8-18,127.7,29.5,131.8,92.1c3.6,55.7-38.3,105-95.6,108.4c-31.3,1.9-58.3-8.8-79.9-31.5C184.6,327,175.8,299.6,178.5,268.4z
		 M92.6,110.2c-0.7,0.3-1.1,0.5-1.4,0.7c-28,17.5-40.3,53.2-29.1,84.6c11.3,31.7,43.3,51.9,76.2,47.4c28.9-4,49.2-19.7,59.1-47.1
		c9.8-26.8,3.9-51.2-14.4-73c-5-5.9-10.6-5.7-17.1-5c0,9.7,0.1,19.2,0,28.7c0,2.2,0.6,3.5,2.5,4.8c7.9,5,11.2,14.4,8.7,23.2
		c-2.5,8.7-10.5,14.8-19.8,15c-5.7,0.1-11.5,0-17.2,0c-13.2,0-22.1-8.8-22.1-22.1c0-15.2,0-30.5,0-45.7c0-1.3,0-2.6,0-4.3
		C108.4,118.1,99.9,116.4,92.6,110.2z M81.7,89.1c-6.2,2.5-6.2,2.5-12.8-0.8c-0.9-0.5-1.8-0.8-2.7-1.4c-2.2-1.5-3.7-0.9-5.4,1
		c-2.8,3.1-6,6-9,9.1c-2.5,2.6-6.6,5-7.1,7.9c-0.4,3.1,2.6,6.7,4.2,10.1c0.1,0.1,0.1,0.2,0.2,0.3c1.3,1.7,0.8,3.2-0.1,5.1
		c-3.6,7.2-8.3,14.3-10,22c-2,8.7-5.9,13.6-14.6,14.8c-2.1,0.3-2.5,1.5-2.4,3.4c0.1,4.4,0,8.7,0,13.1c0,3.7-1.2,8.4,0.6,11
		c1.8,2.5,6.6,2.9,10.1,4.2c0.2,0.1,0.6,0.1,0.7,0.2c1,1.1,2.4,2,2.9,3.3c3,7.8,4.7,16.3,9,23.3c4.4,7.3,5.2,13.4,0,20.1
		c-1.5,1.9-0.7,3.3,0.9,4.8c4.2,4.1,8.3,8.3,12.5,12.4c5.9,5.7,3.4,5.1,10.5,1.8c1.6-0.7,3.2-1.4,4.7-2.4c1.8-1.2,3.2-0.7,5.1,0.2
		c7.2,3.6,14.3,8.2,22,10c8.4,2,13.5,5.7,14.6,14.3c0.3,2.1,1.5,2.8,3.6,2.7c7.2-0.1,14.5-0.1,21.7,0c2.1,0,3.2-0.5,3.7-2.6
		c0.7-2.8,1.9-5.4,2.7-8.2c0.6-2.2,1.7-3,4-3.7c7.7-2.5,15.9-4.4,22.6-8.5c7.4-4.5,13.5-5.5,20.5-0.3c0.8,0.6,3.2,0.3,4-0.5
		c5.5-5.1,10.8-10.5,15.9-15.9c0.7-0.8,1-2.7,0.6-3.8c-1.1-2.9-2.6-5.7-4.1-8.4c-1-1.8-0.7-3,0.2-4.8c3.7-7.4,8.3-14.5,10.2-22.4
		c2-8.6,5.9-13.3,14.4-14.5c2.3-0.3,2.6-1.7,2.6-3.7c-0.1-4.2,0-8.5-0.1-12.7c-0.1-3.8,1.1-8.6-0.8-11.3c-1.7-2.5-6.6-2.9-10.1-4
		c-2.2-0.7-2.9-2-3.6-4.1c-3.2-8.9-6.8-17.6-10.4-26.4c-0.4-1-1.5-2.3-2.5-2.5c-4.7-1-9.5-1.6-14.6-2.4
		c35.3,46.1,13.7,101.6-20.3,123.1c-36.5,23-84,15.8-111.1-17.9c-13.5-16.8-19.9-36.1-18.5-57.5c1.8-28.4,15.3-50.4,38.5-66.1
		C83.6,96.5,82.7,92.8,81.7,89.1z M237.8,115.4c0-26.9,0-53.2,0-78.5c-15.8,2.6-31.5,6-47.3,7.5c-16,1.5-32.1,1.1-48.2,1.5
		c0,19.8,0,39.6,0,59.8C174.6,104.8,206.5,105.5,237.8,115.4z M237.3,273.2c28.9,0,56.6,0,85.4,0c-1.8-11.4-3.4-22.4-5.3-33.3
		c-0.2-0.9-1.8-2.2-2.9-2.3c-3.9-0.3-7.7-0.1-11.6-0.1c-18.9,0-37.7,0-56.6,0.1c-1.2,0-3.4,0.8-3.5,1.5
		C240.8,250.3,239.1,261.6,237.3,273.2z M238.2,285.7c0.3,11.7,1.7,23,4.5,34.2c0.2,0.7,1.8,1.5,2.8,1.5c5.6,0.1,11.2,0.1,16.9,0.1
		c17.1,0,34.2,0,51.4-0.1c1.2,0,3.3-0.8,3.5-1.6c2.8-11.1,4.2-22.5,4.6-34.2C293.8,285.7,266.2,285.7,238.2,285.7z M274,75.5
		C274,75.5,274,75.5,274,75.5c0-15.6,0-31.2,0-46.9c0-4.9-2.2-7.1-7.1-7.1c-3.2,0-6.5,0-9.7,0c-4.9,0.1-7.1,2.2-7.1,7.1
		c-0.1,5.6,0,11.2,0,16.9c0,25.5,0,51,0,76.5c0,5.4,2.1,7.5,7.5,7.5c2.9,0,5.7,0,8.6,0c5.9,0,7.9-2,7.9-7.9
		C274,106.2,274,90.9,274,75.5z M129.7,105.5c0-20.2,0-40,0-59.9c-6.5,0-12.8-0.2-19,0.1c-9.1,0.4-16.5,8-16.7,17.1
		c-0.2,8.5-0.2,17,0,25.5c0.3,9.2,7.6,16.7,16.7,17.2C117,105.7,123.2,105.5,129.7,105.5z M313.2,225.4
		c-4.9-12.6-10.3-24.4-21.7-32.2c-7.3-5-15.1-5.1-22.5-0.3c-11.9,7.6-17.3,19.7-22.3,32.5C269.1,225.4,290.9,225.4,313.2,225.4z
		 M246.8,333.6c3,8.5,6.6,16.5,12.2,23.2c3.1,3.7,6.8,7,10.8,9.7c6.3,4.2,13.3,4.2,19.9,0.4c12.7-7.5,18.4-20,23.6-33.2
		C290.9,333.6,269.1,333.6,246.8,333.6z M130,117.7c0,17.4-0.1,34.5,0.1,51.6c0,4.5,3.7,8,8.3,8.1c6.4,0.2,12.7,0.2,19.1,0
		c4.1-0.1,7.4-3,8.3-6.9c0.9-3.7-0.6-8.1-4.4-9.4c-7.1-2.3-7.9-7.1-7.5-13.4c0.5-6.3,0.1-12.7,0.1-19.1c0-3.6,0-7.2,0-10.9
		C145.9,117.7,138.2,117.7,130,117.7z M330,237.5c1.5,12.1,2.9,23.8,4.4,35.7c11.5,0,23.3,0,35.2,0c-0.7-12-3.7-23.1-9.1-33.6
		c-0.5-1-1.9-2.1-2.9-2.1C348.3,237.5,339.1,237.5,330,237.5z M334.4,285.7c-1.5,12.1-3,23.8-4.4,35.8c9.1,0,18.5,0,27.8-0.1
		c0.9,0,2.1-0.8,2.5-1.6c5.5-10.6,8.5-22,9.3-34.1C357.6,285.7,345.9,285.7,334.4,285.7z M190.4,285.7c0.7,12.2,3.8,23.5,9.3,34.1
		c0.4,0.8,1.7,1.6,2.5,1.6c9.3,0.1,18.7,0.1,27.8,0.1c-1.5-12-2.9-23.9-4.4-35.8C214,285.7,202.4,285.7,190.4,285.7z M351.7,225.4
		c-10.9-14.1-24-23.8-39.5-29.8c4.8,9.8,9.6,19.6,14.6,29.8C334.4,225.4,342.6,225.4,351.7,225.4z M247.7,363.4
		c-4.8-9.8-9.6-19.6-14.5-29.7c-7.6,0-15.9,0-24.8,0C219.1,347.7,232.2,357.3,247.7,363.4z M312.2,363.4c15.6-6,28.7-15.8,39.5-29.8
		c-9.1,0-17.4,0-24.8,0C321.8,343.8,317,353.6,312.2,363.4z M229.2,241.9c-10.2,10.2-20.1,20.3-30.1,30.3c-2.9-1.4-5.5-2.6-8.3-4
		c-0.1,2-0.2,3.5-0.4,5.1c12.1,0,23.7,0,35.3,0C226.9,262.8,228,252.6,229.2,241.9z M250.4,193.7c-5.1,1.7-9.4,3-13.5,4.6
		c-1.3,0.5-2.6,1.8-3.1,3.1c-3.2,7.4-6.3,14.9-9.3,22.4c-0.4,0.9-0.9,2-0.6,2.7c1.9,4.1,4,8.1,6.4,12.9
		C234.1,222.6,239.8,207.6,250.4,193.7z M297.9,62.1c-3.9-1-7.8-1.9-11.7-2.8c0,11,0,21.5,0,32.4c4.1-1,7.9-2,11.7-3
		C297.9,79.8,297.9,71.3,297.9,62.1z"/>
	<path d="M22.2,309.3c0-4,0-7.7,0-11.6c27.9,0,55.5,0,83.5,0c0,3.7,0,7.5,0,11.6C78,309.3,50.2,309.3,22.2,309.3z"/>
	<path d="M22.2,321.7c27.8,0,55.5,0,83.5,0c0,3.8,0,7.6,0,11.6c-27.7,0-55.5,0-83.5,0C22.2,329.5,22.2,325.8,22.2,321.7z"/>
	<path d="M22.2,357.2c0-3.9,0-7.6,0-11.5c3.8,0,7.5,0,11.5,0c0,3.7,0,7.5,0,11.5C30.1,357.2,26.3,357.2,22.2,357.2z"/>
	<path d="M46.1,357.2c0-3.9,0-7.6,0-11.5c3.8,0,7.5,0,11.5,0c0,3.7,0,7.5,0,11.5C54,357.2,50.3,357.2,46.1,357.2z"/>
	<path d="M70.2,345.7c3.9,0,7.5,0,11.5,0c0,3.8,0,7.6,0,11.6c-3.7,0-7.5,0-11.5,0C70.2,353.5,70.2,349.8,70.2,345.7z"/>
	<path d="M94.2,357.3c0-3.9,0-7.6,0-11.5c3.8,0,7.6,0,11.6,0c0,3.8,0,7.5,0,11.5C102,357.3,98.3,357.3,94.2,357.3z"/>
	<path d="M92,218.3c2.8-3.5,5.1-6.4,7.6-9.4c3,1.9,5.9,3.8,9,5.8c-1.7,3.4-3.2,6.6-5.2,10.6C99.7,223.1,96.1,220.9,92,218.3z"/>
	<path d="M129,219.7c0,4,0,7.7,0,12c-4.4-0.6-8.6-1.1-13.1-1.7c1-4.1,1.9-7.8,2.8-11.7C122.2,218.8,125.5,219.3,129,219.7z"/>
	<path d="M71.2,184.7c-0.5-4.5-1-8.7-1.5-13c4.3,0,8.1,0,12.1,0c0.1,1.4,0.2,2.7,0.3,4.1c0.6,6.4,0.7,6.4-5.7,7.8
		C75,183.9,73.5,184.2,71.2,184.7z"/>
	<path d="M86.5,192.3c1.9,3.1,3.6,5.8,5.6,9c-2.9,2.3-5.9,4.7-9.3,7.5c-2.4-3.9-4.7-7.5-7.1-11.3C79.5,195.6,82.8,194,86.5,192.3z"
		/>
</g>
</svg>
