<?xml version="1.0" encoding="utf-8"?>
<!-- Generator: Adobe Illustrator 21.0.0, SVG Export Plug-In . SVG Version: 6.00 Build 0)  -->
<svg version="1.1" id="Layer_1" xmlns="http://www.w3.org/2000/svg" xmlns:xlink="http://www.w3.org/1999/xlink" x="0px" y="0px"
	 viewBox="0 0 392 389" style="enable-background:new 0 0 392 389;" xml:space="preserve">
<g>
	<path d="M244.2,285c0,16.2,0,31.9,0,48c4.5,0,8.9,0,13.2,0c11.2,0,22.5,0,33.7,0c14.6,0.1,24.8,10.2,24.9,24.8c0,5.1,0,10.2,0,15.4
		c0,5.9-2,7.8-7.9,7.8c-33.6,0-67.2,0-100.9,0c-40.9,0-81.7,0-122.6,0c-6.9,0-8.6-1.7-8.6-8.6c0-5,0-10,0-15
		c0.1-14,10.5-24.3,24.5-24.3c15.6-0.1,31.2,0,47.2,0c0-15.9,0-31.7,0-48c-1.4,0-2.8,0-4.3,0c-35.7,0-71.5,0-107.2,0
		c-16.3,0-26.2-9.9-26.2-26.1c0-74.5,0-149,0-223.5C10,18.8,19.8,9,36.3,9c106.6,0,213.2,0,319.9,0c16,0,25.9,9.9,25.9,26
		c0,74.6,0,149.2,0,223.9c0,16.3-9.9,26.1-26.2,26.1c-34.9,0-69.7,0-104.6,0C249,285,246.7,285,244.2,285z M22.2,236.7
		c116.1,0,231.8,0,347.5,0c0-60,0-119.8,0-179.6c-116,0-231.7,0-347.5,0C22.2,117.1,22.2,176.8,22.2,236.7z M370,249.3
		c-116.2,0-232,0-348,0c0,3.1,0,6,0,8.8c0,10.7,4.2,14.9,15,14.9c91.2,0,182.5,0,273.7,0c15.5,0,31,0,46.5,0c7,0,12.3-4.6,12.7-11.1
		C370.2,257.7,370,253.6,370,249.3z M22,44.7c116.2,0,232,0,348,0c0-3.2,0-6.2,0-9.2c0-10.1-4.5-14.5-14.7-14.5
		c-81.6,0-163.2,0-244.8,0c-25.2,0-50.5,0-75.7,0c-7.1,0-12.3,4.5-12.7,11.1C21.9,36.2,22,40.4,22,44.7z M88,368.7
		c72.2,0,144,0,216,0c0-3.2,0-6.2,0-9.2c0-10.2-4.4-14.5-14.6-14.5c-55.1,0-110.2,0-165.3,0c-8,0-16-0.1-24,0
		c-6.8,0.1-11.8,5-12,11.8C87.9,360.7,88,364.6,88,368.7z M231.7,332.9c0-16.1,0-31.9,0-47.7c-24,0-47.7,0-71.5,0
		c0,16,0,31.7,0,47.7C184.1,332.9,207.8,332.9,231.7,332.9z"/>
	<path d="M117.6,213c-19.2,0-38.5,0-57.7,0c-5.9,0-7.9-2-7.9-7.8c0-38.7,0-77.5,0-116.2c0-6.1,2-8,8.1-8c38.6,0,77.2,0,115.8,0
		c6.1,0,8.1,1.9,8.1,8.1c0,38.6,0,77.2,0,115.8c0,6.3-1.9,8.2-8.3,8.2C156.3,213,137,213,117.6,213C117.6,213,117.6,213,117.6,213z
		 M148,200.8c8.2,0,15.9,0,23.8,0c0-20.5,0-40.8,0-60.6c-4.4,0.2-8.7,1.2-12.7,0.4c-4-0.7-7.6-3.2-11.7-5c-3.8,3.3-8.7,5.5-14.5,5.5
		c-5.8,0-10.6-2.3-14.8-5.9c-11,8.1-18.4,8.1-29.5,0.5c-4.2,1.8-7.9,4.3-11.9,5c-4,0.7-8.3-0.3-12.5-0.5c0,19.9,0,40.3,0,60.6
		c8,0,15.8,0,23.8,0c0-13.5,0-26.7,0-40c0-5.7,2-7.7,7.6-7.7c15,0,30,0,45,0c5.3,0,7.4,2.1,7.4,7.6c0,11.1,0,22.2,0,33.4
		C148,196.2,148,198.4,148,200.8z M111.8,200.8c0-12,0-23.8,0-35.5c-4,0-7.8,0-11.6,0c0,12,0,23.7,0,35.5
		C104,200.8,107.7,200.8,111.8,200.8z M124.2,200.8c4.1,0,7.8,0,11.6,0c0-12,0-23.7,0-35.5c-4,0-7.8,0-11.6,0
		C124.2,177.2,124.2,188.9,124.2,200.8z M81.7,110.8c0-6.1,0-11.8,0-17.5c-6,0-11.8,0-17.6,0c0,6,0,11.7,0,17.5
		C70,110.8,75.7,110.8,81.7,110.8z M111.7,110.9c0-6.1,0-11.9,0-17.7c-6,0-11.6,0-17.5,0c0,6,0,11.7,0,17.7
		C100.1,110.9,105.8,110.9,111.7,110.9z M141.7,110.8c0-6.1,0-11.8,0-17.5c-6,0-11.8,0-17.6,0c0,6,0,11.7,0,17.5
		C130.1,110.8,135.7,110.8,141.7,110.8z M171.7,110.8c0-6.1,0-11.9,0-17.5c-6.1,0-11.8,0-17.5,0c0,6,0,11.7,0,17.5
		C160.1,110.8,165.8,110.8,171.7,110.8z M64.9,123.2c1.7,3.9,4.6,5.8,8.2,5.7c3.6-0.1,6.6-1.7,7.9-5.7
		C75.6,123.2,70.4,123.2,64.9,123.2z M94.8,123.1c2,4.1,5,6,8.9,5.7c3.4-0.3,6.3-1.9,7.3-5.7C105.5,123.1,100.4,123.1,94.8,123.1z
		 M124.8,123.2c1.9,4,4.8,5.8,8.6,5.7c3.5-0.2,6.4-1.8,7.8-5.7C135.6,123.2,130.4,123.2,124.8,123.2z M154.8,123.1
		c1.9,4.1,4.9,6,8.7,5.7c3.4-0.2,6.3-1.9,7.5-5.7C165.6,123.1,160.4,123.1,154.8,123.1z"/>
	<path d="M276.9,195c-12.4,0-24.7,0-37.1,0c-5.8,0-7.8-2-7.8-7.9c0-8.9,0-17.7,0-26.6c0-5.4,2.1-7.5,7.4-7.5c25,0,49.9,0,74.9,0
		c5.6,0,7.7,2.1,7.7,7.7c0,8.9,0,17.7,0,26.6c0,5.6-2.1,7.7-7.6,7.7C301.9,195,289.4,195,276.9,195z M244.2,182.7
		c22.1,0,43.8,0,65.5,0c0-6,0-11.8,0-17.6c-22,0-43.7,0-65.5,0C244.2,171.1,244.2,176.8,244.2,182.7z"/>
	<path d="M276.6,105c-12.2,0-24.5,0-36.7,0c-5.1,0-7.8-2.1-7.9-5.9c-0.1-3.8,2.7-6.1,7.7-6.1c24.8,0,49.7,0,74.5,0.1
		c2.1,0,4.8,0.7,6,2.1c1.2,1.3,1.5,4.2,1.1,6.1c-0.6,2.9-3.3,3.8-6.2,3.8C302.3,105,289.5,105,276.6,105z"/>
	<path d="M277.3,123c12.4,0,24.7,0,37.1,0c4.9,0,7.7,2.3,7.6,6.2c-0.1,3.7-2.8,5.8-7.6,5.8c-25,0-49.9,0-74.9,0
		c-4.4,0-7-1.9-7.4-5.3c-0.5-3.9,2.4-6.7,7-6.7C251.8,123,264.6,123,277.3,123z"/>
</g>
</svg>
