<?xml version="1.0" encoding="utf-8"?>
<!-- Generator: Adobe Illustrator 21.0.0, SVG Export Plug-In . SVG Version: 6.00 Build 0)  -->
<svg version="1.1" id="Layer_1" xmlns="http://www.w3.org/2000/svg" xmlns:xlink="http://www.w3.org/1999/xlink" x="0px" y="0px"
	 viewBox="0 0 404 403" style="enable-background:new 0 0 404 403;" xml:space="preserve">
<g>
	<path d="M278.5,396c-2.9-1.4-6.1-2.4-8.7-4.2c-5.8-4.1-8.5-10-8.5-17.1c0-9.7,0-19.5,0-29.3c-2.9-0.4-5.5-0.6-7.9-1.2
		c-8.8-2.3-15-9.9-15.5-19c-0.2-4.1-0.1-8.2-0.1-12.4c0.1-7.3,3.4-12.8,9.1-17.2c1.1-0.8,2.1-2.5,2.2-3.7
		c0.6-27.8,13.2-48,37.8-60.9c1-0.5,2.1-2.2,2.1-3.3c0.1-32.6,0.2-65.2,0-97.9c-0.1-16.1-14-29.2-30.2-29.3
		c-16.3-0.1-30.2,13.2-30.4,29.4c-0.3,19.7-0.1,39.5-0.1,59.2c0,29,0.1,58,0,87c-0.1,40.2-27.1,73.7-66.4,81.8
		c-20.4,4.2-39.7,0.9-57.8-9.4c-4.5-2.5-5.8-5.4-4-8.6c1.8-3.2,5-3.6,9.4-1.2c19.7,10.9,40.2,12.9,61.4,4.9
		c27.9-10.5,46.1-37,46.2-67c0.1-48.4,0-96.7,0-145.1c0-20.3,13-36.7,32.6-41.3c24.8-5.9,50.2,13.2,50.6,38.7
		c0.4,30.7,0.1,61.5,0.2,92.2c0,1.5,0,2.9,0,4c10.1,0,19.9,0,30,0c0-0.7,0-1.9,0-3.1c0-29.9-0.1-59.7,0-89.6
		c0.1-19-6.1-35.5-18.6-49.6c-3.1-3.5-3.3-6.8-0.5-9.2c2.6-2.2,5.9-1.7,8.8,1.6c13.6,15.2,21.2,33,21.4,53.4c0.3,32.5,0.1,65,0,97.5
		c0,2.7,0.8,4.1,3.3,5.4c23.4,12.4,35.7,31.9,36.7,58.4c0.1,2.8,0.6,4.7,3.2,6.5c4.5,3.1,7.5,7.6,7.9,13.1
		c0.5,5.7,0.8,11.5,0.1,17.2c-1.3,10.7-9.7,17.8-20.5,18.2c-0.7,0-1.5,0.1-2.8,0.2c0,2,0,3.9,0,5.9c0,7.5,0,15,0,22.5
		c0,11.4-4.9,18.1-15.8,21.8c-0.3,0.1-0.6,0.4-0.9,0.6c-2.8,0-5.5,0-8.3,0c-0.3-0.2-0.5-0.5-0.9-0.6c-10.8-3.7-15.7-10.5-15.7-21.9
		c0-8.1,0-16.2,0-24.4c0-1.3-0.1-2.6-0.2-3.9c-8.5,0-16.4,0-24.9,0c0,1.5,0,2.8,0,4.1c0,8.4,0,16.7,0,25.1c0,7.5-2.9,13.7-9.2,17.9
		c-2.3,1.6-5.1,2.5-7.7,3.7C283.5,396,281,396,278.5,396z M370.3,291.9c-0.5-21.3-9.2-37.6-27.1-48.2c-19.4-11.4-39.2-10.7-58.1,1.5
		c-16.6,10.8-24.4,26.7-24.7,46.7C297.1,291.9,333.4,291.9,370.3,291.9z M315.3,333.8c18.5,0,37,0,55.5,0c7,0,10.9-3.9,11.1-10.9
		c0.1-2.6,0-5.2,0-7.9c-0.1-7.8-3.7-11.6-11.4-11.6c-36.6-0.1-73.2-0.1-109.9-0.1c-0.6,0-1.3,0-1.9,0.1c-5.8,0.5-9.4,4.1-9.6,9.9
		c-0.1,2.9-0.1,5.7,0,8.6c0.1,8.3,3.6,11.8,11.9,11.9C279,333.8,297.1,333.8,315.3,333.8z M272.7,345.3c0,10.5-0.2,20.9,0.1,31.2
		c0.2,4.9,4.7,8.4,9.5,8.3c4.8-0.1,8.8-3.7,9.1-8.7c0.3-5.2,0.2-10.5,0.2-15.7c0-5,0-9.9,0-15C285,345.3,279,345.3,272.7,345.3z
		 M339.3,345.2c0,10.6-0.2,20.9,0.1,31.2c0.1,4.8,4.8,8.4,9.5,8.2c4.8-0.1,8.8-3.8,9.1-8.7c0.2-3,0.1-6,0.1-9c0-7.2,0-14.4,0-21.8
		C351.7,345.2,345.8,345.2,339.3,345.2z"/>
	<path d="M103.7,182.7c-10.1,0-19.8,0-30,0c0,0.6,0,2,0,3.3c0,29.9,0.1,59.7,0,89.6c-0.1,18.1,5.6,34.1,17.2,47.9
		c3,3.6,3,6.9,0.2,9.2c-2.6,2.1-5.9,1.5-8.7-1.9c-12.5-14.8-19.6-32-19.8-51.4c-0.3-32.4-0.1-64.7,0-97.1c0-3.2-1-4.6-3.8-6.2
		c-23.1-12.5-35.3-32.1-36.1-58.4c-0.1-2.7-0.7-4.5-3.1-6.1c-4.6-3.2-7.6-7.8-8-13.4c-0.4-5.6-0.8-11.3-0.1-16.8
		c1.3-10.7,9.6-17.8,20.4-18.3c0.8,0,1.7-0.1,2.9-0.2c0-3.2,0-6.3,0-9.4c0-7.1-0.1-14.3,0-21.4C35,20.8,44.3,12,55.4,12
		c11.1,0.1,20.3,9,20.5,20.1c0.2,8.7,0.1,17.5,0.1,26.2c0,1.3,0,2.7,0,4.3c8.4,0,16.5,0,24.9,0c0.1-1.3,0.2-2.6,0.2-4
		c0-8.4-0.1-16.7,0-25.1c0.2-12.6,9.1-21.7,21-21.6c11.6,0.1,20.4,9.4,20.5,21.8c0.1,8.4,0,16.7,0,25.1c0,1.2,0.1,2.4,0.2,3.8
		c2.1,0.2,3.9,0.1,5.7,0.5c9.9,1.8,17.1,9.9,17.5,20.1c0.2,3.5,0,7,0.1,10.5c0.1,8-3.1,14.2-9.7,18.8c-0.9,0.6-1.7,2.1-1.7,3.3
		c-0.6,27.9-13.3,48.2-37.9,61.3c-1.1,0.6-1.9,2.7-1.9,4.1c-0.1,31.5-0.1,63-0.1,94.5c0,0.4,0,0.8,0,1.1
		c0.3,17.2,13.8,30.6,30.5,30.5c16.8-0.1,30.2-13.6,30.3-30.8c0.1-48.4-0.1-96.7,0.1-145.1c0.1-28.9,12-52.3,35.9-68.5
		c27.6-18.7,56.8-19.8,86.5-4.7c1.6,0.8,3.6,2.5,4,4.1c0.4,1.7-0.4,4.2-1.6,5.7c-1.8,2.2-4.3,1.6-6.9,0.6c-7.4-2.9-14.7-6.4-22.4-8
		c-39.2-8.1-79.7,21.4-83.5,61.2c-1.3,13.3-0.8,26.7-0.8,40.1c-0.1,38.1,0,76.2-0.1,114.4c0,20.3-13.1,36.6-32.7,41.2
		c-24.8,5.9-50.1-13.3-50.5-38.9c-0.4-30.7-0.1-61.5-0.1-92.2C103.7,185,103.7,183.6,103.7,182.7z M33.7,116.1
		c0.4,21.1,9,37.4,26.8,48c19.6,11.7,39.7,11,58.7-1.5c16.4-10.8,24.1-26.6,24.4-46.5C106.9,116.1,70.6,116.1,33.7,116.1z
		 M88.4,74.2c-18.5,0-37,0-55.5,0c-6.5,0-10.5,3.9-10.7,10.4c-0.1,2.6,0,5.2,0,7.9c0,8.3,3.6,12,11.8,12
		c36.4,0.1,72.7,0.1,109.1,0.1c1,0,2,0,3-0.2c5.2-0.6,8.6-4.2,8.9-9.4c0.2-3,0.1-6,0.1-9c-0.1-8.3-3.6-11.9-11.9-11.9
		C124.9,74.2,106.6,74.2,88.4,74.2z M112.5,62.7c6.4,0,12.5,0,18.8,0c0-10.5,0.3-20.9-0.1-31.2c-0.2-4.9-4.8-8.4-9.5-8.2
		c-4.8,0.1-9,3.7-9.1,8.7C112.4,42.1,112.5,52.2,112.5,62.7z M64.7,62.7c0-10.6,0.2-21.1-0.1-31.5c-0.2-4.6-4.8-8-9.4-7.9
		c-4.5,0.1-8.9,3.5-9,7.9C45.8,41.6,46,52.1,46,62.7C52.3,62.7,58.4,62.7,64.7,62.7z"/>
	<path d="M300.5,272.4c1.1-1.4,2.1-3.5,3.6-4.1c1.7-0.6,4.3-0.5,5.9,0.5c5.6,3.4,5.4,3.6,10.7-0.1c2.6-1.8,5.3-1.7,7.5,0.6
		c2.1,2.1,2.1,4.7,0.4,7.2c-5.6,8.2-20.8,8.2-26.4,0C301.5,275.4,301.2,274.2,300.5,272.4z"/>
	<path d="M354.2,269.8c0,1.2,0.1,2.5,0,3.7c-0.3,3.2-2.2,5.1-5.3,5.2c-3.1,0.2-5.3-1.7-5.7-4.7c-0.4-2.9-0.4-6,0-8.9
		c0.4-3.1,2.6-4.8,5.8-4.7c2.9,0.2,4.8,1.9,5.2,4.9C354.4,266.8,354.2,268.3,354.2,269.8C354.2,269.8,354.2,269.8,354.2,269.8z"/>
	<path d="M287.6,269.6c0,1.4,0.1,2.7,0,4.1c-0.3,3.1-2.2,4.8-5.1,5c-2.9,0.3-5.3-1.3-5.7-4.2c-0.5-3.2-0.5-6.5-0.1-9.6
		c0.4-3.1,2.8-4.8,5.9-4.5c2.9,0.3,4.8,2.1,5,5.1C287.7,266.9,287.6,268.3,287.6,269.6z"/>
	<path d="M88.5,147.7c-4.8-0.3-9-1.9-12.4-5.4c-2.4-2.5-2.5-5.9-0.4-8.1c2.1-2.3,5.2-2.3,8.1-0.1c4,3.1,5.6,3.1,9.5,0.1
		c3-2.3,6.2-2.2,8.3,0.2c2,2.4,1.8,5.4-0.7,8C97.5,145.9,93.3,147.4,88.5,147.7z"/>
	<path d="M49.7,134.3c0-1,0-2,0-3c0.2-3.5,2.3-5.9,5.4-6c3.1-0.1,5.5,2.2,5.8,5.6c0.2,2.4,0.2,4.7,0,7.1c-0.2,3.4-2.6,5.8-5.6,5.8
		c-3,0-5.4-2.4-5.6-5.8C49.7,136.8,49.7,135.5,49.7,134.3z"/>
	<path d="M116.4,134.2c0-1,0-2,0-3c0.2-3.5,2.4-5.8,5.5-5.9c3,0,5.4,2.3,5.7,5.7c0.2,2.3,0.2,4.7,0,7.1c-0.2,3.4-2.7,5.8-5.7,5.7
		c-3.1-0.1-5.3-2.4-5.4-5.9C116.3,136.7,116.4,135.4,116.4,134.2z"/>
</g>
</svg>
