<?xml version="1.0" encoding="utf-8"?>
<!-- Generator: Adobe Illustrator 21.0.0, SVG Export Plug-In . SVG Version: 6.00 Build 0)  -->
<svg version="1.1" id="_x33_0" xmlns="http://www.w3.org/2000/svg" xmlns:xlink="http://www.w3.org/1999/xlink" x="0px" y="0px"
	 viewBox="0 0 512 512" style="enable-background:new 0 0 512 512;" xml:space="preserve">
<g>
	<path d="M136,288h16v16h-16V288z"/>
	<path d="M168,288h16v16h-16V288z"/>
	<path d="M104,288h16v16h-16V288z"/>
	<path d="M88,40h112v16H88V40z"/>
	<path d="M88,72h112v16H88V72z"/>
	<path d="M88,104h112v16H88V104z"/>
	<path d="M88,136h32v16H88V136z"/>
	<path d="M136,136h64v16h-64V136z"/>
	<path d="M88,168h112v16H88V168z"/>
	<path d="M24,424h16v16H24V424z"/>
	<path d="M56,424h16v16H56V424z"/>
	<path d="M88,424h16v16H88V424z"/>
	<circle cx="288" cy="112" r="8"/>
	<path d="M163.6,404.4c-2,0-4.1,0.8-5.7,2.3c-3.1,3.1-3.1,8.2,0,11.3c1.6,1.6,3.6,2.3,5.7,2.3s4.1-0.8,5.7-2.3
		c3.1-3.1,3.1-8.2,0-11.3C167.6,405.2,165.6,404.4,163.6,404.4z"/>
	<circle cx="288" cy="464" r="8"/>
	<path d="M412.4,404.4c-2,0-4.1,0.8-5.7,2.3c-3.1,3.1-3.1,8.2,0,11.3c1.6,1.6,3.6,2.3,5.7,2.3s4.1-0.8,5.7-2.3
		c3.1-3.1,3.1-8.2,0-11.3C416.5,405.2,414.5,404.4,412.4,404.4z"/>
	<circle cx="464" cy="288" r="8"/>
	<path d="M412.4,155.6c-2,0-4.1,0.8-5.7,2.3c-3.1,3.1-3.1,8.2,0,11.3c1.6,1.6,3.6,2.3,5.7,2.3s4.1-0.8,5.7-2.3
		c3.1-3.1,3.1-8.2,0-11.3C416.5,156.3,414.5,155.6,412.4,155.6z"/>
	<path d="M479.3,344H504V232h-24.7c-9.3,0-17.7-5.6-21.4-14.6c-3.6-8.6-1.6-18.5,4.9-25.1l17.5-17.5l-79.2-79.2l-17.5,17.5
		c-6.6,6.6-16.4,8.5-25.5,4.8c-8.6-3.6-14.2-11.9-14.2-21.2V72h-96V24c0-8.8-7.2-16-16-16H56c-8.8,0-16,7.2-16,16v121.3l-23.8,13.4
		c-5,2.8-8.2,8.2-8.2,13.9V328c0,8.8,7.2,16,16,16h72.7c9.3,0,17.7,5.6,21.4,14.6c0.2,0.5,0.3,0.9,0.5,1.4H24v16h94.2
		c-1.1,2.8-2.8,5.4-5,7.7l-8.3,8.3H24v16h78.5l72.3,72.3l17.5-17.5c6.6-6.6,16.4-8.5,25.5-4.8c8.6,3.6,14.2,11.9,14.2,21.2V504h112
		v-24.7c0-9.3,5.6-17.7,14.6-21.4c8.6-3.6,18.5-1.6,25.1,4.9l17.5,17.5l79.2-79.2l-17.5-17.5c-6.6-6.6-8.5-16.4-4.8-25.5
		C461.6,349.6,470,344,479.3,344L479.3,344z M264,181.7v135.9l-90.9-84.8L264,181.7z M248,172.3v-8.6l7.7,4.3L248,172.3z M280,328
		V184.3c2.7-0.2,5.3-0.3,8-0.3c57.3,0,104,46.7,104,104s-46.7,104-104,104c-35.5,0-68.6-18.5-87.6-48H264
		C272.8,344,280,336.8,280,328z M181.9,344c20.7,39,61.7,64,106.1,64c66.2,0,120-53.8,120-120s-53.8-120-120-120
		c-2.9,0-5.8,0.1-8.6,0.3c-1.1-4-3.8-7.5-7.5-9.6l-8-4.5c7.9-1.4,16-2.2,24.2-2.2c75,0,136,61,136,136s-61,136-136,136
		c-53.7,0-102.1-31.7-123.9-80H181.9z M232,24v157.3l-71.5,40.2c-9.7-6.9-23.4-6.9-33.1,0L56,181.3V24H232z M114.9,232.8L24,317.6
		V181.7L114.9,232.8z M40,172.3l-7.7-4.3l7.7-4.3V172.3z M36.3,328l99.3-92.7c4.6-4.3,12.2-4.3,16.8,0l99.3,92.7H36.3z M451.5,395
		l6.2,6.2l-56.6,56.6l-6.2-6.2c-11.2-11.2-27.9-14.5-42.9-8.3c-14.6,6-24.1,20.2-24.1,36v8.7h-80v-8.7c0-15.8-9.5-30-24.5-36.2
		c-14.6-6.1-31.3-2.8-42.5,8.4l-6.2,6.2l-56.6-56.6l6.2-6.2c11.2-11.2,14.5-27.9,8.3-42.9c-1.2-2.9-2.8-5.6-4.6-8.1h18.7
		c22.9,57.6,78.8,96,141.2,96c83.8,0,152-68.2,152-152s-68.2-152-152-152c-13.6,0-27,1.9-40,5.4V88h80v8.7c0,15.8,9.5,30,24.5,36.2
		c14.6,6.1,31.3,2.8,42.5-8.4l6.2-6.2l56.6,56.6l-6.2,6.2c-11.2,11.2-14.5,27.9-8.3,42.9c6,14.6,20.2,24.1,36,24.1h8.7v80h-8.7
		c-15.8,0-30,9.5-36.2,24.5C437.1,367.1,440.4,383.8,451.5,395L451.5,395z"/>
</g>
</svg>
