<?xml version="1.0" encoding="utf-8"?>
<!-- Generator: Adobe Illustrator 21.0.0, SVG Export Plug-In . SVG Version: 6.00 Build 0)  -->
<svg version="1.1" id="Layer_1" xmlns="http://www.w3.org/2000/svg" xmlns:xlink="http://www.w3.org/1999/xlink" x="0px" y="0px"
	 viewBox="0 0 394 387" style="enable-background:new 0 0 394 387;" xml:space="preserve">
<g>
	<path d="M157.2,270.2c-5.2,0-10,0-15.2,0c0.7,7.7,1,15.3,2.1,22.8c2.7,19.7,0.5,38.3-10.1,55.6c-0.7,1.2-0.8,2.8-0.8,4.3
		c-0.1,8.2,0,16.5,0,25c-28,0-55.8,0-84,0c0-8.4,0.1-16.7-0.1-25c0-1.5-0.3-3.4-1.1-4.5c-8.9-11.9-12.6-25.6-14.6-40
		c-1.8-12.6-4.1-25.1-6.3-38c-4.5,0-8.9,0-13.7,0c0-72.1,0-143.9,0-216.1c47.8,0,95.6,0,143.7,0c0-5.7,0-11.1,0-16.4
		C157.2,18.9,170,6,188.6,6c51,0,102,0,153,0c18.8,0,31.6,12.7,31.6,31.5c0,64.2,0,128.5,0,192.7c0,2.9,0.6,5.1,2.6,7.4
		c6.2,7.3,9.2,15.9,9.4,25.5c0.2,7.4-3,13.1-9.6,16.6c-2.1,1.1-2.4,2.4-2.4,4.4c0,20.7,0,41.5,0,62.2c0,19-12.8,31.7-31.8,31.7
		c-50.6,0-101.2,0-151.9,0c-19.8,0-32.4-12.5-32.4-32.2c0-23.7,0-47.5,0-71.2C157.2,273.2,157.2,271.8,157.2,270.2z M193.2,259.8
		c0-0.6,0-1.9,0-3.3c0-58.7,0-117.5,0-176.2c0-9.7-4.5-14.3-14.2-14.3c-49.9,0-99.7,0-149.6,0c-1.3,0-2.7,0-4,0
		c0,64.2,0,128,0,191.7c25.2,0,50.1,0,75.3,0c0.4-12,4.8-20.8,17.3-23.6c-11.9-18.7-11.7-35,0.5-48.3c11.3-12.3,28.9-15.4,43.5-7.6
		c14.4,7.6,22,24.3,18.2,40c-2,8-6.1,14.7-12.6,19.9c-8.3,6.6-17.9,8.9-28.4,7.5c0.7,4.2,1.3,8.1,1.9,12.2c1.2,0.1,2.5,0.2,3.7,0.2
		c10.2,0,20.5-0.2,30.7,0.1C181.3,258.3,187,259.2,193.2,259.8z M203.4,66.2c0.6,6,1.7,11.8,1.7,17.5c0.1,61,0.1,122,0,183
		c0,9.1,1.6,18.5-3,27.1c45.2,0,90,0,134.8,0c0-4,0-7.7,0-11.7c-2.4,0-4.6-0.2-6.8,0c-10.1,1-17-3.3-22.3-11.9
		c-7.7-12.4-16.1-24.4-24.4-36.4c-3.7-5.3-8.5-9.6-14.3-13.2c-7.1,20.4-2.3,41.1-4.3,61.3c-11.9,0-23.6,0-35.6,0c0-1.4,0-2.6,0-3.9
		c0-30.4,0-60.7,0-91.1c0-10.4,4.2-18.2,13.7-22.6c9.7-4.5,18.5-2.4,26.3,4.7c6.8,6.1,13.5,12.3,20.3,18.4
		c8.7,7.9,17.4,15.8,26.1,23.7c6.1,5.5,13.1,9.3,21.5,10.3c0-51.9,0-103.5,0-155.2C292,66.2,247.3,66.2,203.4,66.2z M349.2,282.2
		c0,3.3,0,6.3,0,9.3c0,10.2-4.4,14.5-14.6,14.5c-53.6,0-107.2,0-160.8,0c-1.4,0-2.9,0-4.5,0c0,13.8,0,27,0,40.3
		c0,12.4,7.4,19.7,19.9,19.7c50.7,0,101.5,0,152.2,0c12.5,0,19.9-7.3,19.9-19.7c0-20.1,0-40.2,0-60.4c0-1.2-0.1-2.4-0.2-3.8
		C357.1,282.2,353.4,282.2,349.2,282.2z M169.3,54c2,0,3.5,0,5,0c53.4,0,106.7,0,160.1,0c10.7,0,14.9,4.2,14.9,15
		c0,49.6,0,99.2,0,148.8c0,1.5,0,3,0,4.3c4.1,1.2,7.9,2.3,11.8,3.5c0.1-1,0.2-1.8,0.2-2.7c0-62,0-123.9,0-185.9
		c0-11.7-7.6-19-19.4-19.1c-14.4,0-28.7,0-43.1,0c-36.9,0-73.7,0-110.6,0c-9.9,0-17.9,6.5-18.7,15.8C168.9,40.4,169.3,47,169.3,54z
		 M39.3,270.2c2.5,15,5.1,29.6,7.4,44.2c1.4,9.3,4.8,17.8,10.4,25.4c0.8,1.1,2.7,2.2,4.1,2.2c20,0.1,40,0.1,60,0.1
		c2,0,3.1-0.6,4.1-2.4c6.3-11.5,8.9-23.8,7.7-36.8c-0.9-10.2-1.8-20.4-2.8-30.6c-0.6-6.7-1.2-13.4-2-20.1c-0.5-3.7-3.5-6-7-6.1
		c-3.6-0.1-6.6,2.3-7.5,6.1c-0.3,1.5-0.5,2.9-0.7,4.4c-1.7,15.8-6.9,30.1-17.8,42c-6.5,7.1-14,9.2-21.8,6.2c-7.8-3-12-9.7-12.1-19.2
		c0-5.1,0-10.1,0-15.4C53.8,270.2,46.8,270.2,39.3,270.2z M241.2,198c0.9,0.2,1.6,0.5,2.3,0.6c23.6,2.9,41.4,14.8,54.3,34.5
		c7.2,11,14.6,21.8,21.7,32.8c1.9,2.9,4.2,4.2,7.7,4.2c12.6-0.1,25.2,0,37.8,0c6.3,0,8.5-2.6,7.9-8.9c-1.5-15-14-26.8-29.1-27.1
		c-14.7-0.2-27.2-5.3-37.9-15.3c-9.1-8.5-18.4-16.8-27.7-25.2c-6-5.5-12-11-18-16.4c-3.5-3.2-7.7-4.2-12.2-2.3
		c-4.1,1.8-6.6,5-6.9,9.5C241,188.9,241.2,193.4,241.2,198z M169.2,210c0-13.1-10.8-23.9-23.8-23.9c-13.3,0-24.1,10.7-24.1,24
		c-0.1,13.2,10.9,24,24.2,23.9C158.5,233.9,169.2,223,169.2,210z M241.5,210.1c0,20.5,0,40.1,0,59.8c4,0,7.7,0,11.6,0
		c0.9-18.5-2.3-37.2,6-55.4C252.9,212.9,247.4,211.5,241.5,210.1z M61.4,365.8c20.1,0,39.8,0,59.5,0c0-4.1,0-7.8,0-11.5
		c-20,0-39.7,0-59.5,0C61.4,358.1,61.4,361.8,61.4,365.8z M169.3,294c4.7,0,9,0.3,13.3-0.1c5.6-0.4,10.1-5.4,10.5-10.9
		c0.4-5.6-3.1-11.2-8.8-12.3c-4.9-0.9-10-0.6-15.1-0.8C169.3,278.2,169.3,285.8,169.3,294z M73.2,270.2c0,6-0.4,11.8,0.2,17.5
		c0.2,2,2.2,4.8,4,5.6c1.8,0.8,5.3,0.4,6.8-1c6.6-5.9,11-13.4,13.8-22.1C89.7,270.2,81.7,270.2,73.2,270.2z"/>
	<path d="M109,161.9c-24,0-47.7,0-71.6,0c0-27.9,0-55.6,0-83.6c23.7,0,47.5,0,71.6,0C109,106,109,133.8,109,161.9z M96.9,149.9
		c0-20.1,0-39.9,0-59.7c-16,0-31.7,0-47.5,0c0,20,0,39.7,0,59.7C65.3,149.9,81,149.9,96.9,149.9z"/>
	<path d="M180.9,89.9c-19.9,0-39.6,0-59.5,0c0-3.9,0-7.6,0-11.6c19.7,0,39.5,0,59.5,0C180.9,82,180.9,85.8,180.9,89.9z"/>
	<path d="M181,126.3c0,4,0,7.7,0,11.6c-19.9,0-39.6,0-59.6,0c0-3.7,0-7.5,0-11.6C141.2,126.3,161,126.3,181,126.3z"/>
	<path d="M181,150.3c0,4,0,7.7,0,11.6c-19.9,0-39.5,0-59.5,0c0-3.7,0-7.5,0-11.6C141.2,150.3,161,150.3,181,150.3z"/>
	<path d="M37.5,174.2c19.9,0,39.6,0,59.5,0c0,3.8,0,7.5,0,11.6c-19.7,0-39.4,0-59.5,0C37.5,182.1,37.5,178.3,37.5,174.2z"/>
	<path d="M37.4,233.8c0-4,0-7.7,0-11.6c19.9,0,39.6,0,59.6,0c0,3.7,0,7.5,0,11.6C77.2,233.8,57.5,233.8,37.4,233.8z"/>
	<path d="M121.4,113.8c0-4,0-7.7,0-11.6c11.9,0,23.6,0,35.5,0c0,3.7,0,7.5,0,11.6C145.2,113.8,133.5,113.8,121.4,113.8z"/>
	<path d="M37.4,209.8c0-4,0-7.7,0-11.6c11.9,0,23.5,0,35.5,0c0,3.7,0,7.5,0,11.6C61.2,209.8,49.5,209.8,37.4,209.8z"/>
	<path d="M169.4,102.2c3.9,0,7.6,0,11.5,0c0,3.8,0,7.6,0,11.6c-3.8,0-7.6,0-11.5,0C169.4,110,169.4,106.3,169.4,102.2z"/>
	<path d="M96.9,209.9c-4,0-7.7,0-11.5,0c0-3.9,0-7.5,0-11.5c3.7,0,7.5,0,11.5,0C96.9,202,96.9,205.8,96.9,209.9z"/>
	<path d="M217.5,78.2c36,0,71.7,0,107.5,0c0,15.9,0,31.6,0,47.6c-35.7,0-71.5,0-107.5,0C217.5,110.1,217.5,94.3,217.5,78.2z
		 M229.4,113.8c28.1,0,55.9,0,83.5,0c0-8.1,0-15.8,0-23.5c-28,0-55.7,0-83.5,0C229.4,98.1,229.4,105.8,229.4,113.8z"/>
	<path d="M217.4,149.8c0-4,0-7.7,0-11.6c35.9,0,71.6,0,107.5,0c0,3.7,0,7.5,0,11.6C289.2,149.8,253.4,149.8,217.4,149.8z"/>
	<path d="M265.4,318c5.9,0,11.7-0.1,17.6,0c10.3,0.2,18.2,8.1,18.1,18c0,9.9-8,17.8-18.2,17.9c-11.9,0.1-23.7,0.1-35.6,0
		c-10.2-0.1-18.2-8.1-18.1-18c0-9.8,7.9-17.7,17.9-17.9C253.2,317.9,259.3,318,265.4,318C265.4,318,265.4,318,265.4,318z M265,342
		C265,342,265,342,265,342c5.7,0,11.5,0.1,17.2,0c4.3,0,7-2.5,7-6.1c-0.1-3.5-2.7-5.8-6.9-5.8c-11.4,0-22.7,0-34.1,0
		c-4.3,0-7,2.5-7,6.1c0.1,3.5,2.7,5.8,6.9,5.8C253.7,342.1,259.3,342,265,342z"/>
	<path d="M229.4,41.8c0-4,0-7.7,0-11.6c19.9,0,39.6,0,59.6,0c0,3.7,0,7.5,0,11.6C269.2,41.8,249.5,41.8,229.4,41.8z"/>
	<path d="M193.2,36.2c-0.1,3.2-2.9,5.9-6.1,5.8c-3.3-0.1-5.9-2.9-5.8-6.2c0.1-3.3,2.9-5.9,6.1-5.8C190.6,30.2,193.3,33,193.2,36.2z"
		/>
</g>
</svg>
