<?xml version="1.0" encoding="utf-8"?>
<!-- Generator: Adobe Illustrator 21.0.0, SVG Export Plug-In . SVG Version: 6.00 Build 0)  -->
<svg version="1.1" id="Layer_1" xmlns="http://www.w3.org/2000/svg" xmlns:xlink="http://www.w3.org/1999/xlink" x="0px" y="0px"
	 viewBox="0 0 513 523" style="enable-background:new 0 0 513 523;" xml:space="preserve">
<g>
	<path d="M10.9,381.3c0.9-3.5,1.8-7.1,2.8-10.6c8.3-28.5,34-48.3,63.6-48.4c55.7-0.2,111.4-0.2,167.1,0c35.5,0.1,64.8,28.7,66,64.2
		c0.5,13.1,0.2,26.1,0.1,39.2c0,5.9-3.2,9.4-8.1,9.3c-4.8-0.1-7.7-3.5-7.7-9.2c-0.1-11.5,0-22.9,0-34.4c-0.1-30.8-22-52.9-52.7-53
		c-54.2-0.1-108.5-0.1-162.7,0c-29.3,0.1-51,20.6-52.1,50c-0.7,18.4-0.6,36.8,0.1,55.2c1.1,25.6,22,46.5,47.5,47.3
		c23.2,0.8,46.5,0.3,69.7,0.3c18.9,0,37.8,0,56.7,0c1.3,0,2.6,0,3.9,0c4.6-0.1,8.5,1.1,9.9,6c1.4,4.9-1.5,7.9-5.4,10.1
		c-46.5,0-93,0-139.5,0c-0.7-0.3-1.5-0.7-2.2-0.8c-28.2-5.2-46.1-21.9-54.5-49.1c-0.9-3-1.6-6.1-2.3-9.2
		C10.9,425.9,10.9,403.6,10.9,381.3z"/>
	<path d="M265.7,507.3c-3.1-0.8-6.2-1.5-9.2-2.4c-28.1-7.9-48-33-49-62.1c-0.3-9.2-0.2-18.4-0.1-27.6c0-5.7,3.1-9,7.9-9
		c4.8,0,7.8,3.4,8,9c0.3,10.8-0.3,21.7,0.9,32.4c2.8,24,22.9,42.8,47.1,43.4c31,0.8,62,0.3,93,0.3c24.5,0,49.1,0.1,73.6,0
		c30.2-0.1,51.9-20.5,52.9-50.7c0.6-18.2,0.6-36.5-0.2-54.7c-1.2-26.1-22.4-46.8-48.6-47.2c-40.8-0.6-81.7-0.2-122.5-0.3
		c-2.1,0-4.2,0-6.3-0.4c-4.2-0.8-6.5-3.7-6.4-7.9c0.1-4.2,2.7-6.8,6.8-7.7c1.4-0.3,2.9-0.2,4.3-0.2c40.2,0,80.4,0,120.6,0
		c38.9,0.1,68.4,29.4,68.5,68.2c0.1,15.8,0,31.6,0,47.5c-0.1,35.5-22.4,62.2-57.3,68.6c-0.6,0.1-1.2,0.5-1.8,0.7
		C387.1,507.3,326.4,507.3,265.7,507.3z"/>
	<path d="M258.9,11.2c66.3,0,120.2,54.8,120.1,121.9c-0.2,66.4-54.4,121.2-120.1,121.1c-66.1-0.1-120-54.7-120-121.6
		C138.9,65.9,192.9,11.2,258.9,11.2z M258.7,27.3C201.2,27.5,154.9,74.7,155.1,133c0.2,58.3,46.7,105.3,104.1,105.1
		c57.4-0.2,103.8-47.4,103.6-105.6C362.7,74.2,316,27.1,258.7,27.3z"/>
	<path d="M251,124.7c0-3.7,0-6.9,0-10.1c0-12.9,0-25.8,0-38.7c0-6.1,2.9-9.4,7.9-9.4c5,0,7.9,3.4,7.9,9.5c0,14.4,0,28.7,0,43.1
		c0,1.7,0,3.5,0,5.7c5.8,0,11.1,0,16.4,0c10.7,0,21.3-0.1,32,0c5.5,0,9.2,3.2,9.3,7.8c0.2,4.8-3.5,8.3-9.3,8.3
		c-14.2,0.1-28.4,0-42.6,0c-1.7,0-3.5,0-5.8,0c0,2.2,0,3.9,0,5.7c0,14.4,0,28.7,0,43.1c0,6-3.1,9.5-7.9,9.5c-4.8,0-7.9-3.6-7.9-9.6
		c-0.1-14.2,0-28.4,0-42.6c0-1.8,0-3.5,0-5.8c-2-0.1-3.7-0.3-5.4-0.3c-13.2,0-26.5,0-39.7,0c-1.3,0-2.6,0.1-3.9,0
		c-5.4-0.4-8.9-3.8-8.7-8.4c0.2-4.4,3.7-7.7,8.9-7.7c14.4-0.1,28.7,0,43.1,0C247,124.7,248.8,124.7,251,124.7z"/>
</g>
</svg>
