<?xml version="1.0" encoding="utf-8"?>
<!-- Generator: Adobe Illustrator 21.0.0, SVG Export Plug-In . SVG Version: 6.00 Build 0)  -->
<svg version="1.1" id="Layer_1" xmlns="http://www.w3.org/2000/svg" xmlns:xlink="http://www.w3.org/1999/xlink" x="0px" y="0px"
	 viewBox="0 0 437 402" style="enable-background:new 0 0 437 402;" xml:space="preserve">
<g>
	<path d="M393,49.8c0,109.8,0,219.5,0,329.3c-2.3,7.7-7.4,12.6-15,15c-105.8,0-211.5,0-317.3,0c-2.3-1.2-4.8-2.1-6.8-3.6
		c-5.9-4.2-7.8-10.2-7.8-17.3c0.1-70.1,0-140.2,0.1-210.3c0-3.2-1-5.1-3.6-7C17,136.2,5.2,110.3,10.1,78.4
		C15,46.8,33.4,24.8,63.8,14.5c30.4-10.3,57.8-3.4,81.6,18.1c1.3,1.2,3.4,2,5.2,2.1c13.5,0.2,27,0.1,40.5,0.1c1.2,0,2.4-0.1,3.9-0.2
		c0-4.2,0-8,0-11.8c4.2,0,8,0,12.2,0c0,4.1,0,7.9,0,11.9c12.6,0,24.7,0,37.4,0c0-4.1,0-8,0-11.8c4.3,0,8.1,0,12.3,0
		c0,4.1,0,8,0,11.8c12.6,0,24.7,0,37.3,0c0-4.1,0-7.9,0-11.8c4.2,0,8,0,12.2,0c0,4,0,7.9,0,11.9c12.6,0,24.7,0,37.3,0
		c0-4,0-7.9,0-11.8c4.2,0,8.1,0,12.4,0c0,4.1,0,8,0,12c1.8,0,3.1,0,4.5,0c4.5,0,9-0.1,13.5,0C384,34.9,389.9,40.6,393,49.8z
		 M269.2,183.3c1.9,0,3.3,0,4.6,0c14.6,0,29.2-0.1,43.9,0c15.2,0.1,25.7,10.7,25.8,25.8c0.1,28.1,0,56.2,0,84.4
		c0,8.7-5,13.6-13.8,13.7c-3.8,0-7.6,0-11.3,0c-4.8,23.7-22.1,36.1-39.5,36.9c-25.7,1.1-40.5-12.7-47-36.9c-7.6,0-15.1,0-22.6,0
		c-2,0-2.7,0.6-3.2,2.6c-4.8,20.7-21.9,34.6-42.3,34.6c-20.4,0-37.5-13.9-42.3-34.6c-0.5-2-1.3-2.7-3.3-2.6
		c-3.6,0.1-7.3,0.1-10.9-0.1c-6.6-0.4-11.2-5-11.5-11.5c-0.2-4.6-0.2-9.3,0-13.9c0.2-5.4,3.7-9.6,9-11.2c1-0.3,2.1-0.5,3-0.7
		c0-33.7,0-67.2,0-100.4c-8.2,0.7-16.2,1.3-24.3,2c0,61.5,0,123.3,0,185.1c90.8,0,181.4,0,271.9,0c0-70.2,0-140.1,0-210.2
		c-12.4,0-24.6,0-36.7,0c-56,0-112,0-168,0c-1.3,0-3,0-3.9,0.7c-4.5,3.6-8.9,7.5-13.7,11.6c1.8,0,3.1,0,4.5,0c39.1,0,78.2,0,117.4,0
		c9.2,0,14.1,5,14.1,14.2C269.2,176.1,269.2,179.5,269.2,183.3z M71.1,369.1c-0.1-1.4-0.2-2.5-0.2-3.7c0-35.9,0-71.7,0-107.6
		c0-28.5,0-57,0-85.5c0-1.3-0.4-3.5-1.3-3.8c-3.5-1.4-7.2-2.3-11.1-3.5c0,1.7,0,2.9,0,4.2c0,67.7,0,135.5,0,203.2c0,7.3,1.7,9,9.1,9
		c101.4,0,202.7,0,304.1,0c7.2,0,8.9-1.7,8.9-8.8c0-82.4,0-164.7,0-247.1c0-1.3-0.1-2.6-0.2-4.2c-1.9,0-3.4,0-4.9,0
		c-34.6,0-69.2,0-103.9,0c-34.7,0-69.5,0-104.2,0c-1.3,0-3.4,0.2-3.9,1.1c-2.1,3.4-3.8,7.2-5.9,11.2c70.4,0,140.4,0,210.4,0
		c0,78.6,0,156.9,0,235.2C269,369.1,170.3,369.1,71.1,369.1z M157.5,208c0-12.5,0-24.5,0-36.7c-12.5,0-24.5,0-36.7,0
		c0,33,0,65.8,0,98.8c3.4,0,6.5,0.2,9.6-0.1c1.8-0.2,3.9-0.8,5.3-1.9c16.6-13.9,40-13.8,56.4,0.1c1.3,1.1,3.3,1.8,5,1.9
		c12.7,0.2,25.5-0.1,38.2,0.2c5.9,0.1,11.4-0.1,15.6-4.9c0.7-0.8,1.8-1.4,2.8-1.8c2.7-0.9,3-2.8,3-5.2c-0.1-27.7,0-55.5,0-83.2
		c0-1.2-0.1-2.4-0.2-3.8c-12.4,0-24.5,0-37,0c0,12.3,0,24.4,0,36.6C198.8,208,178.4,208,157.5,208z M167.9,108.7
		c71.2,0,141.8,0,212.4,0c0.1-0.7,0.2-1.1,0.2-1.4c0-9.2,0-18.5,0-27.7c0-8.4,0.1-16.7,0-25.1c0-4.4-1.8-6.9-5.5-7.1
		c-6.2-0.3-12.4-0.1-19.2-0.1c0,3.6,0.1,7,0,10.3c-0.1,2.1,0.6,3.2,2.6,4.3c8.5,4.6,11.9,14,8.6,22.7c-2.8,7.5-10.3,12.5-18.1,12.1
		c-8.4-0.5-15.5-6.3-17.3-14.2c-1.9-8.2,1.7-16.3,8.9-20.5c1.1-0.6,2.7-1.6,2.8-2.4c0.3-4,0.1-8.1,0.1-12.1c-12.6,0-24.7,0-37.2,0
		c0,3,0.2,5.7,0,8.4c-0.2,3.1,0.6,5,3.6,6.8c7.7,4.3,10.7,13.6,7.7,21.8c-3,8.4-11.4,13.4-20.1,12.1c-7.9-1.2-14.1-7.1-15.5-14.7
		c-1.5-8,2.1-15.7,9.1-19.7c1.1-0.6,2.7-1.6,2.8-2.5c0.3-3.9,0.1-7.9,0.1-12c-12.6,0-24.7,0-37.2,0c0,3.7,0.1,7,0,10.4
		c-0.1,2.1,0.7,3,2.5,4c7,3.8,10.5,9.9,9.9,17.9c-0.7,9.2-7.9,16-17.2,16.9c-8.3,0.8-16.4-4.7-19-12.9c-2.8-8.6,0.9-17.4,9-22
		c1-0.5,2.3-1.5,2.4-2.4c0.3-3.9,0.1-7.9,0.1-11.9c-12.6,0-24.8,0-37.2,0c0,3.6,0.1,6.8,0,10c-0.1,2.1,0.5,3.3,2.5,4.3
		c8.4,4.5,11.9,13.7,8.9,22.3c-2.7,7.7-10.2,12.9-18.2,12.5c-8.4-0.4-15.5-6.2-17.4-14.1c-1.9-8.1,1.6-16.3,8.8-20.5
		c1.1-0.6,2.8-1.5,2.9-2.4c0.3-4,0.1-8.1,0.1-12.2c-12.6,0-24.7,0-37.3,0C169.1,66.7,172.7,87,167.9,108.7z M21.4,90.3
		c-0.1,37.5,30.2,68.1,67.6,68.3c37.7,0.2,68.4-30.1,68.5-67.7c0.2-37.7-30-68.2-67.8-68.4C52.3,22.2,21.5,52.7,21.4,90.3z
		 M330.7,270.2c0-8.4,0-16.5,0-24.8c-16.5,0-32.6,0-49,0c0-12.5,0-24.7,0-37.4c16.5,0,32.8,0,49,0c-0.3-7.5-5.1-12.1-12.5-12.1
		c-15.5-0.1-31,0-46.5,0c-0.8,0-1.6,0.2-2.4,0.4c0,20.7,0,41.2,0,61.6c0.4,0.1,0.6,0.3,0.8,0.3c13-1.5,24.4,2.4,34.2,10.9
		c0.6,0.5,1.5,1.1,2.2,1.1C314.6,270.2,322.6,270.2,330.7,270.2z M275.2,331.9c17.3,0,30.9-13.6,30.9-30.9
		c0-17.1-13.7-30.9-30.6-30.9c-17.5,0-31.1,13.7-31.2,31.1C244.4,318.2,258.2,331.9,275.2,331.9z M163.9,332c17.1,0,31.1-14,31-31
		c-0.1-17-14.1-30.8-31.2-30.8c-16.9,0.1-30.7,13.9-30.8,30.8C132.8,318.1,146.8,332,163.9,332z M182.3,183.6c4.5,0,8.4,0,12.6,0
		c0,4.1,0,8,0,12c4.1,0,7.9,0,11.9,0c0-8.2,0-16.3,0-24.2c-12.3,0-24.4,0-36.5,0c0,8.2,0,16.1,0,24.3c4,0,7.8,0,12,0
		C182.3,191.6,182.3,187.8,182.3,183.6z M330.8,220.9c-12.3,0-24.5,0-36.6,0c0,4.1,0,7.9,0,11.8c12.3,0,24.3,0,36.6,0
		C330.8,228.7,330.8,224.9,330.8,220.9z M203.5,282.7c1,3.7,1.9,7.3,3,10.8c0.2,0.6,1.4,1.4,2.2,1.4c7.9,0.1,15.7,0.1,23.5,0.1
		c1.2-4.2,2.4-8.1,3.6-12.3C224.9,282.7,214.2,282.7,203.5,282.7z M124.3,282.7c-5.5,0-10.7,0-16,0c0,4.1,0,8,0,12.3
		c2.7,0,5.2-0.2,7.7,0.1c3.5,0.4,5.6-0.3,5.9-4.4C122.2,288,123.4,285.6,124.3,282.7z M330.8,282.7c-5.4,0-10.5,0-15.9,0
		c1.2,4.2,2.4,8.1,3.5,11.9c4.2,0,8.2,0,12.3,0C330.8,290.6,330.8,286.7,330.8,282.7z M201.2,72.1c-3.6-0.1-6.2,2.5-6.3,6
		c0,3.5,2.6,6.2,6.1,6.2c3.3,0,5.9-2.5,6.1-5.8C207.2,74.9,204.7,72.2,201.2,72.1z M349.5,72.1c-3.5,0.1-6.1,2.8-6,6.3
		c0.1,3.4,3,6.1,6.4,5.9c3.3-0.1,5.8-2.8,5.8-6.1C355.7,74.6,353.1,72,349.5,72.1z M250.5,84.2c3.5,0,6.1-2.7,6.1-6.1
		c0-3.4-2.5-5.9-5.8-6c-3.5-0.1-6.3,2.5-6.3,5.9C244.4,81.5,247,84.2,250.5,84.2z M294,77.9c-0.1,3.5,2.6,6.3,6,6.3
		c3.5,0.1,6.2-2.6,6.2-6.1c0-3.4-2.4-6-5.8-6.1C296.9,71.9,294.1,74.5,294,77.9z"/>
	<path d="M33.8,90.3C33.9,59.4,59,34.7,90.2,34.8c30.2,0.1,55.1,25.3,55.1,55.7c0,30.7-25.3,55.9-55.9,55.8
		C58.7,146.2,33.7,121.1,33.8,90.3z M89.6,47.3c-24-0.1-43.3,19.2-43.4,43.3c0,23.8,19.2,43.2,43,43.3c24,0.1,43.5-19.2,43.6-43.1
		C132.9,66.7,113.6,47.3,89.6,47.3z"/>
	<path d="M293.9,301.2c0,10.2-8.5,18.6-18.7,18.5c-10.1,0-18.6-8.5-18.6-18.7c0-10.2,8.5-18.6,18.7-18.5
		C285.6,282.6,294,291,293.9,301.2z M281.4,301.2c0.1-3.5-2.6-6.2-6-6.2c-3.5,0-6.2,2.7-6.1,6.2c0,3.3,2.5,5.9,5.9,6
		C278.6,307.3,281.3,304.7,281.4,301.2z"/>
	<path d="M182.3,301c0,10.3-8.2,18.6-18.4,18.7c-10.2,0.1-18.5-8.2-18.6-18.5c-0.1-10.3,8.1-18.6,18.4-18.7
		C173.9,282.4,182.3,290.7,182.3,301z M170,301.1c0-3.4-2.9-6.2-6.3-6.1c-3.4,0.1-6.2,3-6.1,6.3c0.1,3.2,2.8,5.8,6.1,5.9
		C167.2,307.2,170,304.5,170,301.1z"/>
	<path d="M83.3,59.6c4.4,0,8.1,0,12.5,0c0,3.6-0.2,7.2,0.1,10.8c0.1,1.3,1.2,2.6,2.2,3.7c2.6,2.8,5.2,5.5,8,8.1
		c0.9,0.9,2.2,1.9,3.4,2c3.5,0.3,7,0.1,10.8,0.1c0,4.1,0,8,0,12.5c-3.5,0-6.9,0.1-10.4,0c-2-0.1-3.1,0.5-4.1,2.4
		c-4,7.4-11.6,11.1-19.4,9.8c-7.5-1.3-13.9-7.5-15.1-14.8c-1.4-8.2,2.1-15.8,9.6-19.8c2-1.1,2.5-2.3,2.5-4.4
		C83.2,66.5,83.3,63.1,83.3,59.6z M89.6,84.3c-3.3-0.1-6.2,2.8-6.3,6.1c-0.1,3.3,2.7,6.2,6,6.3c3.3,0.1,6.2-2.7,6.3-6
		C95.8,87.3,93,84.4,89.6,84.3z"/>
</g>
</svg>
