<?xml version="1.0" encoding="utf-8"?>
<!-- Generator: Adobe Illustrator 21.0.0, SVG Export Plug-In . SVG Version: 6.00 Build 0)  -->
<svg version="1.1" id="Layer_1" xmlns="http://www.w3.org/2000/svg" xmlns:xlink="http://www.w3.org/1999/xlink" x="0px" y="0px"
	 viewBox="0 0 383 385" style="enable-background:new 0 0 383 385;" xml:space="preserve">
<g>
	<path d="M35.8,375.5c-3.5-3.8-6-6.6-8.8-9.5c0.5-0.5,1.2-1.4,1.9-2.2c10.4-10.4,20.9-20.8,31.3-31.3c6.8-6.9,14.8-10.4,24.5-10
		c1.9,0.1,3.8-0.1,5.6,0c6.8,0.4,12.4-2,17-7c1.3-1.5,3-2.6,5.4-4.7c-2.3-0.2-3.4-0.3-4.4-0.3c-9.5,0-19,0-28.5,0
		c-11.4,0-19-7.6-19-19c0-24,0-48,0-72c0-5.7,1.9-10.4,6-14.4c6.6-6.5,13.2-13,19.6-19.7c6.2-6.5,3.5-16.2-4.8-18.5
		c-4-1.1-7.5,0-10.4,2.8c-10.9,10.7-21.7,21.5-32.3,32.4c-1.4,1.4-1.9,4-2,6.1c-0.2,15.9-0.2,31.7-0.1,47.6
		c0.1,9.4-3.1,17.3-9.8,23.9c-3.3,3.2-6.4,6.6-9.6,9.9c-3-3-5.7-5.7-9-8.9c3.4-3.2,6.8-6.3,10.1-9.5c4.3-4.1,6.3-9.1,6.3-15.1
		c-0.1-16,0.1-32-0.1-48c-0.1-6.3,2.1-11.3,6.6-15.7c9.1-8.9,18-18,27.1-27c1.7-1.7,2.4-3.4,2.4-5.9c-0.1-42.9-0.1-85.7,0-128.6
		c0-13.5,7-20.5,20.6-20.5c46.2,0,92.5,0,138.7,0c13.6,0,20.6,7,20.6,20.5c0,23.6,0,47.2,0,70.9c0,1.4,0,2.7,0,4.3
		c6.2,0.6,12.3,0.8,18.2,1.8c49,8,84.2,34.6,103.5,80.2c31.3,74.1-10.9,158.6-88.8,178c-36.4,9.1-72.5,6.8-106.5-10.9
		c-16.9-8.8-31.1-20.8-42.7-35.9c-0.5-0.7-1.1-1.3-2.1-2.4c-2.7,2.8-5.2,5.6-7.8,8.3c-6.2,6.3-13.8,10-22.5,9.2
		c-12-1.2-21.1,2.9-28.9,12c-7.8,9-16.7,16.9-25,25.3C37.1,372.7,36.6,374.1,35.8,375.5z M108.8,118.5c0,1.3,0,2,0,2.8
		c0,39.4-0.8,78.8,0.2,118.1c1.2,49.5,24.8,85.8,69.2,107.7c28.5,14.1,59,14.6,89.4,8.2C330.9,342,372.5,276,358,213.2
		c-13.1-56.6-60.7-94.6-118.8-94.7c-33.2,0-66.5,0-99.7,0C129.4,118.5,119.3,118.5,108.8,118.5z M96.7,106.4c44.2,0,88,0,132,0
		c0-1.8,0-3.1,0-4.5c0-21.9,0-43.7,0-65.6c0-2.6,0.1-5.3-0.1-7.9c-0.2-3.5-2.2-5.7-5.7-5.8c-6.5-0.2-13-0.1-19.5-0.1
		c-0.9,3.5-1.7,6.7-2.5,10c-2.3,8.7-9,13.9-18.1,14c-21.4,0-42.7,0-64.1,0c-9.3,0-15.9-5.3-18.2-14.2c-0.8-3.2-1.7-6.4-2.5-9.8
		c-5.8,0-11.3,0-16.8,0c-6.7,0-8.5,1.8-8.5,8.4c0,40.1,0,80.2,0,120.3c0,1.3,0,2.6,0,3c4.8,0.5,9.2,0.4,13.1,1.7
		c3.8,1.2,7.2,3.9,10.9,6C96.7,143.7,96.7,125.4,96.7,106.4z M96.7,192c-4.4,4.4-7.7,8.6-11.9,11.7c-10,7.5-13.1,17-12.4,29.5
		c1.1,18.9,0.3,38,0.3,57c0,6.6,1.8,8.3,8.5,8.4c6.7,0,13.5,0,20.2,0c3.1,0,6.1,0,9.6,0c-0.5-1.1-0.7-1.6-0.9-2.2
		c-6.2-12.7-10.9-25.9-12-40c-1.1-14.4-1.1-28.9-1.4-43.4C96.6,206.3,96.7,199.5,96.7,192z M190.8,22.7c-26.9,0-53.5,0-80.2,0
		c0.3,1.3,0.5,2.4,0.7,3.5c1.9,7.7,2.7,8.3,10.7,8.3c18.9,0,37.7,0,56.6,0c9.1,0,9.8-0.6,11.8-9.4C190.6,24.4,190.7,23.7,190.8,22.7
		z"/>
	<path d="M282.8,34.5c0-5.8,0-11.7,0-17.8c3.9,0,7.7,0,11.9,0c0,5.9,0,11.9,0,17.8l0.1-0.1c-4,0-8.1,0-12.1,0L282.8,34.5z"/>
	<path d="M282.8,46.4c-5.8,0-11.7,0-17.8,0c0-3.9,0-7.7,0-11.9c5.9,0,11.9,0,17.8,0c0,0-0.1-0.1-0.1-0.1c0,4,0,8.1,0,12.1
		L282.8,46.4z"/>
	<path d="M294.7,34.6c5.8,0,11.7,0,17.8,0c0,3.9,0,7.7,0,11.9c-5.9,0-11.9,0-17.8,0l0.1,0.1c0-4,0-8.1,0-12.1L294.7,34.6z"/>
	<path d="M294.7,46.4c0,5.8,0,11.7,0,17.8c-3.9,0-7.7,0-11.9,0c0-5.9,0-11.9,0-17.8c0,0-0.1,0.1-0.1,0.1c4,0,8.1,0,12.1,0
		L294.7,46.4z"/>
	<path d="M336.8,82.6c0-5.8,0-11.7,0-17.8c3.9,0,7.7,0,11.9,0c0,5.9,0,11.9,0,17.8l0.1-0.1c-4,0-8.1,0-12.1,0L336.8,82.6z"/>
	<path d="M336.8,94.4c-5.8,0-11.7,0-17.8,0c0-3.9,0-7.7,0-11.9c5.9,0,11.9,0,17.8,0c0,0-0.1-0.1-0.1-0.1c0,4,0,8.1,0,12.1
		L336.8,94.4z"/>
	<path d="M348.7,82.6c5.8,0,11.7,0,17.8,0c0,3.9,0,7.7,0,11.9c-5.9,0-11.9,0-17.8,0l0.1,0.1c0-4,0-8.1,0-12.1L348.7,82.6z"/>
	<path d="M348.7,94.4c0,5.8,0,11.7,0,17.8c-3.9,0-7.7,0-11.9,0c0-5.9,0-11.9,0-17.8c0,0-0.1,0.1-0.1,0.1c4,0,8.1,0,12.1,0
		L348.7,94.4z"/>
	<path d="M264.6,232.6c12.3,0,23.9,0,35.9,0c0,25.8,0,51.6,0,77.8c4.2,0,8,0,12,0c0,4.1,0,7.8,0,11.8c-51.7,0-103.5,0-155.5,0
		c0-3.7,0-7.5,0-11.6c3.8,0,7.5,0,11.6,0c0-14.1,0-27.9,0-41.9c12.2,0,24,0,36.1,0c0,13.8,0,27.5,0,41.5c4.1,0,7.9,0,11.9,0
		c0-19.7,0-39.4,0-59.4c12.1,0,23.9,0,36.1,0c0,19.8,0,39.6,0,59.5c4.1,0,7.8,0,11.9,0C264.6,284.5,264.6,258.7,264.6,232.6z
		 M288.5,310.3c0-22.1,0-43.8,0-65.5c-4,0-7.8,0-11.5,0c0,22,0,43.7,0,65.5C280.9,310.3,284.6,310.3,288.5,310.3z M229,262.7
		c0,16.1,0,31.8,0,47.5c4.1,0,7.8,0,11.6,0c0-16,0-31.7,0-47.5C236.7,262.7,233,262.7,229,262.7z M192.5,310.3c0-10.1,0-19.9,0-29.5
		c-4.1,0-7.8,0-11.5,0c0,10,0,19.7,0,29.5C184.8,310.3,188.5,310.3,192.5,310.3z"/>
	<path d="M219.2,211.4c-1.6,3.3-3.2,6.7-4.7,10c-17.7-4.4-31.1-30.8-26.7-52.4c4.9-24.2,28.7-41.4,52.4-38.2
		c29.5,3.9,43.5,29.7,42.3,47.6c-3.8,0-7.6,0-11.4,0c-3.7-21.9-15.1-34-33.2-35.7c-16-1.4-31.2,8.2-36.8,23.3
		C194.7,182.9,200.7,198.1,219.2,211.4z"/>
	<path d="M168.9,244.2c0-3.9,0-7.6,0-11.7c3.7,0,7.3,0,10.9,0c18.7,0,37.2-1.8,54.9-8.3c12.5-4.6,23.6-11.4,31-23
		c2.2-3.4,3.7-7.3,5.7-11.4c3.3,0.4,7.1,1,11.1,1.5c-1.3,7-4.2,13-8.1,18.5c-9.8,13.7-23.5,21.7-39.1,27
		C217.7,242.9,188.4,246.1,168.9,244.2z"/>
	<path d="M216.7,178.6c0-4.2-0.1-8.5,0-12.7c0.2-10,10.2-15.4,18.7-10.1c6.3,4,12.5,8.1,18.7,12.4c7.9,5.5,7.8,15.1-0.1,20.6
		c-6,4.2-12.2,8.2-18.3,12.2c-4.1,2.7-8.4,3.1-12.7,0.7c-4.3-2.4-6.3-6.2-6.2-11.2C216.8,186.6,216.8,182.6,216.7,178.6
		C216.7,178.6,216.7,178.6,216.7,178.6z M247.9,178.5c-6.6-4.4-12.6-8.4-19-12.6c0,8.7,0,16.7,0,25.3
		C235.4,186.9,241.3,182.9,247.9,178.5z"/>
	<path d="M102.4,94.5c-13.2,1.1-17.9-4.4-17.9-17.9c0-13.8,4.6-18.4,18.4-18.4c13.1,0,18.2,4.2,18.1,18.3
		C120.9,89.8,116.8,95.6,102.4,94.5z M108.7,70.7c-4.1,0-7.9,0-11.6,0c0,4,0,7.8,0,11.4c4.1,0,7.8,0,11.6,0
		C108.7,78.3,108.7,74.7,108.7,70.7z"/>
	<path d="M168.8,76.6c1.1,13.5-4.5,18.2-18,18.2c-13.8,0-18.3-4.8-18.3-18.1c0-13.8,4.6-18.4,18.4-18.4
		C164.2,58.3,169.8,62.8,168.8,76.6z M156.5,82.4c0-4.1,0-7.9,0-11.7c-4,0-7.8,0-11.5,0c0,4.1,0,7.8,0,11.7
		C149,82.4,152.6,82.4,156.5,82.4z"/>
	<path d="M198.8,58.5c13.5-1.1,18.1,4.4,18.2,18c0,13.7-4.7,18.2-18.2,18.2c-13.8,0-18.3-4.9-18.3-18.1
		C180.4,62.8,185.2,57.3,198.8,58.5z M192.9,82.2c4.2,0,8,0,11.7,0c0-4,0-7.7,0-11.5c-4,0-7.8,0-11.7,0
		C192.9,74.7,192.9,78.3,192.9,82.2z"/>
</g>
</svg>
