<?xml version="1.0" encoding="utf-8"?>
<!-- Generator: Adobe Illustrator 21.0.0, SVG Export Plug-In . SVG Version: 6.00 Build 0)  -->
<svg version="1.1" id="Layer_1" xmlns="http://www.w3.org/2000/svg" xmlns:xlink="http://www.w3.org/1999/xlink" x="0px" y="0px"
	 viewBox="0 0 250 270" style="enable-background:new 0 0 250 270;" xml:space="preserve">
<g>
	<path d="M124,264.9c-30.2,0-60.4,0-90.7,0c-9.4,0-16.1-4.8-18.2-13.2c-0.5-1.9-0.6-3.8-0.6-5.8c0-59.5,0-119,0-178.5
		c0-11.5,7.2-18.8,18.7-18.8c60.5,0,121.1,0,181.6,0c11.4,0,18.7,7.3,18.7,18.6c0,59.7,0,119.4,0,179.1c0,11.5-7.2,18.6-18.9,18.6
		C184.5,264.9,154.3,264.9,124,264.9z M20,86.9c0,1.3,0,2.2,0,3c0,52.1,0,104.2,0,156.3c0,8.5,4.9,13.3,13.6,13.3
		c60.3,0,120.7,0,181,0c8.8,0,13.5-4.8,13.5-13.6c0-51.8,0-103.6,0.1-155.4c0-2.8-0.7-3.5-3.5-3.5c-67.1,0.1-134.2,0.1-201.3,0.1
		C22.4,86.9,21.4,86.9,20,86.9z M20.1,81.2c27.5,0,54.7,0,81.8,0c0-9.2,0-18.1,0-27.2c-2.7,0-5.2,0-7.7,0c-20.4,0-40.8,0-61.2,0
		c-7.3,0-12.4,4.3-12.9,11.1C19.8,70.4,20.1,75.7,20.1,81.2z M107.7,81.2c40.2,0,80.2,0,120.2,0c0-3.7,0-7.1,0-10.5
		c-40.2,0-80.2,0-120.2,0C107.7,74.3,107.7,77.6,107.7,81.2z M227.8,64.9c-0.5-6.7-5.6-10.9-13-10.9c-34.6,0-69.1,0-103.7,0
		c-1.1,0-2.2,0-3.3,0c0,3.8,0,7.3,0,10.9C147.9,64.9,187.8,64.9,227.8,64.9z"/>
	<path d="M199.5,7.5c8.2,0,14.9,6.8,14.9,15.1c0,8.2-6.8,15-15.1,15c-8.2,0-15-6.8-15-15C184.4,14.1,191,7.5,199.5,7.5z M189.9,22.6
		c0,5.3,4.2,9.5,9.5,9.5c5.3,0,9.6-4.4,9.6-9.8c-0.1-5.3-4.4-9.4-9.6-9.4C194,13.1,189.9,17.3,189.9,22.6z"/>
	<path d="M58.3,29.5c0,6-5,11-11,10.9c-6-0.1-10.9-5.1-10.8-11.1c0-6,5.1-11,11.1-10.9C53.5,18.5,58.3,23.4,58.3,29.5z M47.4,23.9
		c-3,0-5.4,2.4-5.5,5.4c0,3,2.4,5.5,5.3,5.6c2.9,0,5.4-2.4,5.5-5.4C52.8,26.5,50.4,23.9,47.4,23.9z"/>
	<path d="M115.8,39.1c-0.1,2.2-2,4-4.2,4c-2.3,0-4.2-2.1-4-4.4c0.2-2.2,2.1-3.9,4.3-3.8C114.1,35,115.9,36.9,115.8,39.1z"/>
	<path d="M7.6,54c-2.3,0-4-1.8-4-4c0-2.3,1.7-4,4-4.1c2.3-0.1,4.3,1.9,4.2,4.1C11.7,52.2,9.9,54,7.6,54z"/>
	<path d="M247.2,50c0,2.3-1.8,4-4.1,4c-2.3,0-4.1-1.9-4.1-4.1c0-2.2,1.9-4,4.1-4C245.5,45.9,247.3,47.7,247.2,50z"/>
	<path d="M84.5,26.6c-2.2,0.1-4.1-1.6-4.2-3.9c-0.1-2.4,1.7-4.3,4.1-4.3c2.2,0,4,1.9,4.1,4.1C88.5,24.7,86.7,26.6,84.5,26.6z"/>
	<path d="M165,27.9c0.1,2.3-1.7,4.2-3.9,4.2c-2.2,0.1-4.1-1.7-4.2-4c-0.1-2.3,1.7-4.2,3.9-4.2C163.1,23.8,165,25.6,165,27.9z"/>
	<path d="M124,103.3c27.6,0,55.3,0,82.9,0c4.3,0,4.8,0.5,4.8,4.8c0,43.4,0,86.8,0,130.2c0,4.2-0.5,4.7-4.8,4.7
		c-55.2,0-110.3,0-165.5,0c-4.5,0-4.9-0.4-4.9-4.9c0-43.2,0-86.4,0-129.6c0-4.7,0.4-5.1,5-5.1C69,103.4,96.5,103.4,124,103.3
		C124,103.3,124,103.3,124,103.3z M42.1,237.2c54.8,0,109.4,0,163.9,0c0-38.3,0-76.4,0-114.6c-54.7,0-109.2,0-163.9,0
		C42.1,160.9,42.1,198.9,42.1,237.2z M206,109c-54.8,0-109.4,0-163.9,0c0,2.7,0,5.2,0,7.8c54.7,0,109.3,0,163.9,0
		C206,114.2,206,111.7,206,109z"/>
	<path d="M61,67.7c0,3-2.4,5.5-5.4,5.5c-3,0-5.4-2.5-5.4-5.5c0-3,2.4-5.5,5.4-5.5C58.6,62.3,61,64.7,61,67.7z"/>
	<path d="M39.1,62.3c2.9,0,5.5,2.5,5.6,5.4c0,2.9-2.5,5.5-5.4,5.6c-2.9,0-5.5-2.5-5.5-5.4C33.6,64.9,36.2,62.3,39.1,62.3z"/>
	<path d="M71.9,73.2c-2.9,0-5.4-2.6-5.4-5.6c0-2.9,2.6-5.4,5.6-5.4c2.9,0,5.5,2.6,5.4,5.5C77.5,70.7,74.9,73.3,71.9,73.2z"/>
	<path d="M98.1,196.4c-7.9-1.6-13.6-5.8-16.4-13.1c-0.9-2.4-1.3-5-1.3-7.6c-0.2-8-0.1-15.9-0.1-23.9c0-4.2,0.4-4.6,4.7-4.6
		c1,0,2,0,3.5,0c0-3.9,0-7.7,0-11.4c0-2.1-0.5-4.6,2.6-5c2-0.3,2.8,1.3,2.8,5c0,3.7,0,7.4,0,11.2c4.7,0,9.1,0,13.7,0
		c0-4.2,0-8.3,0-12.3c0-2.1,0.4-3.9,2.8-3.9c2.2,0,2.7,1.8,2.7,3.8c0,4.1,0,8.1,0,12.6c1.8,0,3.3,0,4.9,0c2.2,0,3.3,1.1,3.3,3.2
		c0,9,0.3,18-0.2,27c-0.5,9.4-6.5,16.1-15.7,18.5c-0.5,0.1-1.1,0.3-1.6,0.5c0,5.3-0.5,10.6,0.1,15.8c0.8,6.9,7.7,12,14.8,11.6
		c7.5-0.5,13.4-6.2,13.5-13.7c0.2-15.3,0.1-30.6,0.1-45.9c0-3.3-0.1-6.7,0-10c0.2-7.2,5.4-12.5,12.2-12.5c6.9,0,12.3,5.1,12.4,12.3
		c0.2,10.2,0,20.4,0,30.6c0,2-0.6,3.6-2.9,3.5c-2.1-0.1-2.6-1.7-2.6-3.6c0-9.8,0-19.6,0-29.5c0-4.3-2.2-7.2-5.7-7.8
		c-4.5-0.7-8,2.4-8.1,7.3c-0.1,9.5,0,18.9,0,28.4c0,9,0.1,18,0,27c-0.1,9.6-7.4,17.8-16.6,19.1c-9.9,1.4-19.4-4.3-22-13.7
		c-1-3.6-0.7-7.5-0.9-11.3C98,201.6,98.1,199.1,98.1,196.4z M85.8,163.7c0,4.5-0.1,8.8,0,13.1c0.3,7,5.7,13,12.5,13.9
		c7.6,1,14.9-3,16.6-10.3c1.2-5.4,0.9-11.1,1.3-16.8C105.7,163.7,95.9,163.7,85.8,163.7z M115.7,157.9c0-1.8,0-3.4,0-5
		c-10,0-19.9,0-29.7,0c0,1.8,0,3.4,0,5C96,157.9,105.8,157.9,115.7,157.9z"/>
	<path d="M179,207.4c-5.2,0-10.4,0-15.5,0c-1.9,0-3.7-0.4-3.7-2.7c0-2.3,1.6-2.8,3.6-2.8c10.3,0,20.5,0,30.8,0
		c1.9,0,3.7,0.4,3.7,2.7c0,2.3-1.6,2.8-3.6,2.8C189.2,207.4,184.1,207.4,179,207.4z"/>
	<path d="M178.8,218.4c-5.1,0-10.2,0-15.3,0c-1.9,0-3.7-0.3-3.8-2.7c-0.1-2.6,1.8-2.8,3.8-2.8c10.2,0,20.3,0,30.5,0
		c1.9,0,3.7,0.3,3.7,2.6c0.1,2.5-1.8,2.9-3.8,2.9C189,218.4,183.9,218.4,178.8,218.4C178.8,218.4,178.8,218.4,178.8,218.4z"/>
	<path d="M178.6,229.3c-4.9,0-9.8,0-14.7,0c-1.9,0-4-0.1-4-2.6c-0.1-2.6,1.9-2.8,3.9-2.8c10,0,20,0,30,0c0.5,0,0.9,0,1.4,0
		c1.7,0.1,2.9,0.9,2.8,2.8c0,1.8-1.2,2.6-2.9,2.6C189.5,229.3,184,229.3,178.6,229.3C178.6,229.3,178.6,229.3,178.6,229.3z"/>
</g>
</svg>
