<?xml version="1.0" encoding="utf-8"?>
<!-- Generator: Adobe Illustrator 21.0.0, SVG Export Plug-In . SVG Version: 6.00 Build 0)  -->
<svg version="1.1" id="Capa_1" xmlns="http://www.w3.org/2000/svg" xmlns:xlink="http://www.w3.org/1999/xlink" x="0px" y="0px"
	 viewBox="0 0 536 499" style="enable-background:new 0 0 536 499;" xml:space="preserve">
<g>
	<path d="M72.5,63.2c0,5.6-4.5,10.1-10.1,10.1s-10.1-4.5-10.1-10.1s4.5-10.1,10.1-10.1S72.5,57.7,72.5,63.2z M117.8,63.2
		c0,5.6-4.5,10.1-10.1,10.1s-10.1-4.5-10.1-10.1s4.5-10.1,10.1-10.1S117.8,57.7,117.8,63.2z M163.2,63.2c0,5.6-4.5,10.1-10.1,10.1
		S143,68.8,143,63.2s4.5-10.1,10.1-10.1S163.2,57.7,163.2,63.2z M228.7,371.6c-5.6,0-10.1,4.5-10.1,10.1s4.5,10.1,10.1,10.1
		c5.6,0,10.1-4.5,10.1-10.1S234.2,371.6,228.7,371.6z M213.6,143.9V292c0,5.6-4.5,10.1-10.1,10.1H62.4c-5.6,0-10.1-4.5-10.1-10.1
		V143.9c0-5.6,4.5-10.1,10.1-10.1h141.1C209.1,133.8,213.6,138.3,213.6,143.9z M193.4,153.9H72.5v128h120.9V153.9z M243.8,161h103.8
		c5.6,0,10.1-4.5,10.1-10.1c0-5.6-4.5-10.1-10.1-10.1H243.8c-5.6,0-10.1,4.5-10.1,10.1C233.7,156.5,238.2,161,243.8,161z
		 M243.8,201.3h83.7c5.6,0,10.1-4.5,10.1-10.1c0-5.6-4.5-10.1-10.1-10.1h-83.7c-5.6,0-10.1,4.5-10.1,10.1
		C233.7,196.8,238.2,201.3,243.8,201.3z M62.4,322.2c-5.6,0-10.1,4.5-10.1,10.1s4.5,10.1,10.1,10.1h70.6c5.6,0,10.1-4.5,10.1-10.1
		s-4.5-10.1-10.1-10.1H62.4z M469.4,303.1c-4.8,13.6-4.8,28.7,0,42.4c1.9,5.4,7.9,8.5,14.1,5.8l11.4-5.3
		c13.5-6.3,29.1,2.7,29.1,18.1v42.9c0,11.1-9,20.2-20.2,20.2h-57l5.6,12c8.1,17.3-1.4,35.9-17.5,41.4c-18.5,6.3-37.9,6.4-55.9,0
		c-16-5.7-25.6-24.1-17.5-41.4l5.6-12l-57,0c-11.1,0-20.2-9-20.2-20.2v-15.1H274c-5.6,0-10.1-4.5-10.1-10.1s4.5-10.1,10.1-10.1h16.1
		V364c0-15.4,15.6-24.3,29.1-18.1l11.4,5.3c6.1,2.7,12.2-0.3,14.1-5.8c4.8-13.7,4.8-28.8,0-42.4c-1.7-4.9-7.7-8.6-13.8-5.9
		l-12.1,5.6c-13.1,5.9-28.7-2.8-28.7-18.7v-42.5c0-11.1,9-20.2,20.2-20.2h57l-5.6-12c-8.9-21,4.7-36.7,17.5-41.4
		c21.2-7.7,40.1-4.1,46.1-2.8v-51.7H32.2v258H183c5.4,0,10.1,4,10.4,9.4c0.4,5.9-4.3,10.8-10.1,10.8H22.1c-5.6,0-10.1-4.5-10.1-10.1
		V43.1c0-16.7,13.5-30.2,30.2-30.2h372.9c16.7,0,30.2,13.5,30.2,30.2v131.3c8.2,7.5,13.5,19.9,7.1,35.1l-5.6,12h57
		c11.1,0,20.2,9,20.2,20.2v42.5c0,15.9-15.6,24.6-28.7,18.7l-12.1-5.7C477.1,294.4,471.1,298.2,469.4,303.1L469.4,303.1z
		 M425.2,93.5V43.1c0-5.6-4.5-10.1-10.1-10.1H42.2c-5.6,0-10.1,4.5-10.1,10.1v50.4H425.2z M450.4,296.3c6.7-19,27.8-24.1,41.3-17.4
		l12.1,5.7v-42.9h-57c-15.7,0-24.2-16.4-18.3-28.7l5.6-12c2.7-6.4-0.9-12-5.9-13.8c-13.3-4.9-29.6-4.6-42.5,0
		c-5,1.8-8.6,7.4-5.9,13.8l5.6,12c5.9,12.3-2.5,28.7-18.3,28.7h-57v42.9l12.1-5.6c13.5-6.7,34.6-1.6,41.3,17.4
		c6.4,18,6.5,37.9,0,55.9c-5.2,14.4-22.3,25.8-41.3,17.4l-12.1-5.6l0,42.9h57c15.7,0,24.2,16.4,18.3,28.7l-5.6,12
		c-2.9,6.3,1,12.4,5.9,13.8c14.7,4.5,26.4,5,42.5,0c4.8-1.5,8.8-7.6,5.9-13.8l-5.6-12c-6-12.3,2.5-28.7,18.3-28.7h57V364l-12.1,5.7
		c-19.1,8.4-36.2-3.1-41.3-17.4C443.9,334.2,444,314.3,450.4,296.3z"/>
</g>
</svg>
