<?xml version="1.0" encoding="utf-8"?>
<!-- Generator: Adobe Illustrator 21.0.0, SVG Export Plug-In . SVG Version: 6.00 Build 0)  -->
<svg version="1.1" id="Layer_1" xmlns="http://www.w3.org/2000/svg" xmlns:xlink="http://www.w3.org/1999/xlink" x="0px" y="0px"
	 viewBox="0 0 64 64" style="enable-background:new 0 0 64 64;" xml:space="preserve">
<style type="text/css">
	.st0{fill:none;}
</style>
<g>
	<path class="st0" d="M20.3,36.8c0.3-0.3,0.4-0.4,0.4-1.7c0-1.7-0.1-2.1-0.6-2.4c-0.2-0.1-0.4-0.1-1-0.1h-0.7v2.3v2.3l0.7,0
		C19.9,37.1,20,37.1,20.3,36.8z"/>
	<path class="st0" d="M8.2,32.7c-0.1-0.1-0.5-0.1-0.9-0.1H6.6v1.2V35h0.7c0.6,0,0.8,0,1-0.1C9.1,34.4,9.1,33.1,8.2,32.7z"/>
	<path class="st0" d="M26.5,21.4l-3.9-3.9v3.7c0,4,0,4,0.3,4.1c0.1,0,1.8,0,3.8,0l3,0c0.1-0.1,0.1-0.3,0.2-0.4L26.5,21.4z"/>
	<path class="st0" d="M28,37.8c-0.2-1-0.3-1.9-0.4-3c0-0.3,0-0.7,0-1c0-2.7,0.5-5.2,1.6-7.5l-2.3,0c-4.7,0-4.4,0-4.9-0.5
		c-0.5-0.5-0.4-0.2-0.5-4.9l0-4.2l-5.4,0c-4.3,0-5.5,0-5.8,0.1C9.3,17.1,8.3,18,7.9,19c-0.1,0.2-0.2,0.6-0.2,0.9
		c0,0.3-0.1,2.5-0.1,5v4.5l8.8,0l8.7,0l0.3,0.1c0.3,0.2,0.5,0.4,0.7,0.7c0.1,0.2,0.1,0.5,0.1,4.4c0,4.7,0,4.8-0.4,5.2
		c-0.5,0.5,0.4,0.5-9.4,0.5l-8.8,0l0,1.9c0,2,0,2.8,0.2,3.3c0.4,1.1,1.4,1.9,2.6,2.2c0.6,0.1,17.4,0.1,18,0c1.5-0.4,2.6-1.6,2.8-3.1
		c0,0,0-0.1,0-0.1c-0.7-0.9-1.3-1.9-1.8-3C28.7,40.3,28.3,39.1,28,37.8z"/>
	<path class="st0" d="M25,39.2c0.1-0.1,0.1-0.2,0.1-4.3c0-4.2,0-4.2-0.1-4.4l-0.1-0.2H13.6H2.4l-0.1,0.2c-0.1,0.2-0.1,0.2-0.1,4.4
		c0,4.1,0,4.2,0.1,4.3C2.5,39.4,24.8,39.4,25,39.2z M17.3,34.9v-3l0.2-0.2c0.2-0.2,0.2-0.2,1.3-0.2c1.3,0,1.6,0.1,2.2,0.6
		c0.7,0.6,0.8,1.2,0.8,3.1c0,1.3-0.1,1.5-0.4,2c-0.1,0.2-0.3,0.4-0.5,0.5c-0.5,0.4-0.7,0.4-2,0.4l-1.2,0L17.5,38l-0.2-0.2V34.9z
		 M9.7,34.8c-0.2,0.5-0.7,0.9-1.2,1.1C8.3,36,8,36,7.4,36H6.6v0.8c0,0.9-0.1,1.2-0.3,1.3c-0.2,0.1-0.5,0-0.6-0.2
		c0-0.1-0.1-1.3-0.1-3.1v-3l0.1-0.2c0.1-0.1,0.2-0.1,1.4-0.1c1.1,0,1.3,0,1.5,0.2c0.5,0.2,0.8,0.5,1,1c0.2,0.4,0.2,0.4,0.2,1
		C9.9,34.3,9.9,34.5,9.7,34.8z M12,37.8c-0.5-0.4-0.7-1.3-0.4-1.6c0.3-0.3,0.7-0.2,0.9,0.2c0.1,0.5,0.2,0.6,0.5,0.7
		c0.4,0.1,1.1,0,1.4-0.1c0.3-0.2,0.4-0.4,0.4-0.8c0-0.2,0-0.3-0.2-0.5c-0.2-0.2-0.2-0.2-1-0.3c-1.1-0.1-1.6-0.4-1.9-1
		c-0.2-0.4-0.2-1-0.1-1.5c0.1-0.5,0.7-1,1.1-1.2c0.3-0.1,0.5-0.1,1.1-0.1c0.7,0,0.8,0,1.1,0.1c0.6,0.3,0.9,0.8,0.9,1.4
		c0,0.3,0,0.3-0.2,0.5c-0.4,0.3-0.7,0.1-0.9-0.4c-0.1-0.4-0.2-0.5-1-0.5c-0.5,0-0.7,0-0.9,0.1c-0.3,0.2-0.4,0.4-0.4,0.8
		c0,0.6,0.3,0.8,1.2,0.8c1.4,0.1,2.1,0.9,2.1,2.1c0,0.5-0.2,0.9-0.6,1.3c-0.4,0.4-0.7,0.5-1.6,0.5C12.6,38.2,12.4,38.1,12,37.8z"/>
	<path class="st0" d="M32.4,36.1c0-0.1-0.1-0.2-0.1-0.3c0,0.1,0,0.2,0,0.3L32.4,36.1z"/>
	<path class="st0" d="M34.2,38.1C34.2,38.1,34.2,38.1,34.2,38.1c0,0.1,0,0.2,0.1,0.3C34.2,38.2,34.2,38.1,34.2,38.1z"/>
	<path class="st0" d="M61.3,29.2c0,0,0-0.3-0.9,2.8c-0.5,1.4-1.8,5.4-2.9,8.8c-1.2,3.4-2.1,6.3-2.1,6.3c0,0.1,1.3-1,2.1-1.9
		c2.3-2.5,3.9-5.7,4.3-9.1c0.3-1.8,0.1-4.3-0.3-6.1C61.4,29.6,61.3,29.2,61.3,29.2z"/>
	<path class="st0" d="M41.7,50.2c0.5,0.1,1.1,0.2,1.5,0.3c0.9,0.1,3.3,0.1,4.3,0c0.9-0.1,2.5-0.5,2.7-0.6c0.1-0.1,0.2,0.3-2.9-8.4
		c-1.4-3.8-1.7-4.6-1.7-4.4c0,0-0.5,1.5-1.2,3.4c-0.7,1.8-1.7,4.7-2.3,6.4c-0.6,1.7-1.1,3.1-1.1,3.2C40.9,50,41,50,41.7,50.2z"/>
	<path d="M32.3,35.8c0,0.1,0.1,0.2,0.1,0.3l0.8,0.1c0.1,0,0.2,0,0.3,0C33,35.1,32.6,34,32.3,33v2.3C32.3,35.5,32.3,35.6,32.3,35.8z"
		/>
	<path d="M62,28.3c-2.1-6.4-7.7-11-14.4-11.9c-1.3-0.2-3.8-0.2-5.1,0c-1.3,0.2-2.5,0.5-2.6,0.7c-0.2,0.3,0,0.8,0.3,0.8
		c0.1,0,0.5-0.1,1-0.2c2.4-0.6,5.4-0.6,7.9,0c2,0.5,4.1,1.4,5.7,2.6l0.6,0.5l-0.4,0.1c-1.2,0.4-2,1.6-2.3,2.9
		c-0.2,1.1,0.1,1.9,1.7,4.2c1.1,1.5,1.4,2.1,1.6,3.5c0.2,1.1,0.1,3-0.2,4.2c-0.3,1.4-1.8,6.5-1.9,6.6c0,0.1-0.2-0.4-3-8.5
		c-2.2-6.3-2.5-7.4-2.5-7.4c0,0,0.4,0,0.8-0.1c0.9,0,1.1-0.1,1.4-0.6c0.4-0.5,0.2-1.3-0.4-1.7l-0.3-0.2h-5c-4.6,0-5.1,0-5.3,0.1
		c-0.4,0.2-0.6,0.5-0.6,1c0,0.5,0.2,0.9,0.6,1.1c0.3,0.2,0.5,0.2,1.1,0.2h0.8l0.2,0.4c0.1,0.2,0.6,1.4,1.1,2.7l1,2.3l-1.6,4.7
		c-0.9,2.6-1.6,4.7-1.6,4.7c0,0-0.4-1.1-0.8-2.4c-1.8-5.1-2.9-8.5-3.6-10.4l-0.7-2l0.8,0c0.7,0,0.9-0.1,1.1-0.2
		c0.4-0.3,0.6-0.6,0.6-1c0-0.4-0.1-0.7-0.6-1c-0.2-0.2-0.3-0.2-2.8-0.2l-2.6,0v1h2c2.4,0,2.8,0,2.9,0.1c0.1,0.1,0.1,0.1,0,0.2
		c-0.1,0.1-0.3,0.1-1.2,0.1c-1,0-1.1,0-1.3,0.1c-0.1,0.1-0.1,0.2-0.1,0.3c0,0.1,1.2,3.8,2.8,8.2c1.5,4.4,2.8,8.3,2.9,8.6
		c0.2,0.6,0.4,0.7,0.7,0.6c0.3-0.1,0.1,0.3,2.3-6.2c1.7-5.2,1.8-5.3,1.7-5.6c-0.4-1.1-2.5-5.9-2.6-6c-0.1-0.1-0.5-0.1-1-0.1
		c-1,0-1.1,0-1.1-0.3c0-0.1,0.2-0.2,5-0.2c4.4,0,5,0,5,0.1c0,0.1,0,0.2,0,0.2c-0.1,0.1-0.3,0.1-1.2,0.1h-1.1l-0.1,0.2
		c-0.1,0.2-0.1,0.3,0.6,2.4c2.1,6.2,2.7,8,4.1,11.9c0.8,2.3,1.5,4.3,1.6,4.4c0.1,0.2,0.5,0.3,0.7,0c0.2-0.2,2.3-7.1,2.6-8.7
		c0.4-1.7,0.3-3.8-0.1-5.3c-0.3-1-0.5-1.3-1.6-2.9c-1.3-1.8-1.5-2.2-1.5-3c0-1.4,1.1-2.6,2.3-2.6h0.5l0.7,0.7c1.1,1.2,2,2.3,2.7,3.8
		c0.5,1,0.6,1.2,0.3,2.5c-0.1,0.5-1.3,4.3-3.2,9.9c-1.7,5-3.1,9.2-3.1,9.3c0,0.1-0.2,0.3-0.4,0.4c-0.4,0.3-0.5,0.4-0.3,0.7
		c0.2,0.4,0.5,0.3,1.3-0.1c3.7-2.2,6.6-6.2,7.8-10.5c0.4-1.5,0.5-2.3,0.6-4C62.9,31.9,62.7,30.4,62,28.3z M61.8,36.1
		c-0.5,3.4-2,6.6-4.3,9.1c-0.8,0.9-2.1,2-2.1,1.9c0,0,0.9-2.9,2.1-6.3c1.2-3.4,2.5-7.4,2.9-8.8c1-3,0.9-2.8,0.9-2.8
		c0,0,0.1,0.3,0.2,0.7C61.9,31.9,62,34.3,61.8,36.1z"/>
	<path d="M34.4,41.6c0-1.4-0.1-2.6-0.1-3.1c0-0.1-0.1-0.3-0.1-0.4C34,38,33.6,38,33,37.9C33.5,39.2,34,40.4,34.4,41.6z"/>
	<path d="M32.2,44.3c0,0.7-0.1,1.1-0.1,1.4c0.7,0.8,1.4,1.5,2.2,2.1c0-0.4,0-0.8,0-1.3C33.6,45.8,32.9,45.1,32.2,44.3z"/>
	<path d="M28,37.8c0.3,1.3,0.7,2.5,1.4,3.8c0.5,1.1,1.1,2,1.8,3c0-0.2,0-0.8,0-1.7c-1-1.5-1.7-3.2-2.2-5.1
		C28.7,37.8,28.4,37.8,28,37.8z"/>
	<path d="M35.8,45.3c0,0.1,0.1,0.2,0.1,0.3c0.5,1.4,0.9,2.5,0.9,2.6c0,0-0.4-0.2-0.8-0.5c-0.1,0-0.1-0.1-0.2-0.1v1.2
		c2,1.2,4.2,2.1,6.6,2.5c1,0.2,3.8,0.2,4.9,0.1c1.6-0.2,3.3-0.6,4.7-1.2c0.4-0.2,0.6-0.3,0.6-0.4c0.1-0.5-0.3-0.8-0.8-0.6
		c-0.2,0.1-0.3,0.1-0.4,0.1s-0.3-0.4-0.5-1c-0.2-0.6-1.4-3.7-2.6-7.1C47,37.9,46,35.2,46,35.1c0,0-0.2-0.1-0.4-0.1
		c-0.1,0-0.3,0-0.4,0.1c0,0.1-0.7,1.7-1.4,3.7c-0.7,2-1.9,5.2-2.6,7.2c-0.7,2-1.3,3.7-1.3,3.7c0,0-0.4-0.1-0.9-0.3L38.2,49L38,48.5
		c-0.1-0.2-1-2.8-2.3-6.1c0,0.6,0,1.2,0,1.9V45.3z M42.1,46.7c0.6-1.7,1.6-4.5,2.3-6.4c0.7-1.8,1.2-3.3,1.2-3.4
		c0-0.2,0.3,0.6,1.7,4.4c3.2,8.7,3.1,8.3,2.9,8.4c-0.2,0.1-1.8,0.5-2.7,0.6c-1,0.1-3.4,0.2-4.3,0c-0.4,0-1-0.2-1.5-0.3
		C41,50,40.9,50,40.9,49.9C41,49.8,41.5,48.4,42.1,46.7z"/>
	<path d="M32.1,23.6l0.2-0.3c0.9-1.2,2.3-2.4,3.8-3.4c1.1-0.8,1.3-1,1.1-1.3c-0.2-0.3-0.5-0.3-1.1,0.1c-1.3,0.8-2.9,2.1-4.1,3.5
		l0.1,0.1V23.6z"/>
	<path d="M30,24.9c-0.1,0.1-0.1,0.3-0.2,0.4l0.6,0L30,24.9z"/>
	<path d="M27.6,34.8l1.1,1.3c0-0.1,0-0.2,0-0.3c-0.1-1.1-0.1-3.8,0.1-4.8c0.2-0.9,0.6-2.6,0.7-2.6c0,0,0.5,1.3,1.2,3.2v-1.9v-0.9
		c-0.2-0.4-0.3-0.7-0.3-0.8c-0.2-0.5-0.3-1-0.3-1c0,0,0.1-0.3,0.3-0.6l-1.1,0c-1.1,2.3-1.6,4.8-1.6,7.5
		C27.6,34.2,27.6,34.5,27.6,34.8z"/>
	<path d="M30.7,23.8c0,0-0.1,0.1-0.1,0.1l0.1,0.1V23.8z"/>
	<path d="M38.3,18.6c0.4,0,1-0.3,1.1-0.5c0.1-0.3,0.1-0.3-0.1-0.5c-0.2-0.2-0.4-0.2-0.9,0c-0.2,0.1-0.4,0.2-0.5,0.3
		C37.6,18.1,37.8,18.6,38.3,18.6z"/>
	<polygon points="32.1,23.7 32.1,23.6 32,23.7 	"/>
	<path d="M28,37.8c0.4,0,0.7,0,1,0c-0.1-0.6-0.2-1.1-0.3-1.7l-1.1-1.3C27.7,35.9,27.8,36.9,28,37.8z"/>
	<path d="M32,23.7L32,23.7l0.1-1.4L32,22.2c-0.3,0.4-0.6,0.7-0.9,1.1c-0.1,0.2-0.3,0.4-0.4,0.6V24l0.6,0.6l0,0h0.8L32,23.7L32,23.7z
		"/>
	<path d="M32.4,36.1c0.2,0.6,0.4,1.2,0.7,1.8c0.6,0,0.9,0.1,1.1,0.1c-0.2-0.6-0.4-1.2-0.7-1.8c-0.1,0-0.2,0-0.3,0L32.4,36.1z"/>
	<path d="M30.7,29.7v1.9c0.2,0.4,0.4,0.9,0.5,1.5l0-2.8c-0.2-0.6-0.4-1.1-0.5-1.4V29.7z"/>
	<path d="M35.8,45.3v-0.9c0-0.7,0-1.3,0-1.9c-0.5-1.3-1-2.7-1.5-4c0.1,0.6,0.1,1.7,0.1,3.1C35,43.2,35.5,44.6,35.8,45.3z"/>
	<path d="M34.3,46.5c0,0.4,0,0.9,0,1.3c0.5,0.4,0.9,0.7,1.4,1v-1.2C35.3,47.2,34.8,46.9,34.3,46.5z"/>
	<path d="M31.2,44.7c-0.2,1.6-1.2,2.8-2.8,3.1c-0.6,0.1-17.4,0.1-18,0c-1.2-0.3-2.1-1.1-2.6-2.2c-0.2-0.6-0.3-1.3-0.2-3.3l0-1.9
		l8.8,0c9.8,0,8.9,0,9.4-0.5c0.4-0.4,0.4-0.5,0.4-5.2c0-4,0-4.2-0.1-4.4c-0.2-0.3-0.4-0.5-0.7-0.7l-0.3-0.1l-8.7,0l-8.8,0v-4.5
		c0-2.5,0-4.7,0.1-5c0-0.3,0.1-0.7,0.2-0.9c0.4-1.1,1.4-1.9,2.5-2.2c0.3-0.1,1.4-0.1,5.8-0.1l5.4,0l0,4.2c0,4.7,0,4.4,0.5,4.9
		c0.4,0.5,0.1,0.4,4.9,0.5l2.3,0c0.2-0.4,0.4-0.7,0.6-1.1l-3,0c-2,0-3.7,0-3.8,0c-0.3-0.1-0.3-0.1-0.3-4.1v-3.7l3.9,3.9l3.5,3.5
		c0.2-0.3,0.4-0.6,0.6-0.9l-3.3-3.3l-5-5l-5.8,0c-4.8,0-5.9,0-6.3,0.1C10,15.8,9.5,16,9.2,16.2c-0.5,0.3-0.7,0.4-1.2,0.9
		c-0.5,0.5-0.6,0.7-0.9,1.1c-0.5,1-0.5,0.8-0.5,6.3l0,4.9l-2.2,0c-2.1,0-2.2,0-2.4,0.2c-0.3,0.2-0.5,0.4-0.7,0.7
		c-0.1,0.2-0.1,0.5-0.1,4.4c0,2.9,0,4.3,0.1,4.6c0.1,0.4,0.4,0.8,0.8,1c0.2,0.1,0.5,0.1,2.4,0.1h2.2l0,2.3c0,2.6,0.1,2.8,0.5,3.7
		c0.2,0.4,0.4,0.7,0.9,1.1c0.5,0.5,0.7,0.6,1.2,0.9c1.1,0.5,0.5,0.5,10.3,0.5s9.2,0,10.3-0.5c0.5-0.3,0.7-0.4,1.2-0.9
		c0.5-0.5,0.6-0.7,0.9-1.1c0.2-0.3,0.3-0.5,0.3-0.8c-0.3-0.3-0.6-0.7-0.9-1.1C31.2,44.6,31.2,44.7,31.2,44.7z M2.3,39.2
		c-0.1-0.1-0.1-0.2-0.1-4.3c0-4.2,0-4.2,0.1-4.4l0.1-0.2h11.2h11.2l0.1,0.2c0.1,0.2,0.1,0.2,0.1,4.4c0,4.1,0,4.2-0.1,4.3
		C24.8,39.4,2.5,39.4,2.3,39.2z"/>
	<path d="M32.1,35.3c0.1,0.1,0.1,0.3,0.2,0.4c0,0,0,0,0,0.1c0-0.2,0-0.4,0-0.6V33c-0.1-0.2-0.1-0.3-0.2-0.5V35.3z"/>
	<path d="M31.2,42.9c0,0.8,0,1.4,0,1.7c0.3,0.4,0.6,0.7,0.9,1.1c0.1-0.3,0.1-0.7,0.1-1.4C31.9,43.8,31.5,43.4,31.2,42.9z"/>
	<path d="M30.4,25.3l-0.6,0c-0.2,0.4-0.4,0.7-0.6,1.1l1.1,0c0.1-0.2,0.2-0.5,0.4-0.7V24L30.6,24c-0.2,0.3-0.4,0.6-0.6,0.9L30.4,25.3
		z"/>
	<path d="M30.7,25.7c0.2-0.3,0.3-0.5,0.4-0.7l0.2-0.3L30.7,24V25.7z"/>
	<path d="M32.1,35.3v-2.8c-0.3-0.9-0.6-1.6-0.8-2.3l0,2.8C31.5,33.8,31.8,34.5,32.1,35.3z"/>
	<path d="M8.7,31.8c-0.3-0.1-0.4-0.1-1.5-0.2c-1.2,0-1.2,0-1.4,0.1l-0.1,0.2v3c0,1.8,0,3,0.1,3.1c0.1,0.2,0.4,0.3,0.6,0.2
		c0.3-0.1,0.3-0.4,0.3-1.3V36h0.8c0.6,0,0.8,0,1.1-0.1c0.5-0.2,1-0.6,1.2-1.1c0.2-0.3,0.2-0.4,0.2-1c0-0.6,0-0.6-0.2-1
		C9.4,32.3,9.1,32,8.7,31.8z M8.3,34.8C8.1,34.9,8,35,7.4,35H6.6v-1.2v-1.2h0.7c0.4,0,0.8,0,0.9,0.1C9.1,33.1,9.1,34.4,8.3,34.8z"/>
	<path d="M15.8,36.4c0.1-1.2-0.7-2-2.1-2.1c-0.9-0.1-1.2-0.3-1.2-0.8c0-0.3,0.1-0.6,0.4-0.8c0.2-0.1,0.3-0.1,0.9-0.1
		c0.8,0,0.9,0.1,1,0.5c0.1,0.5,0.5,0.7,0.9,0.4c0.1-0.1,0.2-0.2,0.2-0.5c0-0.6-0.4-1.1-0.9-1.4c-0.3-0.1-0.4-0.2-1.1-0.1
		c-0.6,0-0.9,0-1.1,0.1c-0.4,0.2-0.9,0.7-1.1,1.2c-0.1,0.4-0.1,1.1,0.1,1.5c0.3,0.6,0.8,0.9,1.9,1c0.7,0.1,0.8,0.1,1,0.3
		c0.2,0.2,0.2,0.3,0.2,0.5c0,0.4-0.1,0.6-0.4,0.8c-0.2,0.1-1,0.2-1.4,0.1c-0.3-0.1-0.4-0.2-0.5-0.7c-0.1-0.4-0.6-0.5-0.9-0.2
		c-0.3,0.3-0.1,1.1,0.4,1.6c0.4,0.4,0.6,0.4,1.5,0.4c0.9,0,1.2-0.1,1.6-0.5C15.6,37.3,15.7,37,15.8,36.4z"/>
	<path d="M17.7,38.2l1.2,0c1.3,0,1.5,0,2-0.4c0.2-0.1,0.4-0.3,0.5-0.5c0.4-0.5,0.4-0.7,0.4-2c0.1-1.9-0.1-2.5-0.8-3.1
		c-0.5-0.5-0.8-0.6-2.2-0.6c-1.1,0-1.1,0-1.3,0.2l-0.2,0.2v3v3l0.2,0.2L17.7,38.2z M18.4,34.9v-2.3h0.7c0.6,0,0.8,0,1,0.1
		c0.6,0.3,0.7,0.7,0.6,2.4c0,1.3-0.1,1.4-0.4,1.7c-0.3,0.3-0.5,0.3-1.2,0.3l-0.7,0V34.9z"/>
</g>
</svg>
