<?xml version="1.0" encoding="utf-8"?>
<!-- Generator: Adobe Illustrator 21.0.0, SVG Export Plug-In . SVG Version: 6.00 Build 0)  -->
<svg version="1.1" id="Layer_1" xmlns="http://www.w3.org/2000/svg" xmlns:xlink="http://www.w3.org/1999/xlink" x="0px" y="0px"
	 viewBox="0 0 395 386" style="enable-background:new 0 0 395 386;" xml:space="preserve">
<g>
	<path d="M387.6,198.7c-0.1,4.9-3.5,10.5-9.3,14.9c-11.6,8.7-23.1,17.6-34.8,26.1c-3,2.2-3.3,4.1-2.3,7.4
		c4.4,13.8,8.5,27.7,12.7,41.5c4.5,15.2-4.8,27.9-20.5,28.2c-14.9,0.3-29.7,0.6-44.6,0.7c-2.8,0-3.9,1-4.7,3.5
		c-4.7,14-9.5,27.9-14.3,41.8c-5.3,15.4-20.3,20.2-33.6,10.9c-12.2-8.5-24.4-17-36.5-25.6c-2-1.4-3.3-1.4-5.2,0
		c-11.9,8.5-23.9,16.8-35.9,25.2c-14.2,9.9-28.8,5.2-34.5-11.2c-4.7-13.6-9.5-27.1-14-40.7c-1-3.1-2.5-3.9-5.6-3.9
		c-14.7-0.1-29.5-0.4-44.2-0.7c-15.2-0.3-24.7-13.2-20.4-27.8c4.3-14.5,8.7-28.9,13.2-43.3c0.8-2.5,0.3-3.7-1.8-5.2
		c-11.9-8.9-23.8-17.9-35.6-26.9C3,203.8,3,188.1,15.9,178.4c11.5-8.8,23.1-17.6,34.7-26.1c2.6-1.9,3.3-3.6,2.3-6.7
		c-4.4-13.9-8.6-27.9-12.8-41.9c-4.7-15.6,4.8-28.2,21-28.4c14.7-0.2,29.5-0.6,44.2-0.7c2.7,0,3.7-1,4.4-3.3
		c4.7-13.9,9.5-27.9,14.4-41.8C129.6,13.8,144.4,9,158,18.4c12.1,8.4,24.2,16.8,36.2,25.4c2.1,1.5,3.4,1.6,5.5,0.1
		c12.1-8.6,24.3-17.1,36.5-25.6c13.1-9.2,28.2-4.3,33.4,10.8c4.9,14,9.7,28.1,14.4,42.1c0.9,2.6,2.1,3.4,4.8,3.4
		c14.9,0.1,29.7,0.4,44.6,0.7c15.5,0.3,24.9,13.1,20.5,28c-4.3,14.5-8.7,28.9-13.2,43.3c-0.7,2.4-0.2,3.5,1.6,4.9
		c12,9,24,18,35.9,27.1C384.7,183.4,387.6,189,387.6,198.7z M337.2,96.7c0.2-3-1.8-3.5-4.4-3.5c-17.4-0.3-34.7-0.6-52.1-0.9
		c-6.4-0.1-8.9-1.9-11-8.1C264.1,68.1,258.6,52,253,35.8c-1.7-4.9-3-5.3-7.2-2.3c-14,9.8-28,19.6-42.1,29.4
		c-5.3,3.7-8.2,3.7-13.6-0.1c-13.9-9.7-27.8-19.5-41.8-29.2c-4.5-3.1-5.7-2.8-7.4,2.4c-5.5,15.9-11,31.8-16.5,47.8
		c-2.4,6.9-4.6,8.5-11.7,8.6c-17,0.3-34,0.6-51,0.9c-4.8,0.1-5.6,1.1-4.2,5.6c4.9,16.2,9.9,32.5,14.8,48.7c2.2,7.1,1.4,9.7-4.6,14.2
		c-13.3,10-26.5,20-39.8,30.1c-5,3.8-5,4.6,0.1,8.4c13.3,10,26.5,20,39.8,30.1c5.7,4.3,6.6,7,4.5,13.9c-4.9,16.2-9.9,32.5-14.8,48.7
		c-1.4,4.7-0.6,5.7,4.4,5.8c17.1,0.3,34.2,0.6,51.4,0.9c6.4,0.1,8.9,1.9,11,8.1c5.6,16.2,11.1,32.3,16.7,48.5
		c1.7,4.9,2.9,5.3,7.2,2.3c14-9.8,28-19.6,42.1-29.4c5.3-3.7,8.2-3.7,13.3-0.1c14,9.8,28,19.6,42.1,29.4c4.4,3.1,5.7,2.8,7.4-2.4
		c5.5-16,11.1-32.1,16.6-48.1c2.2-6.4,4.6-8.1,11.3-8.2c17-0.3,34-0.6,51-0.9c5.3-0.1,6.1-1.1,4.5-6c-5-16.4-10-32.7-14.9-49.1
		c-1.9-6.3-1-9.1,4.2-13c13.5-10.2,26.9-20.3,40.4-30.5c4.9-3.7,4.9-4.7,0.1-8.3c-13.5-10.2-26.9-20.3-40.4-30.5
		c-5.3-4-6.2-6.8-4.3-13.3c3.1-10.3,6.3-20.5,9.4-30.8C333,110.5,335.1,103.7,337.2,96.7z"/>
	<path d="M197.1,90.2c58.5,0,105.8,47.5,105.7,106c-0.1,58.5-47.6,105.8-106.1,105.6C138.4,301.6,91.2,254.3,91.2,196
		C91.2,137.5,138.6,90.1,197.1,90.2z M284.8,196.2c0.1-48.4-39-87.8-87.4-88c-48.6-0.2-88.1,39-88.2,87.6c-0.1,48.6,39.2,88,87.8,88
		C245.4,283.8,284.7,244.6,284.8,196.2z"/>
	<path d="M183.2,208.1c4.5-4.6,8.8-9,13.1-13.3c10.6-10.6,21.1-21.3,31.8-31.7c1.9-1.9,4.7-3.4,7.3-4c4.2-1,7.9,0.8,10.3,4.6
		c2.4,3.8,2.3,7.8-0.2,11.6c-0.8,1.2-1.9,2.3-3,3.3c-16.6,16.6-33.2,33.2-49.8,49.8c-6.5,6.5-12,6.5-18.6-0.1
		c-7.9-7.8-15.7-15.7-23.6-23.6c-4.9-4.9-5.2-11.3-0.9-15.6c4.3-4.3,10.7-4,15.6,0.9C171.2,196,177,201.9,183.2,208.1z"/>
</g>
</svg>
