<?xml version="1.0" encoding="utf-8"?>
<!-- Generator: Adobe Illustrator 21.0.0, SVG Export Plug-In . SVG Version: 6.00 Build 0)  -->
<svg version="1.1" id="Layer_1" xmlns="http://www.w3.org/2000/svg" xmlns:xlink="http://www.w3.org/1999/xlink" x="0px" y="0px"
	 viewBox="0 0 64 64" style="enable-background:new 0 0 64 64;" xml:space="preserve">
<g>
	<path d="M57.2,2.6c-1.3-1-3.4-0.8-4.5,0.6c-3.3,4-6.6,7.9-9.9,11.9c-0.9,1.1-1.8,2.2-2.9,3.5c0-4.2,0-8.3,0-12.3
		c0-3.4-2.2-5.5-5.6-5.6c-1.8,0-3.7,0-5.5,0c-6.5,0-12.9,0-19.4,0c-0.4,0-0.8,0-1.2,0.1C6.2,1.1,4.1,3.1,4.1,6.3
		c0,17.1,0,34.2,0,51.4c0,3.4,2.7,5.8,5.8,5.7c8.2-0.1,16.3,0,24.5,0c3.5,0,5.7-2.3,5.7-5.7c0-8.2,0-16.3,0-24.5
		c0-0.2,0.1-0.4,0-0.6c-0.2-0.4,0-0.6,0.2-0.9c2-2.8,4-5.5,6-8.3c3.9-5.4,7.7-10.8,11.6-16.2C58.9,5.7,58.6,3.7,57.2,2.6z M16.3,2.6
		c1.9,0,3.8,0,5.7,0c1.9,0,3.9,0,5.8,0c0.4,0,0.5,0.1,0.5,0.5c-0.1,1-0.8,1.8-1.9,1.8c-2.9,0-5.9,0-8.8,0c-1,0-1.8-0.8-1.9-1.7
		C15.7,2.8,15.7,2.6,16.3,2.6z M38.1,57.7c0,2.3-1.4,3.7-3.7,3.7c-8.2,0-16.5,0-24.7,0c-2.4,0-3.9-1.7-3.7-4.1C6,56.9,6.3,57,6.5,57
		c1.9,0,3.8,0,5.7,0c3.3,0,6.6,0,9.8,0c5.1,0,10.2,0,15.4,0C38,57,38.1,57.1,38.1,57.7z M37.5,55c-10.3,0-20.6,0-30.8,0
		C6.1,55,6,54.9,6,54.4c0-16,0-32.1,0-48.1c0-2.4,1.3-3.7,3.7-3.7c1.2,0,2.3,0,3.5,0c0.4,0,0.5,0,0.6,0.5c0.1,2.4,1.6,3.8,4,3.8
		c2.8,0,5.6,0,8.4,0c2.3,0,3.9-1.4,4-3.8c0-0.4,0.1-0.6,0.6-0.6c1.2,0,2.4,0,3.7,0c2,0,3.5,1.5,3.5,3.5c0,4.8,0,9.5,0,14.3
		c0,0.3-0.1,0.6-0.3,0.8c-2.8,3.3-5.5,6.7-8.3,10c-0.2,0.2-0.3,0.3-0.6,0.4c-1.1,0.3-2,0.9-2.7,1.7c-1.5,1.7-2.4,3.6-2.8,5.9
		c-0.5,2.8-1,5.7-1.8,8.4c-0.2,0.8,0.3,1.5,1.1,1.4c3.1-0.5,6-1.5,8.5-3.5c2.3-1.9,3.9-4.3,4.6-7.2c0.1-0.3,0.2-0.5,0.4-0.8
		c0.6-0.9,1.3-1.8,2-2.7c0.2,0.2,0.1,0.4,0.1,0.6c0,6.3,0,12.7,0,19C38.1,54.9,38,55,37.5,55z M32.1,34.1c1.5,0.9,2.1,2.3,1.7,3.9
		c-0.5,2.2-1.7,4-3.4,5.5c-1.8,1.7-4.1,2.6-6.6,3.2c0.8-2.9,1.2-5.8,1.9-8.6c0.4-1.5,1.2-2.8,2.4-3.8C29.3,33.3,30.7,33.3,32.1,34.1
		z M43.6,23.7c-2.7,3.7-5.4,7.5-8,11.2c0,0-0.1,0-0.1,0.1c-1.3-1.9-1.9-2.4-3.9-3.2c3.7-4.4,7.4-8.9,11.1-13.4
		c0.4,1.7,0.7,3.3,1.1,4.8C43.8,23.4,43.7,23.5,43.6,23.7z M56.2,6.1c-3.6,5-7.1,9.9-10.7,14.9c0,0.1-0.1,0.2-0.2,0.1
		c-0.3-1.4-0.6-2.8-0.9-4.2c-0.1-0.3-0.1-0.6,0.2-0.9c3.2-3.8,6.4-7.7,9.6-11.5c0.5-0.6,1.3-0.8,1.9-0.3C56.6,4.6,56.7,5.4,56.2,6.1
		z"/>
	<path class="st0" d="M59.1,17c-0.7-0.1-1.1,0.3-1.1,1.2c0,5.2,0,10.5,0,15.7c0,5.1,0,10.3,0,15.4c0,0.2,0,0.4,0,0.6
		c0.1,0.5,0.4,0.8,0.9,0.8c0.5,0,0.9-0.2,1-0.8c0-0.2,0-0.5,0-0.8c0-10.3,0-20.5,0-30.8c0-0.3,0-0.5,0-0.8
		C59.8,17.3,59.5,17.1,59.1,17z"/>
	<path d="M53.8,26.7c-0.1-0.6-0.4-0.9-1-0.8c-0.6,0-0.9,0.4-0.9,1.1c0,3.8,0,7.6,0,11.3c0,3.7,0,7.3,0,11c0,1.1,0.3,1.5,1,1.5
		c0.7,0,0.9-0.4,0.9-1.5c0-7.3,0-14.7,0-22C53.9,27.2,53.9,26.9,53.8,26.7z"/>
	<path d="M47.3,35.1c-0.7-0.3-1.4,0.1-1.4,1c0,2.3,0,4.6,0,6.9c0,2.3,0,4.5,0,6.8c0,0.6,0.2,1,0.8,1.1c0.7,0.1,1.1-0.3,1.1-1.1
		c0-2.7,0-5.4,0-8.1c0-1.8,0-3.7,0-5.5C47.8,35.7,47.7,35.3,47.3,35.1z"/>
	<path d="M15.6,23.3c4.3,0,8.6,0,12.9,0c0.9,0,1.2-0.3,1.2-1.3c0-2.4,0-4.8,0-7.2c0-1-0.3-1.3-1.3-1.3c-2.1,0-4.3,0-6.4,0
		c-2.1,0-4.2,0-6.4,0c-1,0-1.3,0.3-1.3,1.3c0,2.4,0,4.9,0,7.3C14.4,23,14.7,23.3,15.6,23.3z M16.8,15.5c1.7,0,3.5,0,5.2,0
		c1.7,0,3.5,0,5.2,0c0.4,0,0.5,0.1,0.5,0.5c0,1.6,0,3.3,0,4.9c0,0.3-0.1,0.5-0.4,0.5c-3.5,0-7.1,0-10.6,0c-0.3,0-0.4-0.1-0.4-0.4
		c0-1.7,0-3.3,0-5C16.3,15.6,16.5,15.5,16.8,15.5z"/>
	<path class="st0" d="M14,29.5c3.7,0,7.4,0,11.1,0c0.1,0,0.3,0,0.4,0c0.7-0.1,1.1-0.8,0.8-1.4c-0.2-0.4-0.6-0.6-1-0.5
		c-1.9,0-3.8,0-5.7,0c-1.9,0-3.8,0-5.7,0c-0.8,0-1.3,0.6-1.1,1.3C13,29.4,13.5,29.5,14,29.5z"/>
	<path class="st0" d="M19.9,33.5c-2,0-3.9,0-5.9,0c-0.8,0-1.2,0.4-1.2,1c0,0.6,0.4,0.9,1.1,1c1,0,1.9,0,2.9,0c1,0,2,0,3,0
		c0.7,0,1.1-0.4,1.1-1C21,33.9,20.6,33.5,19.9,33.5z"/>
	<path d="M19,39.4c-0.9,0-1.7,0-2.6,0c-0.8,0-1.7,0-2.5,0c-0.7,0-1.1,0.3-1.1,1c0,0.6,0.3,1,1.1,1c1.7,0,3.4,0,5.2,0
		c0.7,0,1.1-0.4,1.1-0.9C20.1,39.8,19.7,39.4,19,39.4z"/>
	<path d="M24.6,58.2c-0.9,0-1.8,0-2.6,0c-0.9,0-1.8,0-2.6,0c-0.7,0-1.1,0.4-1.1,1c0,0.6,0.4,1,1.1,1c1.8,0,3.6,0,5.3,0
		c0.7,0,1-0.4,1-1C25.7,58.5,25.3,58.2,24.6,58.2z"/>
</g>
</svg>
