<?xml version="1.0" encoding="utf-8"?>
<!-- Generator: Adobe Illustrator 21.0.0, SVG Export Plug-In . SVG Version: 6.00 Build 0)  -->
<svg version="1.1" id="Capa_1" xmlns="http://www.w3.org/2000/svg" xmlns:xlink="http://www.w3.org/1999/xlink" x="0px" y="0px"
	 viewBox="0 0 512 512" style="enable-background:new 0 0 512 512;" xml:space="preserve">
<g>
	<path d="M392.6,131.2C392.6,58.9,333.8,0,261.4,0S130.2,58.9,130.2,131.2c0,44.3,22.1,83.5,55.8,107.3c-1.5,0.7-2.9,1.5-4.3,2.3
		l-71.1,42.9c-5.1-4.3-11.8-6.9-19-6.9H47.9c-16.3,0-29.6,13.3-29.6,29.6v176c0,16.3,13.3,29.6,29.6,29.6h43.6
		c7.6,0,14.5-2.8,19.7-7.5c8.7,4.9,18.5,7.5,28.7,7.5h166.7c19.7,0,35.7-16,35.7-35.7c0-4.5-0.8-8.9-2.5-13
		c-1.7-4.3-4.1-8.1-7.2-11.4c11.7-5.9,19.8-18,19.8-32c0-9.2-3.4-17.8-9.7-24.5c11.7-5.9,19.8-18,19.8-32c0-14-8.1-26.1-19.8-32
		c6-6.4,9.7-15,9.7-24.5c0-9.5-3.7-18.5-10.5-25.3c-6.8-6.7-15.7-10.5-25.3-10.5h-16.7v-14.5C353.6,240.1,392.6,190.2,392.6,131.2
		L392.6,131.2z M145.2,131.2C145.2,67.1,197.3,15,261.4,15s116.2,52.1,116.2,116.2s-52.1,116.2-116.2,116.2S145.2,195.3,145.2,131.2
		L145.2,131.2z M204,271.2c-4.1,0-7.5,3.4-7.5,7.5s3.4,7.5,7.5,7.5h112.7c5.5,0,10.7,2.2,14.7,6.1c3.9,3.9,6.1,9.1,6.1,14.7
		c0,11.4-9.3,20.7-20.7,20.7c-4.1,0-7.5,3.4-7.5,7.5s3.4,7.5,7.5,7.5h10.1c11.4,0,20.7,9.3,20.7,20.7c0,11.4-9.3,20.7-20.7,20.7
		h-10.1c-4.1,0-7.5,3.4-7.5,7.5s3.4,7.5,7.5,7.5c5.5,0,10.7,2.2,14.7,6.1c3.9,3.9,6.1,9.1,6.1,14.7c0,11.4-9.3,20.7-20.7,20.7h-10.1
		c-4.1,0-7.5,3.4-7.5,7.5s3.4,7.5,7.5,7.5c5.5,0,10.7,2.2,14.7,6.1c2,2,3.6,4.4,4.6,7.1c0.9,2.4,1.4,5,1.4,7.6
		c0,11.4-9.3,20.7-20.7,20.7H139.9c-7.2,0-14.1-1.7-20.3-5.1c1-3,1.6-6.2,1.6-9.5V442c0-4.1-3.4-7.5-7.5-7.5s-7.5,3.4-7.5,7.5v40.5
		c0,8.1-6.6,14.6-14.6,14.6H47.9c-8,0-14.6-6.5-14.6-14.6v-176c0-8.1,6.5-14.6,14.6-14.6h43.6c8.1,0,14.6,6.5,14.6,14.6V412
		c0,4.1,3.4,7.5,7.5,7.5s7.5-3.4,7.5-7.5V306.4c0-3.7-0.7-7.1-1.9-10.4l70.2-42.3c4.3-2.6,9.1-4.2,14-4.8c6,3,12.2,5.5,18.7,7.5
		v14.8L204,271.2L204,271.2z M284.9,271.2h-47.8v-11c7.9,1.5,16,2.3,24.3,2.3c8,0,15.9-0.7,23.5-2.1L284.9,271.2z"/>
	<path d="M68.3,54l24.2,11.8c3.4,1.7,7,2.4,10.6,2.4c8.4,0,16.6-4.4,21-12.1l1.2-2.2c0,0,0,0,0,0c6.3-11,3.1-25.1-7.4-32.1l-22.4-15
		c-5.5-3.7-12.4-5-18.9-3.5c-6.5,1.5-12.1,5.7-15.5,11.5L58,20.2C54.7,26,53.9,33,55.9,39.4S62.4,51.1,68.3,54z M71,27.7l3.1-5.3
		c1.3-2.2,3.4-3.8,5.9-4.3c0.7-0.2,1.4-0.2,2.1-0.2c1.8,0,3.6,0.5,5.1,1.6l22.4,15c4,2.7,5.2,8,2.8,12.2l-1.2,2.2
		c-2.4,4.2-7.7,5.8-12,3.7L74.9,40.6c-2.3-1.1-4-3.1-4.7-5.6C69.4,32.6,69.7,30,71,27.7z"/>
	<path d="M454.5,208.4l-24.2-11.8c-11.4-5.6-25.2-1.3-31.6,9.6l-1.2,2.2c0,0,0,0,0,0c-6.3,11-3.1,25.1,7.4,32.1l22.4,15
		c4,2.7,8.7,4.1,13.5,4.1c1.8,0,3.6-0.2,5.4-0.6c6.5-1.5,12.1-5.7,15.5-11.5l3.1-5.3c3.3-5.8,4.1-12.8,2.2-19.1
		C465,216.7,460.5,211.3,454.5,208.4L454.5,208.4z M451.8,234.7l-3.1,5.3c-1.3,2.2-3.4,3.8-5.9,4.3c-2.5,0.6-5.1,0.1-7.2-1.3
		l-22.4-15c-4-2.7-5.2-8-2.8-12.2l1.2-2.2c2.4-4.2,7.7-5.8,12-3.7l24.2,11.8c2.3,1.1,4,3.1,4.7,5.6
		C453.4,229.9,453.1,232.5,451.8,234.7L451.8,234.7z"/>
	<path d="M36.8,152c4.5,4.2,10.4,6.5,16.5,6.5c0.5,0,1.1,0,1.6-0.1l26.9-1.8c12.6-0.9,22.5-11.5,22.5-24.1V130
		c0-12.7-9.9-23.2-22.5-24.1L55,104c-6.7-0.5-13.3,1.9-18.2,6.4s-7.7,11-7.7,17.7v6.2C29.1,141,31.9,147.4,36.8,152L36.8,152z
		 M44.1,128.1c0-2.6,1-4.9,2.9-6.7c1.7-1.6,3.9-2.5,6.2-2.5c0.2,0,0.4,0,0.6,0l26.9,1.8c4.8,0.3,8.5,4.3,8.5,9.1v2.5
		c0,4.8-3.8,8.8-8.5,9.1l-26.9,1.8c-2.6,0.2-5-0.7-6.9-2.4s-2.9-4.1-2.9-6.7V128.1z"/>
	<path d="M486,110.5c-4.9-4.6-11.5-6.9-18.2-6.4l-26.9,1.8c-12.6,0.9-22.5,11.5-22.5,24.1v2.5c0,12.7,9.9,23.2,22.5,24.1l26.9,1.8
		c0.5,0,1.1,0.1,1.6,0.1c6.1,0,12-2.3,16.5-6.5c4.9-4.6,7.7-11,7.7-17.7v-6.2C493.7,121.5,490.9,115,486,110.5L486,110.5z
		 M478.7,134.3c0,2.6-1,4.9-2.9,6.7c-1.9,1.8-4.3,2.6-6.9,2.4l-26.9-1.8c-4.8-0.3-8.5-4.3-8.5-9.1V130c0-4.8,3.8-8.8,8.5-9.1
		l26.9-1.8c0.2,0,0.4,0,0.6,0c2.3,0,4.5,0.9,6.2,2.5c1.9,1.8,2.9,4.1,2.9,6.7L478.7,134.3L478.7,134.3z"/>
	<path d="M92.6,196.5l-24.2,11.8c-6,2.9-10.5,8.3-12.5,14.7s-1.2,13.4,2.2,19.1l3.1,5.3c3.3,5.8,9,10,15.5,11.5
		c1.8,0.4,3.6,0.6,5.4,0.6c4.8,0,9.5-1.4,13.5-4.1l22.4-15c10.5-7.1,13.8-21.2,7.4-32.1l-1.2-2.2v0
		C117.8,195.2,103.9,191,92.6,196.5L92.6,196.5z M109.5,228l-22.4,15c-2.1,1.4-4.7,1.9-7.2,1.3c-2.5-0.6-4.6-2.1-5.9-4.3l-3.1-5.3
		c-1.3-2.2-1.6-4.8-0.8-7.3c0.8-2.5,2.4-4.4,4.7-5.6L99.2,210c1.3-0.6,2.7-0.9,4-0.9c3.2,0,6.3,1.7,8,4.6v0l1.2,2.2
		C114.8,220,113.5,225.3,109.5,228L109.5,228z"/>
	<path d="M398.7,56.3c4.4,7.7,12.6,12.1,21,12.1c3.6,0,7.2-0.8,10.6-2.4L454.5,54c6-2.9,10.5-8.3,12.5-14.7
		c1.9-6.4,1.1-13.4-2.2-19.1l-3.1-5.3c-3.3-5.8-9-10-15.5-11.5c-6.5-1.5-13.4-0.2-18.9,3.5l-22.4,15c-10.5,7.1-13.8,21.2-7.4,32.1
		L398.7,56.3z M413.3,34.4l22.4-15c1.5-1,3.3-1.6,5.1-1.6c0.7,0,1.4,0.1,2.1,0.2c2.5,0.6,4.6,2.1,5.9,4.3l3.1,5.3
		c1.3,2.2,1.6,4.8,0.8,7.3c-0.8,2.5-2.4,4.4-4.7,5.6l-24.2,11.8c-4.3,2.1-9.6,0.5-12-3.7c0,0,0,0,0,0l-1.2-2.2
		C408,42.5,409.3,37.1,413.3,34.4L413.3,34.4z"/>
	<path d="M282.3,205l34.2-69.1c1.8-3.7,0.3-8.2-3.4-10.1c-3.7-1.8-8.2-0.3-10.1,3.4l-34.2,69.1c-0.9,1.8-2.8,3-4.8,3.1l-27.4,1.1
		c-2.1,0.1-4-1-5.1-2.8l-38.7-64.7c-1.6-2.7-0.7-6.2,1.9-7.8l19.5-11.7c2.7-1.6,6.2-0.7,7.8,2l19.6,32.8c1.4,2.4,4,3.8,6.7,3.6
		c2.7-0.1,5.2-1.7,6.4-4.2l40.3-81.3c0.7-1.4,1.8-2.4,3.3-2.8c1.4-0.5,3-0.4,4.3,0.3l20.4,10.1c1.4,0.7,2.4,1.8,2.8,3.3
		c0.5,1.4,0.4,3-0.3,4.3l-9.3,18.7c-1.8,3.7-0.3,8.2,3.4,10.1c3.7,1.8,8.2,0.3,10.1-3.4l9.2-18.7c2.5-4.9,2.8-10.5,1.1-15.8
		c-1.8-5.2-5.5-9.5-10.4-11.9l-20.4-10.1c-4.9-2.5-10.5-2.8-15.8-1.1c-5.2,1.8-9.5,5.5-11.9,10.4l-34.2,69l-12.6-21
		c-5.8-9.8-18.5-13-28.3-7.1l-19.5,11.7c-9.8,5.8-13,18.6-7.1,28.3l38.7,64.7c3.7,6.3,10.5,10.1,17.7,10.1c0.3,0,0.5,0,0.8,0
		l27.4-1.1C272.2,216.2,279,211.8,282.3,205L282.3,205z"/>
</g>
</svg>
