<?xml version="1.0" encoding="utf-8"?>
<!-- Generator: Adobe Illustrator 21.0.0, SVG Export Plug-In . SVG Version: 6.00 Build 0)  -->
<svg version="1.1" id="Layer_1" xmlns="http://www.w3.org/2000/svg" xmlns:xlink="http://www.w3.org/1999/xlink" x="0px" y="0px"
	 viewBox="0 0 64 64" style="enable-background:new 0 0 64 64;" xml:space="preserve">
<g>
	<path d="M1.7,34.2c0,0.5,0.1,0.7,0.7,0.7c2.1,0,4.3,0,6.4,0c0.4,0,0.5,0,0.5,0.5c0,6,0,12,0,18c0,0.4-0.1,0.5-0.5,0.5
		c-2.2,0-4.3,0-6.5,0c-0.4,0-0.6,0.1-0.6,0.6c0,1.3,0,1.3,1.3,1.3c2.5,0,5.1,0,7.6,0c0.4,0,0.5-0.1,0.5-0.5c0-0.7,0-1.3,0-2
		c0-0.3,0.1-0.3,0.3-0.3c1.2,0,2.5,0,3.7,0c0.7,0,1.1,0.4,1.5,0.9c2,2.4,4.1,4.8,6.1,7.2c1.4,1.7,3.3,1.8,5,0.4
		c0.1-0.1,0.2-0.1,0.3-0.2c0.4-0.5,0.8-0.6,1.5-0.3c1,0.5,2,0.3,3-0.4c0.2-0.1,0.4-0.3,0.5-0.4c0.5-0.5,1-0.8,1.8-0.4
		c0.9,0.5,2,0.2,2.8-0.4c0.2-0.1,0.4-0.3,0.6-0.5c0.5-0.5,0.9-0.6,1.6-0.4c2,0.8,4.1-0.6,4.3-2.7c0-0.3,0.1-0.5,0.4-0.6
		c0.5-0.3,1.1-0.6,1.6-1c1.9-1.7,4.1-1.2,6.3-1.2c0.3,0,0.2,0.2,0.2,0.4c0,0.7,0,1.3,0,2c0,0.4,0.1,0.5,0.5,0.5c3,0,6,0,9,0
		c0-0.6,0-1.3,0-1.9c-2.4,0-4.7,0-7.1,0c-0.4,0-0.5-0.1-0.5-0.5c0-6,0-12,0-18c0-0.4,0.1-0.5,0.5-0.5c2.4,0,4.7,0,7.1,0
		c0-10.9,0-21.7,0-32.6c0-0.5-0.1-0.5-0.5-0.5c-20,0-40,0-60,0C1.7,12.6,1.7,23.4,1.7,34.2z M41.2,56.7c-0.6,0.1-1.1-0.2-1.4-0.6
		c-1.2-1.4-2.3-2.8-3.5-4.2c-0.3-0.3-0.4-0.4-0.8-0.1c-1,0.9-1,0.9-0.2,1.9c0.7,0.9,1.5,1.8,2.2,2.6c0.2,0.2,0.2,0.3,0,0.6
		c-1.3,1.2-2,1.6-3.4-0.2c-1-1.2-2-2.4-3-3.7c-0.5,0.4-1.2,0.7-1.3,1.2c-0.1,0.5,0.6,0.9,0.9,1.4c0.5,0.6,1,1.3,1.6,1.9
		c0.3,0.3,0.3,0.4,0,0.7c-1.4,1.3-2.2,1.2-3.3-0.2c-0.4-0.6-0.9-1.1-1.4-1.6c-0.2-0.2-0.3-0.2-0.5,0C26,57.3,26,57.2,27,58.4
		c0.6,0.7,0.6,0.7-0.1,1.3c-1.2,1-1.8,0.9-2.7-0.2c-2-2.4-4.1-4.8-6.1-7.2c-0.8-0.9-1.8-1.4-3.1-1.4c-1.1,0-2.2,0-3.4,0
		c-0.3,0-0.4-0.1-0.4-0.4c0-4.1,0-8.3,0-12.4c0-0.3,0.1-0.4,0.4-0.4c1.3,0,2.6,0,4,0c0.4,0,0.7-0.1,1-0.3c1.7-1.1,3.3-2.2,5-3.3
		c0.2-0.2,0.5-0.2,0.8-0.2c1.7,0,3.4,0.1,5.1,0c1.1-0.1,2.1,0.2,2.9,1c-0.2,0.3-0.5,0.4-0.7,0.6c-2.7,2.1-5.3,4.3-8,6.4
		c-0.3,0.2-0.3,0.4-0.1,0.7c2.4,3.5,6.4,4.1,9.8,1.6c0.5-0.3,0.9-0.9,1.4-0.9c0.5,0,0.8,0.8,1.1,1.2c2.7,3.2,5.4,6.5,8.1,9.7
		C42.8,55.2,42.4,56.4,41.2,56.7z M16.9,29.3c0-0.4,0.1-0.6,0.5-0.7c0.9-0.3,1.8-0.6,2.7-0.9c0.3-0.1,0.5-0.2,0.6-0.6
		c0.4-1,0.8-2,1.2-3c0.1-0.2,0.1-0.4,0-0.7c-0.4-0.9-0.9-1.8-1.3-2.7c-0.1-0.3-0.1-0.5,0.1-0.7c0.2-0.2,0.4-0.4,0.6-0.6
		c1-1,1-1,2.3-0.4c0.7,0.3,1.4,0.9,2.1,0.9c0.7,0,1.4-0.6,2.1-0.7c1.3-0.3,2-1.1,2.3-2.4c0.1-0.5,0.4-1,0.5-1.6
		C30.6,15,30.7,15,31,15c0.6,0,1.3,0,1.9,0c0.3,0,0.4,0.1,0.5,0.4c0.3,0.9,0.7,1.8,1,2.8c0.1,0.3,0.2,0.4,0.5,0.5c1,0.4,2,0.8,3,1.3
		c0.3,0.1,0.5,0.1,0.7,0c0.9-0.4,1.8-0.8,2.7-1.3c0.3-0.1,0.4-0.1,0.7,0.1c0.4,0.5,0.9,0.9,1.3,1.3c0.3,0.2,0.2,0.4,0.1,0.7
		c-0.4,0.9-0.8,1.7-1.3,2.6c-0.1,0.3-0.2,0.5,0,0.8c0.4,1,0.8,2,1.2,2.9c0.1,0.3,0.3,0.5,0.6,0.6c0.9,0.3,1.8,0.7,2.8,1
		c0.3,0.1,0.4,0.2,0.4,0.5c0,0,0,0,0,0.1c0,0.7,0.2,1.6-0.1,2.2c-0.3,0.6-1.3,0.6-2,0.8c-0.3,0.1-0.7,0.2-1,0.4
		c-0.2,0.1-0.3,0.1-0.5,0c-0.6-0.6-1.4-0.6-2.2-0.5c-0.4,0-0.4-0.1-0.4-0.5c0.4-4.9-3.2-9.2-8.1-9.7c-4.7-0.5-9,3-9.7,7.7
		c-0.1,0.8-0.1,1.6,0,2.4c-0.3,0-0.6,0-0.9,0c-0.6-0.1-1.1,0-1.6,0.5c-0.2,0.2-0.4,0.2-0.7,0.1c-0.9-0.3-1.8-0.7-2.7-0.9
		c-0.3-0.1-0.4-0.3-0.4-0.6C16.9,30.4,16.9,29.8,16.9,29.3z M32.1,25.5c-2.8,0-5.9,2.5-5.1,6.5c-0.3,0-0.6,0-0.9,0
		c-1.1,0-1.1,0-1.1-1.1c-0.1-3.7,2.8-6.9,6.5-7.2c3.7-0.3,7,2.3,7.6,6c0.1,0.6,0.1,1.3,0,1.9c0,0.3-0.1,0.4-0.4,0.4
		c-0.5,0-1,0-1.5,0C37.9,28.3,35,25.5,32.1,25.5z M35.2,31.6c-0.1,0.2-0.1,0.4-0.4,0.4c-0.6-0.1-1.1,0.3-1.5,0.6
		c-0.4,0.3-0.9,0.9-1.3,0.9c-0.5,0-0.9-0.6-1.4-0.8C30,32.4,29.7,32,29,32c-0.2,0-0.2-0.2-0.2-0.4c-0.6-2.1,1-4.2,3.2-4.2
		C34.2,27.4,35.8,29.5,35.2,31.6z M52.8,44.3c0,2,0,4.1,0,6.1c0,0.4-0.1,0.5-0.5,0.5c-1.4,0-2.7,0-4.1,0c-0.3,0-0.6,0.1-0.8,0.2
		c-1.1,0.7-2.3,1.3-3.4,2c-0.3,0.2-0.4,0.1-0.6-0.1c-3-3.6-6-7.2-9-10.7c-0.2-0.2-0.2-0.4,0.1-0.5c0.4-0.2,0.7-0.5,1-0.8
		c0.2-0.2,0.3-0.3,0.1-0.6c-0.9-1.2-0.9-1.2-2.1-0.3c-1.2,0.9-2.5,1.9-3.7,2.8c-1.7,1.2-4,1.2-5.6-0.1c-0.3-0.2-0.3-0.3,0-0.6
		c3.4-2.7,6.8-5.4,10.2-8.1c0.2-0.2,0.4-0.2,0.6-0.2c2.2,0,4.5,0,6.7,0c0.3,0,0.5,0.1,0.7,0.2c1.7,1.1,3.4,2.2,5,3.3
		c0.3,0.2,0.6,0.3,0.9,0.3c1.3,0,2.6,0,3.8,0c0.4,0,0.6,0.1,0.6,0.5C52.8,40.2,52.8,42.3,52.8,44.3z M60.4,32.4
		c0,0.4-0.1,0.6-0.5,0.5c-2.2,0-4.4,0-6.6,0c-0.4,0-0.5,0.1-0.5,0.5c0,0.7,0,1.3,0,2c0,0.3-0.1,0.4-0.4,0.4c-1.2,0-2.5,0-3.7,0
		c-0.1,0-0.2,0-0.3,0c-0.9-0.6-1.8-1.1-2.7-1.8c1-0.4,1.9-0.7,2.9-1c0.3-0.1,0.5-0.2,0.5-0.6c0-1.5,0-3,0-4.5c0-0.4-0.1-0.5-0.5-0.6
		c-1.1-0.4-2.1-0.8-3.2-1.1C45.1,26,45,26,44.9,25.7c-0.2-0.5-0.4-1.1-0.7-1.6c-0.1-0.3,0-0.5,0.1-0.7c0.5-1,0.9-2,1.4-3
		c0.2-0.3,0.2-0.5-0.1-0.7c-1.1-1-2.1-2.1-3.2-3.2c-0.3-0.3-0.4-0.3-0.7-0.1c-1,0.5-2,0.9-3,1.4c-0.3,0.1-0.6,0.1-0.9,0
		c-1.3-0.3-2.1-1.1-2.4-2.5c-0.1-0.6-0.4-1.2-0.6-1.8c-0.1-0.4-0.2-0.5-0.7-0.5c-1.5,0-2.9,0-4.4,0c-0.4,0-0.6,0.2-0.7,0.5
		c-0.4,1.1-0.8,2.1-1.1,3.2c-0.1,0.2-0.2,0.4-0.4,0.5c-0.5,0.2-1.1,0.4-1.6,0.7c-0.2,0.1-0.4,0-0.6-0.1c-1-0.5-2.1-1-3.1-1.5
		c-0.3-0.2-0.5-0.2-0.7,0.1c-1,1.1-2.1,2.1-3.2,3.2c-0.3,0.3-0.3,0.4-0.1,0.7c0.5,1,0.9,2,1.4,2.9c0.2,0.3,0.1,0.6,0,1
		c-0.3,1.3-1.1,2-2.4,2.3c-0.6,0.1-1.1,0.4-1.7,0.6c-0.5,0.1-0.6,0.3-0.6,0.8c0,1.4,0,2.8,0,4.3c0,0.4,0.1,0.5,0.5,0.7
		c0.9,0.3,1.8,0.6,2.9,1c-1,0.6-1.8,1.2-2.7,1.8c-0.1,0.1-0.3,0-0.5,0c-1.1,0-2.3,0-3.4,0c-0.3,0-0.4-0.1-0.4-0.4c0-0.6,0-1.3,0-1.9
		c0-0.4-0.1-0.5-0.5-0.5c-2.2,0-4.4,0-6.6,0c-0.4,0-0.5-0.1-0.5-0.5c0-6.9,0-13.8,0-20.7c0-0.4,0.1-0.5,0.5-0.5
		c18.6,0,37.1,0,55.7,0c0.4,0,0.5,0.1,0.5,0.5C60.4,18.6,60.4,25.5,60.4,32.4z M4.2,3.6c9.3,0,18.6,0,27.9,0c9.2,0,18.5,0,27.7,0
		c0.5,0,0.6,0.1,0.6,0.6c0,1.5,0,3.1,0,4.6c0,0.4-0.1,0.5-0.5,0.5c-18.6,0-37.2,0-55.8,0c-0.4,0-0.5-0.1-0.5-0.5c0-1.6,0-3.1,0-4.7
		C3.6,3.7,3.7,3.6,4.2,3.6z"/>
	<path d="M6.4,51.9c1,0,1,0,1-1c0-0.9,0-0.9-0.9-0.9c-1,0-1,0-1,1C5.5,51.9,5.5,51.9,6.4,51.9z"/>
	<path d="M57.5,50c-1,0-1,0-1,0.9c0,1,0,1,0.9,1c1,0,1,0,1-0.9C58.5,50,58.5,50,57.5,50z"/>
	<path d="M14.6,20.6c-1.4,0-2.9,0-4.3,0c-1.1,0-2.2,0-3.3,0c-1.4,0-1.4,0-1.4,1.4c0,0.4,0.1,0.5,0.5,0.5c2.5,0,5,0,7.6,0
		c1.5,0,1.4,0,1.4-1.5C15,20.7,14.9,20.6,14.6,20.6z"/>
	<path d="M57.1,22.5c1.4,0,1.4,0,1.4-1.4c0-0.4-0.1-0.5-0.5-0.5c-2.5,0-5,0-7.5,0c-0.5,0-1.1-0.2-1.4,0.1c-0.3,0.3,0,0.9-0.1,1.4
		c0,0.4,0.1,0.5,0.5,0.5c1.4,0,2.8,0,4.3,0C54.9,22.5,56,22.5,57.1,22.5z"/>
	<path d="M10.8,24.4c-0.8,0-1.7,0-2.5,0c-0.5,0-0.9,0-1.4,0c-1.5,0-1.4,0-1.4,1.5c0,0.3,0.1,0.4,0.4,0.4c1.3,0,2.5,0,3.8,0
		c1.6,0,1.5,0,1.5-1.5C11.2,24.5,11.1,24.4,10.8,24.4z"/>
	<path d="M58,24.4c-1.2,0-2.5,0-3.7,0c-1.6,0-1.5,0-1.5,1.5c0,0.3,0.1,0.4,0.4,0.4c0.8,0,1.6,0,2.4,0c0.5,0,1,0,1.5,0
		c1.4,0,1.4,0,1.4-1.4C58.5,24.5,58.4,24.4,58,24.4z"/>
	<path d="M21.3,7.4c12,0,23.9,0,35.9,0c1.3,0,1.3,0,1.3-1.3c0-0.5-0.1-0.6-0.6-0.6c-6.1,0-12.2,0-18.3,0c-5.9,0-11.8,0-17.7,0
		c-1.2,0-1.2,0-1.3,1.2C20.6,7.3,20.8,7.4,21.3,7.4z"/>
	<path d="M6.5,7.4c0.9,0,0.9,0,0.9-0.9c0-1,0-1-1-1c-0.8,0-0.8,0-0.8,0.9C5.5,7.4,5.5,7.4,6.5,7.4z"/>
	<path d="M10.2,7.4c1,0,1,0,1-1c0-0.9,0-0.9-0.9-0.9c-1,0-1,0-1,1C9.3,7.4,9.3,7.4,10.2,7.4z"/>
	<path d="M14.1,7.4c0.9,0,0.9,0,0.9-0.9c0-1,0-1-1-1c-0.9,0-0.9,0-0.9,0.9C13.1,7.4,13.1,7.4,14.1,7.4z"/>
</g>
</svg>
