<?xml version="1.0"?>
<svg xmlns="http://www.w3.org/2000/svg" viewBox="0 0 64 64"><g id="Strategy"><path d="M61,46H57.489a8.97,8.97,0,0,0-.365-.879l2.483-2.484a1,1,0,0,0,0-1.414l-2.83-2.83a1,1,0,0,0-1.414,0l-2.484,2.483A8.97,8.97,0,0,0,52,40.511V37a1,1,0,0,0-1-1H47a1,1,0,0,0-1,1v3.511a8.97,8.97,0,0,0-.879.365l-2.484-2.483a1,1,0,0,0-1.414,0l-2.83,2.83a1,1,0,0,0,0,1.414l2.483,2.484a8.97,8.97,0,0,0-.365.879H37a1,1,0,0,0-1,1v4a1,1,0,0,0,1,1h3.511a8.97,8.97,0,0,0,.365.879l-2.483,2.484a1,1,0,0,0,0,1.414l2.83,2.83a1,1,0,0,0,1.414,0l2.484-2.483a8.97,8.97,0,0,0,.879.365V61a1,1,0,0,0,1,1h4a1,1,0,0,0,1-1V57.489a8.97,8.97,0,0,0,.879-.365l2.484,2.483a1,1,0,0,0,1.414,0l2.83-2.83a1,1,0,0,0,0-1.414l-2.483-2.484A8.97,8.97,0,0,0,57.489,52H61a1,1,0,0,0,1-1V47A1,1,0,0,0,61,46Zm-1,4H56.75a1,1,0,0,0-.968.748,6.736,6.736,0,0,1-.748,1.8,1,1,0,0,0,.149,1.224l2.3,2.3L56.07,57.486l-2.3-2.3a1,1,0,0,0-1.224-.149,6.736,6.736,0,0,1-1.8.748A1,1,0,0,0,50,56.75V60H48V56.75a1,1,0,0,0-.748-.968,6.736,6.736,0,0,1-1.8-.748,1,1,0,0,0-1.224.149l-2.3,2.3L40.514,56.07l2.3-2.3a1,1,0,0,0,.149-1.224,6.736,6.736,0,0,1-.748-1.8A1,1,0,0,0,41.25,50H38V48h3.25a1,1,0,0,0,.968-.748,6.736,6.736,0,0,1,.748-1.8,1,1,0,0,0-.149-1.224l-2.3-2.3,1.416-1.416,2.3,2.3a1,1,0,0,0,1.224.149,6.736,6.736,0,0,1,1.8-.748A1,1,0,0,0,48,41.25V38h2v3.25a1,1,0,0,0,.748.968,6.736,6.736,0,0,1,1.8.748,1,1,0,0,0,1.224-.149l2.3-2.3,1.416,1.416-2.3,2.3a1,1,0,0,0-.149,1.224,6.736,6.736,0,0,1,.748,1.8A1,1,0,0,0,56.75,48H60Z"/><path d="M49,44a5,5,0,1,0,5,5A5.006,5.006,0,0,0,49,44Zm0,8a3,3,0,1,1,3-3A3,3,0,0,1,49,52Z"/><path d="M50,9a1,1,0,0,0,1,1h4a3,3,0,0,1,3,3V37a1,1,0,0,0,2,0V13a5.006,5.006,0,0,0-5-5H51A1,1,0,0,0,50,9Z"/><path d="M11,56H7a3,3,0,0,1-3-3V13a3,3,0,0,1,3-3H43a1,1,0,0,0,0-2H7a5.006,5.006,0,0,0-5,5V53a5.006,5.006,0,0,0,5,5h4a1,1,0,0,0,0-2Z"/><path d="M35,56H19a1,1,0,0,0,0,2H35a1,1,0,0,0,0-2Z"/><path d="M56,36a1,1,0,0,0,1-1V13a2,2,0,0,0-2-2H51a1,1,0,0,0,0,2h4V35A1,1,0,0,0,56,36Z"/><path d="M11,53H7V13H43a1,1,0,0,0,0-2H7a2,2,0,0,0-2,2V53a2,2,0,0,0,2,2h4a1,1,0,0,0,0-2Z"/><path d="M36,53H19a1,1,0,0,0,0,2H36a1,1,0,0,0,0-2Z"/><path d="M33.964,33.732a3.021,3.021,0,0,1,.5.558,1,1,0,1,0,1.641-1.143,5.012,5.012,0,0,0-.832-.926,1,1,0,0,0-1.31,1.511Z"/><path d="M35.138,43.892A5.02,5.02,0,0,0,36,43a1,1,0,1,0-1.6-1.2,2.987,2.987,0,0,1-.521.539,1,1,0,0,0,1.257,1.556Z"/><path d="M30.714,43h-1a1,1,0,0,0,0,2h1a1,1,0,0,0,0-2Z"/><path d="M25.857,31h-1a1,1,0,0,0,0,2h1a1,1,0,0,0,0-2Z"/><path d="M20.714,43h-1a1,1,0,0,0,0,2h1a1,1,0,0,0,0-2Z"/><path d="M22.571,21h1a1,1,0,0,0,0-2h-1a1,1,0,1,0,0,2Z"/><path d="M20.857,31l-.97,0a.968.968,0,0,0-1.03.969A1,1,0,0,0,19.826,33l1.031,0a1,1,0,0,0,0-2Z"/><path d="M27.571,21h1a1,1,0,0,0,0-2h-1a1,1,0,1,0,0,2Z"/><path d="M37,38.571v-1a1,1,0,0,0-2,0v1a1,1,0,0,0,2,0Z"/><path d="M33.571,19h-1a1,1,0,1,0,0,2h1a1,1,0,0,0,0-2Z"/><path d="M25.714,43h-1a1,1,0,0,0,0,2h1a1,1,0,0,0,0-2Z"/><path d="M30.857,31h-1a1,1,0,0,0,0,2h1a1,1,0,0,0,0-2Z"/><path d="M16,26.143a1,1,0,0,0,1-1v-1a1,1,0,0,0-2,0v1A1,1,0,0,0,16,26.143Z"/><path d="M15,59a1,1,0,0,0-1,1v1a1,1,0,0,0,2,0V60A1,1,0,0,0,15,59Z"/><path d="M38.571,21a1,1,0,0,0,0-2h-1a1,1,0,0,0,0,2Z"/><path d="M15,54a1,1,0,0,0-1,1v1a1,1,0,0,0,2,0V55A1,1,0,0,0,15,54Z"/><path d="M18.95,21.188a1,1,0,1,0-.7-1.874,4.985,4.985,0,0,0-1.106.579,1,1,0,0,0,1.143,1.642A3.017,3.017,0,0,1,18.95,21.188Z"/><path d="M15.342,44.592a4.979,4.979,0,0,0-.731,1.011,1,1,0,1,0,1.755.959,2.991,2.991,0,0,1,.438-.6,1,1,0,1,0-1.462-1.365Z"/><path d="M17.121,28.848a1,1,0,1,0-1.92.559,4.923,4.923,0,0,0,.5,1.146,1,1,0,0,0,1.718-1.024A2.962,2.962,0,0,1,17.121,28.848Z"/><path d="M15,49a1,1,0,0,0-1,1v1a1,1,0,0,0,2,0V50A1,1,0,0,0,15,49Z"/><path d="M46.639,18.662a1,1,0,0,0,.91-.584,4.985,4.985,0,0,0,.373-1.19,1,1,0,0,0-1.969-.355,2.989,2.989,0,0,1-.223.714,1,1,0,0,0,.909,1.415Z"/><path d="M43,21a5.014,5.014,0,0,0,.709-.05,1,1,0,1,0-.28-1.98A3.03,3.03,0,0,1,43,19h-.429a1,1,0,0,0,0,2Z"/><path d="M48,11.714a1,1,0,1,0-2,0v1a1,1,0,0,0,2,0Z"/><path d="M48,6.714a1,1,0,1,0-2,0v1a1,1,0,0,0,2,0Z"/><path d="M44.707,6.707,47,4.414l2.293,2.293a1,1,0,0,0,1.414-1.414l-3-3a1,1,0,0,0-1.414,0l-3,3a1,1,0,0,0,1.414,1.414Z"/><path d="M39,33h6a1,1,0,0,0,.857-1.515l-3-5a1.039,1.039,0,0,0-1.714,0l-3,5A1,1,0,0,0,39,33Zm3-4.056L43.234,31H40.766Z"/><path d="M17,42V38a1,1,0,0,0-1-1H12a1,1,0,0,0-1,1v4a1,1,0,0,0,1,1h4A1,1,0,0,0,17,42Zm-2-1H13V39h2Z"/><path d="M10.879,20.121a1,1,0,0,0,1.414,0L13,19.414l.707.707a1,1,0,1,0,1.414-1.414L14.414,18l.707-.707a1,1,0,1,0-1.414-1.414L13,16.586l-.707-.707a1,1,0,1,0-1.414,1.414l.707.707-.707.707A1,1,0,0,0,10.879,20.121Z"/><path d="M31,52a3,3,0,1,0-3-3A3,3,0,0,0,31,52Zm0-4a1,1,0,1,1-1,1A1,1,0,0,1,31,48Z"/></g></svg>
