<?xml version="1.0" standalone="no"?>
<!DOCTYPE svg PUBLIC "-//W3C//DTD SVG 20010904//EN"
 "http://www.w3.org/TR/2001/REC-SVG-20010904/DTD/svg10.dtd">
<svg version="1.0" xmlns="http://www.w3.org/2000/svg"
 width="512.000000pt" height="512.000000pt" viewBox="0 0 512.000000 512.000000"
 preserveAspectRatio="xMidYMid meet">

<g transform="translate(0.000000,512.000000) scale(0.100000,-0.100000)"
fill="#000000" stroke="none">
<path d="M2970 5105 c-263 -42 -494 -177 -673 -394 l-28 -33 -52 49 c-95 90
-205 153 -337 195 -66 20 -95 23 -235 23 -153 0 -164 -2 -246 -31 -225 -80
-383 -217 -484 -419 -51 -103 -85 -231 -85 -322 l0 -62 -42 -11 c-133 -35
-300 -149 -385 -263 -273 -368 -169 -869 228 -1100 123 -72 256 -97 515 -97
l174 0 0 85 0 85 -203 0 c-149 0 -219 4 -262 15 -261 67 -439 294 -439 560 0
264 178 494 434 560 78 21 252 16 317 -8 l41 -15 31 75 c17 42 30 77 28 78
-15 12 -120 38 -189 47 -102 14 -98 8 -72 136 71 353 422 590 769 518 139 -29
263 -98 356 -198 l46 -51 -33 -81 c-55 -136 -56 -128 23 -149 37 -9 73 -17 79
-17 6 0 22 28 34 63 111 307 366 530 680 593 124 25 324 15 440 -21 267 -85
471 -272 580 -532 36 -85 57 -189 66 -320 l7 -103 79 0 c259 0 478 -168 554
-425 24 -80 24 -220 0 -300 -49 -163 -157 -294 -301 -365 -112 -55 -152 -60
-468 -60 l-288 0 3 -82 3 -83 250 -3 c275 -3 382 6 488 44 244 85 432 301 483
554 20 99 15 249 -11 345 -72 263 -303 477 -570 527 l-64 12 -6 46 c-81 610
-635 1029 -1235 935z"/>
<path d="M2868 4125 c-114 -57 -195 -120 -252 -196 -158 -211 -179 -462 -58
-694 43 -81 132 -180 202 -225 l50 -32 0 -694 c0 -675 1 -695 21 -748 28 -77
94 -146 171 -181 166 -76 358 -4 437 164 l26 56 3 703 3 702 40 25 c110 70
219 218 260 355 27 88 31 232 10 320 -45 185 -174 344 -358 438 -56 29 -106
52 -112 52 -8 0 -11 -74 -11 -239 l0 -239 -153 -51 c-83 -28 -158 -51 -165
-51 -9 0 -12 65 -12 290 0 160 -3 290 -7 290 -5 -1 -47 -20 -95 -45z m-51
-765 c4 0 153 48 330 107 l323 108 0 160 1 160 40 -45 c137 -151 158 -389 50
-559 -45 -69 -127 -144 -199 -180 l-62 -31 0 -739 0 -738 -23 -34 c-39 -58
-83 -81 -148 -77 -63 5 -110 32 -137 81 -16 29 -17 92 -20 769 l-2 737 -63 35
c-83 46 -137 94 -181 161 -120 180 -105 418 36 571 l43 47 3 -267 c1 -146 6
-266 9 -266z"/>
<path d="M1830 4038 c-145 -23 -274 -135 -323 -282 -14 -42 -17 -98 -17 -361
l0 -311 80 -39 c76 -37 80 -41 80 -72 0 -31 -4 -35 -80 -73 l-80 -40 0 -235 0
-235 80 0 80 0 0 -422 0 -422 121 -183 c67 -101 125 -183 128 -183 3 0 61 84
129 185 l122 185 0 420 0 420 80 0 80 0 0 235 0 235 -80 40 c-76 38 -80 42
-80 73 0 31 4 35 80 72 l80 39 0 301 c0 310 -5 357 -45 435 -80 157 -257 247
-435 218z m151 -172 c56 -20 103 -61 135 -118 l29 -53 3 -252 4 -252 -86 -43
-86 -42 0 -68 0 -68 -80 0 -80 0 0 68 0 68 -86 42 -85 42 3 253 c3 247 4 254
28 301 56 110 188 163 301 122z m114 -1083 l55 -27 0 -98 0 -98 -250 0 -250 0
0 98 0 98 53 26 c49 25 61 27 194 27 135 1 145 0 198 -26z m-115 -793 l0 -400
-36 -55 c-20 -30 -40 -55 -44 -55 -4 0 -24 25 -44 55 l-36 55 0 400 0 400 80
0 80 0 0 -400z"/>
<path d="M910 3789 c-73 -14 -163 -64 -214 -119 -56 -60 -102 -154 -112 -228
l-7 -53 84 3 83 3 8 42 c7 43 42 106 74 135 28 25 105 58 137 58 l27 0 0 85
c0 95 5 91 -80 74z"/>
<path d="M410 1950 c0 -199 0 -200 23 -205 12 -3 100 -21 196 -40 96 -19 176
-36 177 -38 2 -1 17 -45 34 -97 18 -52 57 -147 87 -211 l55 -117 -110 -164
-110 -165 281 -281 282 -281 168 109 168 110 97 -49 c53 -26 147 -65 207 -86
61 -21 112 -40 114 -41 3 -3 80 -371 81 -386 0 -5 180 -8 400 -8 220 0 400 3
400 8 1 15 78 383 81 386 2 1 54 20 114 41 61 21 154 60 207 86 l97 49 168
-110 168 -110 282 282 281 281 -110 165 -110 164 55 117 c30 64 69 159 87 211
17 52 32 96 34 97 1 2 81 19 177 38 96 19 184 37 196 40 23 5 23 6 23 205 l0
200 -85 0 -85 0 0 -134 0 -133 -137 -27 c-256 -51 -227 -39 -242 -103 -31
-136 -108 -321 -189 -459 l-31 -51 100 -149 c54 -82 99 -154 99 -159 0 -6 -82
-92 -183 -193 l-182 -182 -154 102 -153 102 -52 -28 c-176 -96 -358 -170 -469
-191 -20 -4 -41 -12 -45 -19 -4 -6 -23 -87 -42 -181 l-35 -170 -265 0 -265 0
-35 170 c-19 94 -38 175 -42 181 -4 7 -25 15 -45 19 -111 21 -293 95 -469 191
l-52 28 -153 -102 -154 -102 -182 182 c-101 101 -183 187 -183 193 0 5 45 77
99 159 l100 149 -30 51 c-85 145 -139 270 -180 419 -13 49 -31 92 -39 96 -8 5
-90 23 -182 41 l-168 33 0 133 0 134 -85 0 -85 0 0 -200z"/>
<path d="M1079 2143 c-4 -30 5 -163 16 -234 53 -333 230 -654 485 -876 306
-266 718 -402 1106 -364 323 31 614 156 854 364 297 259 485 648 502 1037 l3
75 -83 3 -82 3 0 -53 c0 -81 -27 -232 -61 -341 -65 -212 -178 -395 -340 -554
-174 -170 -369 -278 -617 -341 -98 -25 -123 -27 -302 -27 -179 0 -204 2 -302
27 -248 63 -443 171 -617 341 -162 159 -275 342 -340 554 -34 109 -61 260 -61
341 l0 52 -80 0 c-44 0 -80 -3 -81 -7z"/>
</g>
</svg>
