<?xml version="1.0" encoding="utf-8"?>
<!-- Generator: Adobe Illustrator 21.0.0, SVG Export Plug-In . SVG Version: 6.00 Build 0)  -->
<svg version="1.1" id="Layer_1" xmlns="http://www.w3.org/2000/svg" xmlns:xlink="http://www.w3.org/1999/xlink" x="0px" y="0px"
	 viewBox="0 0 402 375" style="enable-background:new 0 0 402 375;" xml:space="preserve">
<g>
	<path d="M393,289.3c-1.5,6.2-2.5,12.5-4.4,18.5c-11.1,33.8-42.1,56.7-77.7,57.4c-16,0.3-32,0.1-48,0.1c-4.2,0-6.6-2-6.8-5.4
		c-0.1-3.5,2.5-5.9,6.7-5.9c15-0.1,30,0,45-0.1c36.7-0.1,66-24.3,72.8-60.4c7.6-40.1-22.5-80.5-63-84.5c-4.7-0.5-9.5-0.4-14.2-0.4
		c-5.9,0-7.5-1.4-7.9-7.4c-2.3-31.9-29.4-60.1-61.1-63.5c-38.5-4.1-70.4,18.8-78.5,56.6c-1.2,5.4-3.9,6.8-9.4,5
		c-36.7-12-73.7,9.8-80.8,47.7c-0.5,2.9-0.7,6-0.9,8.9c-0.3,5.4-1.5,6.8-6.7,7.7c-9.3,1.6-17.3,5.7-24,12.2
		c-13.4,13.1-17.4,32.5-10.4,49.7c6.9,17.1,23.4,28.3,42.2,28.3c55.2,0.1,110.5,0,165.7,0c2.4,0,4.8-0.1,7.1,0
		c3.8,0.2,6,2.5,5.9,5.9c-0.1,3.2-2.2,5.3-6,5.3c-7.7,0.1-15.5,0-23.2,0c-49.4,0-98.7,0-148.1,0c-27.5,0-49.6-16.7-56.4-42.2
		c-8-29.6,9.8-60.9,39.3-69c2.9-0.8,3.6-2.1,3.6-4.9c-0.1-39-0.1-78-0.1-117c0-1.4-0.1-2.8,0.1-4.1c0.3-3.4,2.4-5.4,5.5-5.5
		c3,0,5.3,2,5.7,5.3c0.1,1.1,0.1,2.2,0.1,3.4c0,27.1,0,54.2,0,81.4c0,1.4,0,2.7,0,4.9c1.1-1.3,1.8-1.9,2.3-2.6
		c6.1-8.4,13.6-15.3,22.7-20.4c2.5-1.4,3.1-2.9,3.1-5.6c-0.1-44.1-0.1-88.2-0.1-132.4c0-6.4,1-7.6,7.5-9c-7.1-7.6-14.1-15-21.5-22.8
		c-7.2,7.6-14.2,15.1-21.3,22.7c6.7,2,7.3,2.8,7.3,9.8c0,15.1,0,30.2,0,45.4c0,1.4,0,2.8-0.3,4.1c-0.7,3-2.7,4.5-5.7,4.3
		c-3-0.2-4.8-1.9-5.2-4.9c-0.1-1.2-0.1-2.5-0.1-3.7c0-12.9,0-25.7,0-38.6c0-1.3,0-2.7,0-4.5c-3.4,0-6.5,0.4-9.3-0.1
		c-1.9-0.4-4.4-1.7-5.1-3.3c-0.7-1.6-0.2-4.7,0.9-6c11.4-12.5,23-24.7,34.6-36.9c2.6-2.8,5.9-2.7,8.6,0.1
		c11.5,12.1,23.1,24.3,34.3,36.7c1.3,1.4,1.8,4.6,1.1,6.3c-0.6,1.5-3.3,2.8-5.2,3.2c-2.8,0.5-5.7,0.1-8.9,0.1c0,42.9,0,85.6,0,128.3
		c4.8-0.8,9.7-2,14.6-2.4c4.8-0.4,9.7-0.1,14.8-0.1c0-25.8,0-51.2,0-77.2c-2.9,0-5.9,0.4-8.7-0.1c-2-0.4-4.7-1.8-5.4-3.4
		c-0.7-1.7,0-4.9,1.3-6.3c11.1-12.2,22.5-24.2,33.8-36.1c3.1-3.3,6.3-3.3,9.4-0.1c11.3,12,22.6,24,33.9,36c1.8,1.9,2.6,4,1.5,6.5
		c-1.1,2.6-3.2,3.7-6,3.6c-2.7-0.1-5.5,0-8.4,0c0,9.3,0,18.4,0,27.2c9.6-3.1,19.3-6.3,29.5-9.6c0-18.4,0-37.6,0-57.3
		c-2.9,0-5.8-0.1-8.6,0c-2.8,0.1-5.4-0.8-5.8-3.5c-0.4-2,0.1-4.9,1.4-6.4C212.9,46,224.3,34,235.6,22c3-3.2,6.4-3.2,9.4,0
		c11.3,12,22.6,24,33.9,36c1.9,2,2.9,4.6,1.2,6.7c-1.3,1.6-3.7,2.7-5.7,3.2c-2.6,0.5-5.5,0.1-8.6,0.1c-0.1,1.4-0.2,2.6-0.2,3.8
		c0,20.5,0,41,0.1,61.5c0,1.4,0.6,3.5,1.6,4.1c11.3,6.9,20.4,16,27.9,27.8c0-14.2,0-27.7,0-41.6c-2.9,0-5.7-0.1-8.5,0
		c-2.7,0.1-4.6-0.9-5.7-3.3c-1.1-2.5-0.6-4.6,1.3-6.5c11.4-12.1,22.8-24.2,34.2-36.3c2.9-3.1,6.2-3.1,9.1,0
		c11.4,12.1,22.9,24.1,34.1,36.4c1.3,1.4,1.8,4.6,1.1,6.3c-0.6,1.6-3.2,2.8-5.2,3.2c-2.8,0.5-5.7,0.1-9,0.1
		c-0.1,1.5-0.2,2.8-0.2,4.1c0,12.2,0,24.5,0,36.7c0,2.8-0.6,5.3-3.3,6.6c-3.9,1.9-7.9-0.9-8-5.8c-0.1-10.9,0-21.7,0-32.6
		c0-4.1,0-8.2,0-12.4c0-5.9,1.1-7.1,7.4-8.4c-7.2-7.6-14.1-15-21.5-22.8c-7.2,7.6-14.3,15.1-21.5,22.7c6.6,1.7,7.3,2.5,7.3,9.1
		c0,23.9,0,47.7,0,71.6c0,1.3,0,2.7,0,3.6c9.6,1.4,18.8,2.8,28.3,4.1c0-3.6,0-7.4,0-11.3c0.1-4.2,2.1-6.5,5.6-6.5
		c3.5,0,5.6,2.3,5.7,6.5c0.1,4.7-0.1,9.5,0.1,14.2c0.1,1.3,1,3.1,2.1,3.7c25.4,14.5,40.1,36.1,43.8,65.2c0.1,0.5,0.4,0.9,0.6,1.3
		C393,278.8,393,284,393,289.3z M262,56.5c-7.4-7.9-14.5-15.4-21.7-23c-7.3,7.8-14.3,15.3-21.6,23c6.2,0.9,7.6,2.5,7.6,8.3
		c0,18.9,0,37.7,0,56.6c0,1.4,0,2.9,0,3.6c9.7,1.9,18.8,3.6,28.1,5.4c0-1.2,0-2.8,0-4.4c0-20.5,0-41,0-61.5
		C254.4,59,255.9,57.4,262,56.5z M138.3,96c6.5,1.4,7.3,2.5,7.3,9.2c0,20.4,0,40.7,0,61.1c0,6.3,0,12.6,0,19
		c0.7-0.4,1.1-0.9,1.2-1.4c4.6-15.4,13.2-28.1,25.2-38.7c1.1-1,1.8-3,1.8-4.5c0.1-11.7,0-23.5,0.1-35.2c0-2.2,0-4.8,1.1-6.4
		c1.1-1.6,3.7-2.2,5.8-3.4c-6.9-7.3-14-14.8-21.2-22.4C152.4,81,145.4,88.5,138.3,96z"/>
	<path d="M269.8,240.3c20.7,0,37.2,16.6,37.1,37.5c-0.1,20.2-16.9,37-37,36.9c-20.7-0.1-37.5-16.8-37.4-37.4
		C232.6,256.9,249.3,240.3,269.8,240.3z M270,251.6c-14.4-0.1-26.1,11.5-26.1,25.8c0,14.3,11.8,26.1,26,26.1
		c14.2,0,25.7-11.5,25.9-25.7C295.8,263.2,284.4,251.6,270,251.6z"/>
	<path d="M155.1,314.7c-10.6-0.5-19-3.6-25.9-10.5c-2.9-2.9-3-6.1-0.5-8.6c2.4-2.3,5.5-2.2,8.3,0.5c6.1,5.8,13.3,8.4,21.6,6.5
		c2.2-0.5,4.5-1.8,6.2-3.3c4.4-3.8,4.2-8.9-0.3-12.5c-1.9-1.5-4.2-2.7-6.5-3.6c-5.3-2.3-10.6-4.4-15.9-6.5
		c-6.9-2.6-10.8-7.7-11.5-14.8c-0.8-7.5,2.4-13.4,8.5-17.6c10.8-7.3,26.6-4.3,36.2,4c2.4,2.1,2.4,4.9,0.5,7.4
		c-1.8,2.4-4.9,2.9-7.7,1c-5-3.4-10.3-5.8-16.4-5.1c-2.3,0.3-4.7,1-6.6,2.3c-5.1,3.5-4.4,9.9,1.3,12.3c4.6,2,9.2,3.8,13.9,5.7
		c1.8,0.8,3.7,1.4,5.5,2.3c9.2,4.5,14.2,12.3,13.3,20.6c-1,8.9-8.6,16.8-18.4,18.9C158.6,314.4,156.4,314.6,155.1,314.7z"/>
	<path d="M200.8,251.7c0,7,0,13.3,0,20.1c5.7,0,11.1,0,16.6,0c5,0,7.6,2,7.6,5.7c-0.1,3.7-2.7,5.6-7.8,5.6c-5.3,0-10.7,0-16.3,0
		c0,6.6,0,12.9,0,19.8c1.2,0.1,2.5,0.2,3.8,0.2c5.5,0,11-0.1,16.5,0.1c3.5,0.1,5.9,2.6,5.7,5.7c-0.2,3.3-2.2,5.4-5.5,5.5
		c-8.9,0.1-17.7,0.2-26.6,0c-3.9-0.1-5.5-2.4-5.5-7c-0.1-12.7-0.1-25.5-0.1-38.2c0-7.1,0-14.2,0.1-21.4c0.1-5.3,2-7.1,7.3-7.2
		c7.7,0,15.5,0,23.2,0c4.4,0,7,2.1,7.1,5.5c0.1,3.6-2.6,5.8-7.2,5.8C213.6,251.8,207.4,251.7,200.8,251.7z"/>
</g>
</svg>
