<?xml version="1.0" encoding="utf-8"?>
<!-- Generator: Adobe Illustrator 21.0.0, SVG Export Plug-In . SVG Version: 6.00 Build 0)  -->
<svg version="1.1" id="Layer_1" xmlns="http://www.w3.org/2000/svg" xmlns:xlink="http://www.w3.org/1999/xlink" x="0px" y="0px"
	 viewBox="0 0 429 426" style="enable-background:new 0 0 429 426;" xml:space="preserve">
<g>
	<path d="M418.9,212.8c0.3,112.6-91.8,204.8-204.7,205.1C101.6,418.1,9.4,326.1,9.1,213.2C8.9,100.6,100.9,8.4,213.8,8.1
		C326.4,7.9,418.6,99.9,418.9,212.8z M214.2,22.3C109.4,22,23.8,107.3,23.2,212.6c-0.6,104.6,85.4,190.9,190.6,191.2
		c104.7,0.2,190.3-85.1,190.9-190.3C405.4,108.8,319.3,22.5,214.2,22.3z"/>
	<path d="M184.6,195.6c-6.8,6.9-13.5,13.8-20.3,20.6c-5.2,5.3-8.3,5.3-13.5,0.1c-8.4-8.3-16.8-16.7-25.1-25.1
		c-4.8-4.8-4.8-8-0.1-12.8c27.3-27.4,54.6-54.7,82-82c4.8-4.8,7.9-4.8,12.8,0c27.4,27.3,54.7,54.6,82,82c4.7,4.7,4.6,8-0.1,12.8
		c-8.4,8.5-16.9,17-25.4,25.4c-4.8,4.7-8,4.7-12.8-0.1c-6.9-6.9-13.8-13.9-21.9-22c0,3.1,0,4.8,0,6.5c0,33.1,0,66.3,0,99.4
		c0,9.9-1.6,11.4-11.7,11.4c-10.5,0-21,0-31.5,0c-12.2,0-13.2-1-13.2-12.9c0-32.5,0-65,0-97.4c0-1.8,0-3.6,0-5.4
		C185.4,196,185,195.8,184.6,195.6z M157.9,202.7c9.4-9.4,18.8-19,28.4-28.4c1.6-1.5,3.8-3,5.8-3.3c4.9-0.8,7.7,2.8,7.7,9.1
		c0,37.1,0,74.3,0,111.4c0,1.9,0,3.9,0,6c9.6,0,18.7,0,28.1,0c0-2.3,0-4.3,0-6.3c0-35.8,0-71.6,0-107.4c0-1.8-0.5-3.8,0.1-5.5
		c0.9-2.5,2.1-5.9,4.1-6.7c2.2-0.9,5.5,0.5,8.1,1.4c1.4,0.5,2.4,2.2,3.6,3.4c8.8,8.8,17.5,17.6,25.8,25.9c6.3-6.2,12.2-12,17.5-17.2
		c-24.6-24.6-49.3-49.3-73.3-73.3c-24.2,24.2-48.9,48.9-73.4,73.4C145.9,190.7,151.8,196.6,157.9,202.7z"/>
	<path d="M51.6,212.8c0.2-84.4,64.6-154.7,148.6-161.5c12.2-1,24.6,0.4,36.9,0.9c3.8,0.1,7.3,1.4,8.4,5.8c1.4,5.2-2.9,9.2-9.1,8.4
		c-21.9-3-43.5-1.6-64.7,4.6c-56.3,16.4-98.2,65.9-104.8,124.3c-5.2,46,8.3,86.1,39.9,120.1c0.9,1,2,1.9,2.7,2.9
		c2.3,3.2,2.5,6.6-0.5,9.5c-3.1,3-6.8,3.1-9.8,0c-5.6-6-11.2-11.9-16-18.5C62.1,280.6,51.7,248.4,51.6,212.8z"/>
	<path d="M376.3,220.5c-0.5,36.4-15.6,74.2-46,105.8c-4.1,4.3-7.9,4.8-11.3,1.7c-3.2-3-3-7.2,1-11.3c12.6-13.1,22.7-27.9,30-44.5
		c26.2-59.7,9.4-131.1-40.8-172.7c-1.3-1.1-2.6-2.1-3.8-3.2c-3.1-2.9-3.7-6.3-1.2-9.8c2.3-3.2,6.9-3.8,10.2-0.9
		c7.1,6.3,14.4,12.5,20.7,19.5C362.2,135.1,376.4,172.7,376.3,220.5z"/>
	<path d="M267.9,59c7.7,3.8,14.7,6.8,21.1,10.8c1.4,0.9,1.7,6,0.5,7.8c-1.2,1.9-5.3,3.6-7.5,3c-6-1.8-11.9-4.4-17.3-7.6
		c-1.9-1.1-3.2-5.2-2.8-7.5C262.5,63.3,265.5,61.5,267.9,59z"/>
	<path d="M143.7,328.9c6.4-0.1,10,4.8,7.7,9.6c-2.2,4.8-5,9.4-8,13.7c-2.1,3.1-5.5,3.8-8.8,1.8c-3.2-1.9-4.7-5-3-8.5
		c2.4-4.9,5.2-9.6,8.2-14.2C140.8,330,143,329.3,143.7,328.9z"/>
	<path d="M298.4,348c-2.3,2.6-3.7,5.4-5.7,6.1c-2.1,0.7-6,0.4-7.1-1c-3.7-4.8-6.8-10.2-9.2-15.8c-0.7-1.8,1-5.7,2.8-7.1
		c1.6-1.2,6.2-1.4,7.1-0.3C290.6,335.5,294.1,341.6,298.4,348z"/>
	<path d="M221,360.9c0,2.7,0.2,5.3-0.1,8c-0.4,4-2.8,6.4-6.9,6.4c-4.1,0-6.7-2.3-6.9-6.3c-0.3-5.1-0.3-10.3,0-15.4
		c0.3-4,3.1-6.3,7.1-6.2c3.7,0.1,6.2,2.3,6.7,6.1C221.2,355.9,221,358.4,221,360.9C221,360.9,221,360.9,221,360.9z"/>
	<path d="M185.2,351.4c-1.2,4.2-2.4,9.6-4.3,14.7c-1.3,3.6-4.6,4.7-8.2,3.7c-3.5-1-5.5-3.6-4.8-7.1c1-5.4,2.4-10.7,4.1-15.8
		c1.2-3.6,4.4-4.9,8.1-4C183.9,343.8,185.4,346.6,185.2,351.4z"/>
	<path d="M260.9,364.1c-1.7,1.7-3.4,4.6-5.8,5.6c-3.4,1.5-6.8-0.1-8.1-3.7c-1.8-5.1-3.1-10.5-4.2-15.8c-0.7-3.5,1.2-6.2,4.7-7.2
		c3.6-1.1,7,0,8.3,3.5C257.8,351.8,259,357.3,260.9,364.1z"/>
</g>
</svg>
