<?xml version="1.0" encoding="utf-8"?>
<!-- Generator: Adobe Illustrator 21.0.0, SVG Export Plug-In . SVG Version: 6.00 Build 0)  -->
<svg version="1.1" id="Layer_1" xmlns="http://www.w3.org/2000/svg" xmlns:xlink="http://www.w3.org/1999/xlink" x="0px" y="0px"
	 viewBox="0 0 427 422" style="enable-background:new 0 0 427 422;" xml:space="preserve">
<g>
	<path d="M328.1,175.6c-17.9,24.4-54.9,28.4-76.7,0.4c-20,26.1-56.6,25.9-76.8-0.3c-9.6,12.7-22.4,19.8-38.3,19.8
		c-15.8,0-28.4-7.1-37.6-19.2c-5.3,4.4-10,9.3-15.6,12.7c-24.6,15-58.7,3.7-67.3-22.2c-1.5-4.5-2.4-9.4-2.4-14.2
		c-0.2-33-0.2-66-0.2-99c0-1,0.2-1.9,0.3-3.4c15.6,0,31.1,0,47.1,0c0-12.9,0-25.3,0-38c101.8,0,203,0,304.9,0c0,12.6,0,25,0,37.9
		c16,0,31.4,0,47.5,0c0,2.3,0,4.1,0,5.8c0,31.2,0,62.3,0,93.5c0,21.5-9.9,36.4-28.3,43.1c-20,7.2-41.2,1.6-54.2-14.4
		C329.6,177.4,329,176.7,328.1,175.6z M29.3,66.4C29.3,96,29,125,29.4,154c0.2,11.7,6.8,19.6,17.8,23.5c22.1,8,42.8-6.8,42.8-30.4
		c0-10.6,0-21.2,0-31.9c5.6,0,10.7,0,16,0c0,11.2,0,22,0,32.8c0,17.8,13.3,31.6,30.5,31.6c16.9,0,30.1-13.7,30.3-31.3
		c0.1-9.5,0-19,0-28.5c0-1.6,0.1-3.2,0.2-4.6c5.6,0,10.5,0,15.8,0c0,11.8-0.2,23.3,0,34.8c0.3,15.1,11.4,27.3,26.3,29.2
		c14.9,1.9,28.9-7.1,32.9-21.6c1-3.8,1.2-7.9,1.2-11.9c0.2-10.1,0.1-20.2,0.1-30.5c5.6,0,10.7,0,16,0c0,11.2,0,22,0,32.8
		c0,9.9,3.4,18.4,11.2,24.6c9.7,7.8,20.7,9.3,31.9,4c11.2-5.2,17.3-14.5,17.6-26.9c0.3-11.4,0.1-22.9,0.1-34.5c5.6,0,10.6,0,16,0
		c0,11.8-0.2,23.3,0,34.7c0.3,16.7,14.2,29.9,30.8,29.7c18.7-0.2,29.9-11.4,29.9-29.9c0-26,0-52,0-78c0-1.8-0.2-3.5-0.2-5.3
		C273.9,66.4,151.8,66.4,29.3,66.4z M76.9,49.9c90.8,0,181.4,0,272.1,0c0-7.3,0-14.4,0-21.6c-90.8,0-181.3,0-272.1,0
		C76.9,35.4,76.9,42.4,76.9,49.9z"/>
	<path d="M200.3,264c-23.9,0-46.8,0-70.4,0c0,49.6,0,98.9,0,148.6c-31.2,0-61.8,0-92.7,0c-0.1-1.4-0.3-2.9-0.3-4.3
		c0-63.3,0-126.7,0-190c0-6.2,3.1-9.9,8.1-9.8c5,0.1,7.9,3.7,7.9,10c0,57.3,0,114.7,0,172c0,2,0,3.9,0,6.1c20.4,0,40.4,0,60.7,0
		c0-49.5,0-98.7,0-148.4c34.1,0,67.9,0,102.2,0c0,49.2,0,98.5,0,148.3c52.5,0,104.4,0,157.1,0c0-1.7,0-3.6,0-5.5
		c0-56.5,0-113,0-169.5c0-1.8,0-3.7,0-5.5c0.1-5.9,3.2-9.3,8.2-9.2c4.8,0.1,7.8,3.4,7.8,9c0.1,14.8,0,29.7,0,44.5c0,49,0,98,0,147
		c0,1.6,0,3.3,0,5.3c-62.9,0-125.5,0-188.7,0C200.3,363.4,200.3,314,200.3,264z"/>
	<path d="M252.2,330.6c0-28,0-55.4,0-83.3c27.8,0,55.5,0,83.6,0c0,27.6,0,55.3,0,83.3C308.1,330.6,280.3,330.6,252.2,330.6z
		 M319.8,263.3c-17.3,0-34.4,0-51.4,0c0,17.4,0,34.4,0,51.4c17.3,0,34.2,0,51.4,0C319.8,297.5,319.8,280.6,319.8,263.3z"/>
</g>
</svg>
