<?xml version="1.0" encoding="utf-8"?>
<!-- Generator: Adobe Illustrator 21.0.0, SVG Export Plug-In . SVG Version: 6.00 Build 0)  -->
<svg version="1.1" id="Layer_1" xmlns="http://www.w3.org/2000/svg" xmlns:xlink="http://www.w3.org/1999/xlink" x="0px" y="0px"
	 viewBox="0 0 250 170" style="enable-background:new 0 0 250 170;" xml:space="preserve">
<g>
	<path d="M239,118.3c-1.8,4-3.1,8.5-5.5,12c-5.5,7.9-13.5,11.6-23.1,11.6c-11.8,0.1-23.6,0-35.5,0c-1.8,0-3.6,0-5.9,0
		c1.4,6.4,2.7,12.1,4.2,18.6c-8.6-2.7-16.5-5.1-24.3-7.5c-1.4-0.4-2.9-0.9-4.3-1.4c-20.1-8-40.8-11.2-62.5-9.8
		c-11.4,0.7-23,0.1-34.5,0.1c-19.4,0-27.3-5.6-33.7-23.7c0-28,0-56,0-84C21,15.8,28.1,11,48.4,11c52.9,0,105.8,0,158.7,0
		c3.6,0,7.4,0.1,10.9,1c11.7,2.9,17.7,11.4,21,22.4C239,62.3,239,90.3,239,118.3z M145.7,123.3c2.5,0,4.3,0,6.1,0c19,0,38,0,57,0
		c8.1,0,11.4-3.1,11.4-11c0-24,0-48,0-72c0-7.5-3.5-10.9-11.1-10.9c-55,0-109.9,0-164.9,0c-7.9,0-11.3,3.4-11.3,11.2
		c0,23.8,0,47.6,0,71.5c0,8,3.2,11.2,11.2,11.2c22.3,0,44.6-0.1,67,0.1c3.4,0,6.9,0.7,10.2,1.6c8.5,2.4,17,5.2,26.1,8
		C146.7,129.4,146.3,126.7,145.7,123.3z"/>
	<path d="M79.3,77.7C75,88.1,71,97.5,67.2,107.1c-1.5,3.8-3.4,7-8.1,6.6c-4.5-0.3-6.1-3.7-6.8-7.5c-3.4-19.2-6.8-38.3-9.9-57.5
		c-0.9-5.8,1.6-9.2,6.2-9.5c4.6-0.4,6.9,2.5,7.6,8.4c1.3,11.7,2.9,23.4,4.4,35.1c0.5,0.1,1,0.1,1.5,0.2c2.6-6.4,5.3-12.8,7.9-19.1
		c1.3-3.2,2.7-6.5,3.9-9.7c1.3-3.4,3.5-5.8,7.4-5.5c3.9,0.3,5.7,3,6.6,6.5c2,7.8,4.1,15.6,7.1,23.3c1.3-6.8,2.4-13.7,4.1-20.4
		c1.2-4.8,2.8-9.6,4.6-14.2c1.6-4.1,4.9-5.3,9-4c3.6,1.1,5.3,5.1,3.8,9c-6.5,17.4-8.4,35.5-8.6,53.9c0,1.2,0.3,2.5-0.2,3.5
		c-1.4,2.6-2.6,5.9-4.9,7.2c-3.2,1.9-6.7,0-8.4-3.3C90.1,101.7,86,93.4,82,85C81,83,80.4,80.8,79.3,77.7z"/>
	<path d="M168.8,81.5c0.3-11.4,3.1-20.2,10.3-27.3c10-9.8,24-7.1,29.2,5.9C213.5,73.4,211,86,202,97c-4.6,5.6-10.7,8.7-18.1,7.1
		c-7.6-1.6-11.7-7.2-13.8-14.3C169.3,86.6,169.1,83.3,168.8,81.5z M181.5,78.8c0.3,0.2,0.7,0.5,1,0.7c0.4,2.3,0.5,4.6,1.2,6.8
		c1.6,4.9,4.6,5.6,7.8,1.6c5.2-6.5,6.9-13.9,4.1-21.9c-1.5-4.2-4.4-4.9-6.9-1.3C185.7,68.9,183.8,74,181.5,78.8z"/>
	<path d="M119.7,80.9c-0.1-9.8,2.4-17.8,8.1-24.5c4.6-5.5,10.4-9,17.9-7.6c7.7,1.4,12.1,6.7,14.2,13.8c3.3,11.5,1.5,22.4-5.3,32.3
		c-5.3,7.6-13.4,11.1-20.5,9.2c-7.3-2-13.1-9.4-14.1-18.2C119.8,83.8,119.8,81.8,119.7,80.9z M148.9,73.4c-0.3-0.2-0.6-0.4-0.9-0.6
		c-0.4-2.1-0.6-4.3-1.3-6.3c-1.6-4.7-4.2-5.4-7.5-1.7c-5.6,6.3-7,13.8-4.6,21.8c1.4,4.6,4.8,5.4,7.5,1.3
		C145,83.5,146.7,78.3,148.9,73.4z"/>
</g>
</svg>
