<?xml version="1.0" encoding="utf-8"?>
<!-- Generator: Adobe Illustrator 21.0.0, SVG Export Plug-In . SVG Version: 6.00 Build 0)  -->
<svg version="1.1" id="Layer_1" xmlns="http://www.w3.org/2000/svg" xmlns:xlink="http://www.w3.org/1999/xlink" x="0px" y="0px"
	 viewBox="0 0 512 512" style="enable-background:new 0 0 512 512;" xml:space="preserve">
<g>
	<g>
		<g>
			<path d="M41.1,152.5c-1.4-3.9-5.1-6.6-9.2-6.7c-4.2-0.1-8,2.2-9.7,6C7.5,184.8,0,219.8,0,256c0,49,13.9,96.6,40.1,137.6
				c25.5,40,61.6,72.1,104.2,92.7c1.4,0.7,2.9,1,4.5,1c2.5,0,4.9-0.9,6.8-2.6c3.1-2.8,4.2-7.2,2.7-11.1L41.1,152.5z M20.4,256
				c0-24.3,3.7-48,10.9-70.8L129.8,455C61.7,412,20.4,338,20.4,256z"/>
			<path d="M345.4,480.8L269.9,274c-1.5-4-5.3-6.7-9.6-6.7c0,0-0.1,0-0.1,0c-4.3,0-8.1,2.8-9.6,6.9l-73.8,214.3
				c-0.9,2.6-0.7,5.5,0.6,8c1.3,2.5,3.5,4.3,6.2,5.1c23.5,6.9,47.9,10.4,72.3,10.4c29.1,0,57.7-4.9,85-14.5c2.9-1,5.2-3.3,6.2-6.2
				s0.7-6.1-0.9-8.7C345.9,481.8,345.6,481.3,345.4,480.8z M256,491.6c-18.9,0-37.8-2.3-56.2-6.8L260.6,308L324,481.6
				C301.9,488.2,279.1,491.6,256,491.6z"/>
			<path d="M373.3,403.9c4.3,0,8.2-2.7,9.6-6.8l27.1-76.4c13-33.4,19.3-60.6,19.3-83c0-33.9-10-51.4-18.9-66.9
				c-0.1-0.1-0.1-0.2-0.2-0.3c-1-1.6-2-3.2-2.9-4.7c-10.6-17.1-19.7-31.8-19.7-47.6c0-16.1,11.9-33.4,31.1-33.4c0.3,0,0.8,0,1.3,0.1
				c0.4,0,0.8,0.1,1.2,0.1c4.3,0.3,8.3-2.2,10-6.2c1.7-4,0.7-8.6-2.5-11.5C381.6,23.9,320.2,0,256,0C169.7,0,89.7,43.1,42.1,115.4
				c-2,3.1-2.2,7-0.5,10.3c1.7,3.3,5,5.4,8.7,5.5c6.3,0.2,11.7,0.3,16.2,0.3c23.7,0,58.4-2.6,65.2-3.1c1.1,2,1.2,6.6,0.1,8.4
				c-2.7,0.3-14.3,1.6-26.9,2.2c-3.2,0.2-6.1,1.8-7.9,4.4c-1.8,2.6-2.3,6-1.2,9L176.2,392c1.4,4.2,5.3,7,9.7,7c0,0,0,0,0,0
				c4.4,0,8.3-2.8,9.7-7l53.8-161.3c0.7-2.2,0.7-4.6-0.1-6.8L220,145.6c-1.4-3.8-4.9-6.4-9-6.6c-11.6-0.7-22.8-2-24.8-2.2
				c-0.9-1.9-0.7-6.4,0.4-8.4c7,0.5,42.1,3.1,64.3,3.1c23.7,0,58.4-2.6,65.2-3.1c1.1,2,1.2,6.6,0.1,8.4c-2.7,0.3-14.3,1.6-26.9,2.2
				c-3.2,0.2-6.1,1.8-7.9,4.5c-1.8,2.6-2.2,6-1.2,9L363.6,397C365,401.1,368.9,403.9,373.3,403.9
				C373.3,403.9,373.3,403.9,373.3,403.9z M303.8,158.5c8.7-0.7,15-1.4,15.4-1.5c11.7-1.4,19.3-12.7,18.1-27
				c-1.2-13.6-10-22.7-21.4-22c-0.1,0-0.1,0-0.2,0c-0.4,0-39.7,3.1-64.7,3.1c-23.5,0-63.6-3.1-64-3.1c-0.1,0-0.1,0-0.2,0
				c-11.6-0.7-20.7,9.1-21.5,23.2c-0.8,14.1,6.9,24.9,18.4,25.8c1.6,0.2,9.8,1.2,19.5,1.9l25.7,68.7l-43,129l-66.6-198.1
				c8.7-0.7,15.1-1.4,15.4-1.5c11.7-1.4,19.3-12.7,18.1-27c-1.2-13.6-10-22.7-21.4-22c-0.1,0-0.1,0-0.2,0c-0.4,0-35.9,2.8-60.9,3.1
				C114.8,54,182.9,20.4,256,20.4c51.9,0,101.9,17,142.8,48.2c-18.5,8.2-31.4,27.3-31.4,49.6c0,21.6,11.1,39.4,22.8,58.3
				c0.9,1.5,1.9,3,2.8,4.5c8.3,14.5,16.1,28.3,16.1,56.6c0,19.6-6.1,45.1-18,75.8c0,0.1-0.1,0.2-0.1,0.3l-17.4,49L303.8,158.5z"/>
			<path d="M480.6,133.2c-2.4-4.3-7.5-6.3-12.1-4.8c-4.7,1.5-7.6,6.2-6.9,11.1c1,7.7,1.6,15.7,1.6,23.9c0,26.8-5.7,53.6-18,84.2
				c-0.1,0.1-0.1,0.3-0.2,0.5l-75.1,217.1c-1.4,4-0.1,8.5,3.2,11.2c1.9,1.5,4.2,2.3,6.5,2.3c1.8,0,3.5-0.5,5.1-1.4
				c38-22.2,69.9-53.9,92.2-91.8c23-39.1,35.1-83.8,35.1-129.4C512,213.1,501.1,170.6,480.6,133.2z M399.2,443l65.1-188.1
				c9.3-23.4,15.1-44.8,17.7-65.7c6.4,21.6,9.6,44.1,9.6,66.8C491.6,329.5,456.8,398.8,399.2,443z"/>
		</g>
	</g>
</g>
<g>
	<g>
		<path d="M262.3,369.7c-5.3-1.8-11.1,1.1-12.9,6.5l-1.4,4.1c-1.8,5.3,1.1,11.1,6.5,12.9c1.1,0.4,2.2,0.5,3.2,0.5
			c4.3,0,8.3-2.7,9.7-7l1.4-4.1C270.5,377.3,267.6,371.5,262.3,369.7z"/>
	</g>
</g>
<g>
	<g>
		<path d="M249.7,407.5c-5.3-1.8-11.1,1.1-12.9,6.5l-17,51c-1.8,5.3,1.1,11.1,6.5,12.9c1.1,0.4,2.2,0.5,3.2,0.5c4.3,0,8.3-2.7,9.7-7
			l17-51C257.9,415,255.1,409.3,249.7,407.5z"/>
	</g>
</g>
</svg>
