<svg id="check-dark" xmlns="http://www.w3.org/2000/svg" width="20" height="20" viewBox="0 0 20 20">
  <circle id="Ellipse_1" data-name="Ellipse 1" cx="7.5" cy="7.5" r="7.5" transform="translate(4 5)" fill="#ffd400"/>
  <path id="Path_1" data-name="Path 1" d="M10,0A10,10,0,1,1,2.928,2.928,10,10,0,0,1,10,0Zm0,1.935A8.067,8.067,0,1,0,15.7,4.3,8.06,8.06,0,0,0,10,1.935Z" fill="#abaebc" fill-rule="evenodd"/>
  <path id="Path_2" data-name="Path 2" d="M13.511,6.736,14.878,8.1,9.716,13.265a.97.97,0,0,1-1.368,0h0l-2.9-2.9L6.813,8.995l2.219,2.219Z" transform="translate(-0.446 0.264)" fill="#141618" fill-rule="evenodd"/>
</svg>
